<?xml version="1.0" encoding="UTF-8" standalone="no"?>
<!DOCTYPE svg PUBLIC "-//W3C//DTD SVG 1.1//EN" "http://www.w3.org/Graphics/SVG/1.1/DTD/svg11.dtd">
<svg width="100%" height="100%" viewBox="0 0 900 600" version="1.1" xmlns="http://www.w3.org/2000/svg" xmlns:xlink="http://www.w3.org/1999/xlink" xml:space="preserve" xmlns:serif="http://www.serif.com/" style="fill-rule:evenodd;clip-rule:evenodd;stroke-linejoin:round;stroke-miterlimit:2;">
    <g transform="matrix(1,0,0,1,66.75,52.6287)">
        <g id="Page-1">
            <g id="add-servicestack-reference">
                <g id="logo" transform="matrix(1,0,0,1,272,258)">
                    <g id="svg_13">
                        <g id="svg_20">
                            <path id="svg_19" d="M48.505,84.062C93.437,89.684 199.031,140.445 215.695,211.93L0.108,211.93C54.83,207.465 101.577,136.421 48.505,84.062ZM66.104,0.286C83.868,19.908 92.337,46.528 91.622,73.921C137.215,92.495 205.631,142.098 220.095,211.93L272.892,211.93C250.508,92.825 122.641,8.829 66.104,0.286Z" style="fill:rgb(35,31,32);fill-rule:nonzero;"/>
                        </g>
                    </g>
                </g>
                <g id="vb.net" transform="matrix(1,0,0,1,700,240)">
                    <g>
                        <g id="Group">
                            <g transform="matrix(1,0,0,1,15,59)">
                                <g id="_.net" serif:id=".net">
                                    <text x="0px" y="0px" style="font-family:'SegoeUI', 'Segoe UI', sans-serif;font-size:32px;fill:rgb(35,31,32);">.net</text>
                                </g>
                            </g>
                            <g transform="matrix(1,0,0,1,0,35)">
                                <g id="VB">
                                    <text x="0px" y="0px" style="font-family:'SegoeUIBlack', 'Segoe UI', sans-serif;font-weight:900;font-size:36px;fill:rgb(35,31,32);">VB</text>
                                </g>
                            </g>
                        </g>
                    </g>
                </g>
                <g id="fsharp" transform="matrix(1,0,0,1,670,160)">
                    <g id="Group1" serif:id="Group">
                        <g>
                            <rect x="0" y="0" width="60" height="60" style="fill-opacity:0;"/>
                            <path id="Shape" d="M0,28.525L28.525,0L28.525,14.262L14.262,28.525L28.525,42.787L28.525,57.049L0,28.525Z" style="fill:rgb(55,139,186);fill-rule:nonzero;"/>
                            <path id="Shape1" serif:id="Shape" d="M18.689,29.016L28.525,18.689L28.525,39.344L18.689,29.016Z" style="fill:rgb(55,139,186);fill-rule:nonzero;"/>
                            <path id="Shape2" serif:id="Shape" d="M60,28.525L30.492,0L30.492,14.262L44.737,28.525L30.492,42.787L30.492,57.049L60,28.525Z" style="fill:rgb(48,185,219);fill-rule:nonzero;"/>
                        </g>
                    </g>
                </g>
                <g id="kotlin" transform="matrix(1,0,0,1,560,90)">
                    <g id="Group2" serif:id="Group">
                        <g>
                            <rect x="0" y="0" width="170" height="50" style="fill-opacity:0;"/>
                            <g id="XMLID_10_" transform="matrix(1,0,0,1,46,0)">
                                <g id="Group3" serif:id="Group">
                                    <path id="XMLID_128_" d="M0.284,1.456L7.799,1.456L7.799,16.302L21.656,1.456L30.731,1.456L16.825,15.865L31.366,35.418L22.339,35.418L11.751,20.96L7.799,25.035L7.799,35.418L0.284,35.418L0.284,1.456Z" style="fill:rgb(35,31,32);fill-rule:nonzero;"/>
                                    <path id="XMLID_125_" d="M27.372,22.561L27.372,22.464C27.372,14.992 33.423,8.927 41.571,8.927C49.671,8.927 55.672,14.895 55.672,22.367L55.672,22.464C55.672,29.936 49.622,36 41.474,36C33.374,36 27.372,30.032 27.372,22.561ZM48.353,22.561L48.353,22.464C48.353,18.631 45.572,15.283 41.474,15.283C37.229,15.283 34.691,18.534 34.691,22.367L34.691,22.464C34.691,26.297 37.472,29.644 41.571,29.644C45.816,29.644 48.353,26.394 48.353,22.561Z" style="fill:rgb(35,31,32);fill-rule:nonzero;"/>
                                    <path id="XMLID_123_" d="M57.72,28.043L57.72,15.72L54.597,15.72L54.597,9.412L57.72,9.412L57.72,2.765L65.136,2.765L65.136,9.412L71.284,9.412L71.284,15.72L65.136,15.72L65.136,26.83C65.136,28.528 65.868,29.353 67.527,29.353C68.894,29.353 70.113,29.014 71.187,28.431L71.187,34.351C69.625,35.272 67.82,35.855 65.332,35.855C60.794,35.855 57.72,34.059 57.72,28.043Z" style="fill:rgb(35,31,32);fill-rule:nonzero;"/>
                                    <path id="XMLID_121_" d="M73.413,0L80.83,0L80.83,35.418L73.413,35.418L73.413,0Z" style="fill:rgb(35,31,32);fill-rule:nonzero;"/>
                                    <path id="XMLID_118_" d="M83.511,0L91.317,0L91.317,6.55L83.511,6.55L83.511,0ZM83.706,9.412L91.123,9.412L91.123,35.418L83.706,35.418L83.706,9.412Z" style="fill:rgb(35,31,32);fill-rule:nonzero;"/>
                                    <path id="XMLID_116_" d="M93.944,9.412L101.36,9.412L101.36,13.1C103.068,10.916 105.264,8.927 109.021,8.927C114.632,8.927 117.901,12.615 117.901,18.582L117.901,35.418L110.485,35.418L110.485,20.911C110.485,17.418 108.826,15.623 105.996,15.623C103.165,15.623 101.36,17.418 101.36,20.911L101.36,35.418L93.944,35.418L93.944,9.412Z" style="fill:rgb(35,31,32);fill-rule:nonzero;"/>
                                </g>
                            </g>
                            <g transform="matrix(1,0,0,1,0,1)">
                                <path id="Shape3" serif:id="Shape" d="M17.436,0.104L0.057,17.859L0.057,33.731L17.411,16.843L34.672,0.104L17.436,0.104Z" style="fill:url(#_Linear1);fill-rule:nonzero;"/>
                                <path id="XMLID_11_" d="M0.057,33.731L17.411,16.843L34.672,33.731L0.057,33.731Z" style="fill:url(#_Linear2);fill-rule:nonzero;"/>
                                <path id="Shape4" serif:id="Shape" d="M0.057,0.104L17.436,0.104L0.057,17.859L0.057,0.104Z" style="fill:url(#_Linear3);fill-rule:nonzero;"/>
                            </g>
                        </g>
                    </g>
                </g>
                <g transform="matrix(1,0,0,1,280.15,62.2805)">
                    <g id="csharp">
                        <g id="Group4" serif:id="Group">
                            <g>
                                <g id="C-" serif:id="C#">
                                    <text x="0px" y="0px" style="font-family:'SegoeUI', 'Segoe UI', sans-serif;font-size:72px;fill:rgb(106,0,131);">C#</text>
                                </g>
                            </g>
                        </g>
                    </g>
                </g>
                <g id="swift" transform="matrix(1,0,0,1,447.573,13.1243)">
                    <g>
                        <rect x="0" y="0" width="150" height="50" style="fill-opacity:0;"/>
                        <g id="svg_222">
                            <g id="svg_223">
                                <path id="svg_224" d="M39.455,10.937L39.455,9.752C39.455,8.896 39.39,8.04 39.258,7.184C39.126,6.328 38.863,5.538 38.468,4.748C38.073,3.958 37.546,3.3 36.953,2.641C36.361,2.049 35.637,1.522 34.847,1.127C34.056,0.732 33.266,0.468 32.41,0.337C31.554,0.205 30.699,0.139 29.843,0.139L9.432,0.139C8.773,0.139 8.115,0.205 7.523,0.337C6.864,0.468 6.272,0.6 5.679,0.863C5.481,0.929 5.284,1.061 5.086,1.127C4.494,1.39 3.967,1.785 3.506,2.18C3.375,2.312 3.177,2.444 3.045,2.641C2.453,3.234 1.926,3.958 1.531,4.748C1.136,5.538 0.873,6.328 0.741,7.184C0.609,8.04 0.543,8.896 0.543,9.752L0.543,29.57C0.543,30.426 0.609,31.282 0.741,32.138C0.873,32.994 1.136,33.784 1.531,34.574C1.926,35.364 2.453,36.023 3.045,36.681C3.638,37.274 4.362,37.8 5.152,38.195C5.942,38.59 6.732,38.854 7.588,38.985C8.444,39.117 9.3,39.183 10.156,39.183L29.908,39.183C30.764,39.183 31.62,39.117 32.476,38.985C33.332,38.854 34.122,38.59 34.912,38.195C35.702,37.8 36.361,37.274 37.019,36.681C37.612,36.088 38.139,35.364 38.534,34.574C38.929,33.784 39.192,32.994 39.324,32.138C39.455,31.282 39.521,30.426 39.521,29.57L39.521,12.386C39.455,11.859 39.455,11.398 39.455,10.937Z" style="fill:rgb(240,81,56);fill-rule:nonzero;"/>
                                <path id="svg_228" d="M31.357,24.237C31.423,24.105 31.423,23.908 31.489,23.776C33.135,17.324 29.118,9.686 22.468,5.67C25.431,9.62 26.682,14.493 25.563,18.706C25.431,19.101 25.365,19.431 25.168,19.826C25.036,19.76 24.839,19.628 24.575,19.496C24.575,19.496 17.925,15.348 10.683,8.106C10.485,7.908 14.567,13.9 19.111,18.706C16.938,17.521 10.946,13.11 7.127,9.62C7.588,10.41 8.181,11.135 8.773,11.859C11.934,15.875 16.082,20.879 21.086,24.698C17.596,26.805 12.658,27.002 7.72,24.698C6.535,24.105 5.35,23.447 4.296,22.657C6.403,26.015 9.564,28.846 13.514,30.558C18.189,32.533 22.798,32.401 26.221,30.624L26.287,30.624C26.419,30.558 26.551,30.492 26.682,30.36C28.328,29.504 31.62,28.648 33.398,32.072C33.793,32.796 34.715,28.319 31.357,24.237Z" style="fill:white;fill-rule:nonzero;"/>
                            </g>
                            <g id="svg_229" transform="matrix(1,0,0,1,51.356,5.92569)">
                                <path id="svg_230" d="M1.136,29.438C1.992,30.031 2.979,30.492 4.099,30.887C5.218,31.216 6.403,31.414 7.654,31.414C9.893,31.414 11.67,30.821 12.987,29.702C14.238,28.517 14.897,27.002 14.897,25.093C14.897,23.381 14.436,21.998 13.514,20.879C12.592,19.826 11.012,18.838 8.839,17.916C6.469,17.06 4.625,16.007 3.243,14.69C1.86,13.373 1.136,11.661 1.136,9.554C1.136,8.435 1.333,7.382 1.794,6.46C2.255,5.538 2.848,4.682 3.572,4.024C4.296,3.365 5.284,2.839 6.337,2.444C7.391,2.049 8.576,1.851 9.827,1.851C11.275,1.851 12.526,1.983 13.514,2.312C14.502,2.641 15.292,2.904 15.753,3.234L14.963,5.011C14.567,4.682 13.843,4.419 12.987,4.09C12.066,3.76 11.012,3.629 9.761,3.629C8.576,3.629 7.523,3.826 6.732,4.155C5.876,4.485 5.218,4.946 4.757,5.472C4.23,5.999 3.901,6.592 3.704,7.25C3.506,7.908 3.375,8.501 3.375,9.159C3.375,10.871 3.901,12.188 4.889,13.176C5.876,14.163 7.457,15.085 9.629,15.941C10.88,16.468 11.934,16.994 12.921,17.587C13.843,18.18 14.633,18.772 15.292,19.496C15.95,20.221 16.411,20.945 16.74,21.867C17.069,22.723 17.201,23.71 17.201,24.83C17.201,25.949 17.004,27.002 16.609,27.99C16.214,28.978 15.621,29.899 14.831,30.689C14.041,31.479 13.053,32.072 11.868,32.533C10.683,32.994 9.3,33.191 7.72,33.191C7.062,33.191 6.403,33.126 5.745,33.06C5.086,32.928 4.428,32.796 3.77,32.599C3.111,32.401 2.519,32.204 1.992,31.94C1.465,31.677 0.938,31.414 0.543,31.15L1.136,29.438Z" style="fill-rule:nonzero;"/>
                                <path id="svg_231" d="M20.954,11.069L24.509,23.381C24.905,24.632 25.234,25.817 25.497,26.936C25.826,28.056 26.09,29.109 26.287,30.163L26.419,30.163C26.682,29.109 27.011,28.056 27.341,26.936C27.736,25.817 28.065,24.632 28.526,23.315L32.805,11.003L34.781,11.003L38.863,23.184C39.258,24.5 39.653,25.751 40.048,26.871C40.443,27.99 40.706,29.109 40.97,30.097L41.101,30.097C41.299,29.043 41.562,27.99 41.892,26.871C42.221,25.817 42.55,24.566 43.011,23.184L46.83,10.937L49.002,10.937L41.892,32.665L40.048,32.665L36.032,20.55C35.571,19.233 35.176,18.048 34.781,16.863C34.386,15.678 34.122,14.493 33.859,13.242L33.793,13.242C33.464,14.558 33.069,15.809 32.74,16.994C32.345,18.18 31.95,19.431 31.489,20.682L27.209,32.73L25.365,32.73L18.781,11.003L20.954,11.069Z" style="fill-rule:nonzero;"/>
                                <path id="svg_232" d="M52.689,4.485C52.689,3.958 52.887,3.563 53.216,3.168C53.545,2.773 54.006,2.641 54.533,2.641C55.06,2.641 55.455,2.839 55.85,3.168C56.179,3.497 56.377,3.958 56.377,4.485C56.377,5.011 56.179,5.406 55.85,5.801C55.455,6.131 55.06,6.328 54.533,6.328C54.006,6.328 53.611,6.131 53.216,5.801C52.887,5.406 52.689,5.011 52.689,4.485ZM53.48,32.796L53.48,11.069L55.586,11.069L55.586,32.796L53.48,32.796Z" style="fill-rule:nonzero;"/>
                                <path id="svg_233" d="M64.277,32.796L64.277,12.781L61.183,12.781L61.183,11.135L64.277,11.135L64.277,9.884C64.277,8.501 64.409,7.25 64.607,6.065C64.87,4.88 65.265,3.892 65.792,3.036C66.319,2.18 67.109,1.522 67.965,0.995C68.886,0.468 70.006,0.271 71.322,0.271C72.047,0.271 72.639,0.337 73.166,0.468C73.693,0.6 74.154,0.798 74.483,0.995L73.824,2.641C73.495,2.509 73.166,2.378 72.771,2.246C72.376,2.114 71.849,2.049 71.191,2.049C70.137,2.049 69.347,2.246 68.755,2.707C68.162,3.102 67.635,3.695 67.306,4.419C66.977,5.143 66.714,5.933 66.582,6.921C66.45,7.908 66.384,8.896 66.384,9.884L66.384,11.135L76.721,11.135L76.721,12.781L66.45,12.781L66.45,32.796L64.277,32.796Z" style="fill-rule:nonzero;"/>
                                <path id="svg_234" d="M78.236,6.262L78.236,11.135L84.227,11.135L84.227,12.781L78.236,12.781L78.236,26.936C78.236,28.385 78.499,29.504 78.96,30.294C79.421,31.084 80.211,31.479 81.396,31.479C81.923,31.479 82.384,31.479 82.779,31.414C83.174,31.348 83.503,31.282 83.766,31.216L83.964,32.862C83.24,33.191 82.252,33.389 81.067,33.389C80.079,33.389 79.223,33.191 78.631,32.862C77.972,32.533 77.512,32.072 77.116,31.479C76.721,30.887 76.458,30.163 76.326,29.373C76.195,28.517 76.129,27.661 76.129,26.673L76.129,12.912L76.261,12.912L76.261,11.266L76.129,11.266L76.129,7.25L78.236,6.262Z" style="fill-rule:nonzero;"/>
                            </g>
                        </g>
                    </g>
                </g>
                <g id="typescript" transform="matrix(1,0,0,1,19.3927,152.959)">
                    <g>
                        <g transform="matrix(1,0,0,1,82,37)">
                            <g id="svg_3">
                                <text x="0px" y="0px" style="font-family:'SegoeUI-Light', 'Segoe UI', sans-serif;font-weight:300;font-size:38px;fill:rgb(0,122,204);">Script</text>
                            </g>
                        </g>
                        <g transform="matrix(1,0,0,1,0,37)">
                            <g id="svg_2">
                                <text x="0px" y="0px" style="font-family:'SegoeUI', 'Segoe UI', sans-serif;font-size:38px;fill:rgb(0,122,204);">T<tspan x="17.813px 36.2px " y="0px 0px ">yp</tspan>e</text>
                            </g>
                        </g>
                    </g>
                </g>
                <g id="java" transform="matrix(1,0,0,1,-18.8623,234.481)">
                    <g>
                        <rect x="0" y="0" width="100" height="150" style="fill-opacity:0;"/>
                        <path id="path254" d="M39.052,43.94C43.479,49.034 37.89,53.619 37.89,53.619C37.89,53.619 49.123,47.818 43.963,40.556C39.145,33.787 35.453,30.422 55.452,18.821C55.452,18.821 24.056,26.665 39.052,43.94" style="fill:rgb(248,151,29);fill-rule:nonzero;"/>
                        <path id="path256" d="M43.962,0.091C43.962,0.091 53.491,9.622 34.925,24.281C20.039,36.038 31.53,42.74 34.921,50.402C26.232,42.561 19.852,35.66 24.13,29.234C30.408,19.804 47.811,15.23 43.962,0.091" style="fill:rgb(248,151,29);fill-rule:nonzero;"/>
                        <path id="path258" d="M18.201,140.208C17.534,141.169 16.616,141.647 15.448,141.647C13.19,141.647 12.062,140.118 12.062,137.056C12.062,135.477 12.374,134.258 13.001,133.404C13.626,132.55 14.497,132.122 15.612,132.122C16.699,132.122 17.503,132.631 18.024,133.645L17.31,134.276C16.909,133.636 16.387,133.316 15.749,133.316C15.072,133.316 14.547,133.632 14.171,134.268C13.797,134.902 13.61,135.747 13.61,136.796C13.61,139.227 14.314,140.442 15.722,140.442C16.387,140.442 16.996,140.122 17.544,139.484L18.201,140.208Z" style="fill:rgb(88,131,159);fill-rule:nonzero;"/>
                        <path id="path260" d="M25.067,136.974C25.067,135.659 24.88,134.699 24.504,134.096C24.159,133.54 23.613,133.261 22.875,133.261C21.458,133.261 20.75,134.425 20.75,136.755C20.75,138.089 20.937,139.057 21.313,139.66C21.658,140.217 22.204,140.497 22.942,140.497C24.36,140.497 25.067,139.321 25.067,136.974M26.629,136.714C26.629,138.376 26.268,139.633 25.547,140.483C24.89,141.26 23.97,141.646 22.792,141.646C21.614,141.646 20.733,141.305 20.147,140.62C19.509,139.863 19.188,138.669 19.188,137.042C19.188,135.389 19.549,134.138 20.27,133.288C20.93,132.511 21.847,132.123 23.025,132.123C25.428,132.123 26.629,133.654 26.629,136.714" style="fill:rgb(88,131,159);fill-rule:nonzero;"/>
                        <path id="path262" d="M37.852,141.51L36.304,141.51C36.25,138.899 36.098,136.439 35.853,134.139L35.839,134.139L33.481,141.51L32.303,141.51L29.959,134.139L29.945,134.139C29.772,136.349 29.662,138.807 29.615,141.51L28.206,141.51C28.297,138.221 28.526,135.138 28.891,132.261L30.809,132.261L33.044,139.057L33.055,139.057L35.303,132.261L37.141,132.261C37.542,135.631 37.779,138.716 37.852,141.51" style="fill:rgb(88,131,159);fill-rule:nonzero;"/>
                        <path id="path264" d="M44.171,135.22C44.171,133.969 43.475,133.342 42.087,133.342L41.443,133.342L41.443,137.139L42.116,137.139C43.487,137.139 44.171,136.5 44.171,135.22M45.719,135.07C45.719,136.028 45.432,136.778 44.856,137.316C44.198,137.939 43.201,138.249 41.869,138.249L41.443,138.249L41.443,141.51L39.964,141.51L39.964,132.261C40.193,132.261 40.562,132.255 41.073,132.245L42.334,132.245C44.591,132.245 45.719,133.188 45.719,135.07" style="fill:rgb(88,131,159);fill-rule:nonzero;"/>
                        <path id="path266" d="M51.16,138.468C50.649,136.622 50.161,135.005 49.706,133.617C49.178,135.371 48.723,136.987 48.351,138.468L51.16,138.468ZM53.462,141.51L51.872,141.51C51.769,141.071 51.617,140.428 51.407,139.578L48.102,139.578C47.948,140.189 47.807,140.833 47.678,141.51L46.24,141.51C46.97,138.414 47.848,135.331 48.872,132.259L50.775,132.259C51.806,135.284 52.705,138.367 53.462,141.51Z" style="fill:rgb(88,131,159);fill-rule:nonzero;"/>
                        <path id="path268" d="M59.822,133.424L57.574,133.424L57.574,141.511L56.093,141.511L56.093,133.424L53.845,133.424L53.845,132.26L59.822,132.26L59.822,133.424Z" style="fill:rgb(88,131,159);fill-rule:nonzero;"/>
                        <path id="path270" d="M61.161,141.51L62.644,141.51L62.644,132.261L61.161,132.261L61.161,141.51Z" style="fill:rgb(88,131,159);fill-rule:nonzero;"/>
                        <path id="path272" d="M69.316,138.756C69.316,137.697 68.663,137.165 67.357,137.165L66.37,137.165L66.37,140.401C66.68,140.437 67.047,140.455 67.465,140.455C68.699,140.455 69.316,139.89 69.316,138.756M68.892,134.616C68.892,133.749 68.4,133.315 67.413,133.315L66.37,133.315L66.37,136.138L67.207,136.138C67.783,136.138 68.219,135.979 68.522,135.659C68.769,135.393 68.892,135.046 68.892,134.616M70.88,138.633C70.88,139.5 70.587,140.19 70.001,140.701C69.353,141.26 68.418,141.538 67.191,141.538C66.929,141.538 66.542,141.532 66.037,141.525C65.528,141.515 65.155,141.509 64.918,141.509L64.918,132.26L67.714,132.26C68.61,132.26 69.291,132.463 69.756,132.864C70.186,133.238 70.4,133.749 70.4,134.399C70.4,135.384 69.96,136.07 69.085,136.454C69.594,136.537 70.016,136.764 70.344,137.138C70.702,137.551 70.88,138.048 70.88,138.633" style="fill:rgb(88,131,159);fill-rule:nonzero;"/>
                        <path id="path274" d="M77.115,141.51L72.715,141.51L72.715,132.261L74.196,132.261L74.196,140.372L77.115,140.372L77.115,141.51Z" style="fill:rgb(88,131,159);fill-rule:nonzero;"/>
                        <path id="path276" d="M83.132,141.51L78.485,141.51L78.485,132.261L83.076,132.261L83.076,133.412L79.964,133.412L79.964,136.219L82.528,136.219L82.528,137.33L79.964,137.33L79.964,140.345L83.132,140.345L83.132,141.51Z" style="fill:rgb(88,131,159);fill-rule:nonzero;"/>
                        <path id="path278" d="M69.855,108.547L70.607,108.547L70.607,105.657L71.594,105.657L71.594,105.065L68.829,105.065L68.829,105.657L69.855,105.657L69.855,108.547Z" style="fill:rgb(88,131,159);fill-rule:nonzero;"/>
                        <path id="path280" d="M75.587,108.547L76.298,108.547L76.298,105.065L75.23,105.065L74.361,107.441L73.414,105.065L72.386,105.065L72.386,108.547L73.055,108.547L73.055,105.898L73.094,105.898L74.087,108.547L74.598,108.547L75.587,105.898L75.587,108.547Z" style="fill:rgb(88,131,159);fill-rule:nonzero;"/>
                        <path id="path282" d="M7.611,123.042C7.611,127.616 6.067,131.053 2.982,133.353L0.749,131.46C1.731,130.309 2.39,128.934 2.727,127.336C2.953,126.241 3.063,124.725 3.063,122.79L3.063,97.57L7.611,97.57L7.611,123.042Z" style="fill:rgb(88,131,159);fill-rule:nonzero;"/>
                        <path id="path284" d="M23.735,121.147L23.735,116.18L21.923,116.18C17.856,116.18 15.82,117.443 15.82,119.967C15.82,122.157 16.9,123.252 19.061,123.252C20.548,123.252 22.106,122.55 23.735,121.147ZM28.029,125.988L24.661,125.988L24.323,123.715C22.249,125.512 20.087,126.41 17.841,126.41C13.632,126.41 11.528,124.473 11.528,120.601C11.528,118.384 12.383,116.658 14.095,115.422C15.948,114.101 18.657,113.442 22.22,113.442L23.735,113.442L23.735,111.547C23.735,109.05 22.289,107.801 19.399,107.801C17.517,107.801 15.469,108.209 13.252,109.021L12.622,106.37C15.23,105.219 17.885,104.644 20.577,104.644C25.544,104.644 28.029,106.763 28.029,110.999L28.029,125.988Z" style="fill:rgb(88,131,159);fill-rule:nonzero;"/>
                        <path id="path286" d="M49.08,105.023C47.705,112.77 45.542,119.757 42.596,125.989L37.249,125.989L30.806,105.023L35.481,105.023L39.478,117.904L40.363,121.778C42.442,116.053 43.83,110.468 44.532,105.023L49.08,105.023Z" style="fill:rgb(88,131,159);fill-rule:nonzero;"/>
                        <path id="path288" d="M62.549,121.147L62.549,116.18L60.74,116.18C56.668,116.18 54.634,117.443 54.634,119.967C54.634,122.157 55.716,123.252 57.877,123.252C59.365,123.252 60.921,122.55 62.549,121.147ZM66.844,125.988L63.476,125.988L63.139,123.715C61.06,125.512 58.901,126.41 56.656,126.41C52.446,126.41 50.342,124.473 50.342,120.601C50.342,118.384 51.196,116.658 52.908,115.422C54.761,114.101 57.47,113.442 61.035,113.442L62.549,113.442L62.549,111.547C62.549,109.05 61.105,107.801 58.214,107.801C56.333,107.801 54.285,108.209 52.068,109.021L51.435,106.37C54.046,105.219 56.699,104.644 59.392,104.644C64.361,104.644 66.844,106.763 66.844,110.999L66.844,125.988Z" style="fill:rgb(88,131,159);fill-rule:nonzero;"/>
                        <path id="path290" d="M22.751,71.017C22.751,71.017 19.248,73.051 25.246,73.741C32.513,74.57 36.228,74.452 44.236,72.937C44.236,72.937 46.343,74.258 49.281,75.397C31.329,83.094 8.649,74.956 22.751,71.017" style="fill:rgb(88,131,159);fill-rule:nonzero;"/>
                        <path id="path292" d="M20.557,60.974C20.557,60.974 16.628,63.884 22.63,64.502C30.392,65.305 36.524,65.37 47.134,63.328C47.134,63.328 48.597,64.815 50.907,65.627C29.201,71.98 5.025,66.128 20.557,60.974" style="fill:rgb(88,131,159);fill-rule:nonzero;"/>
                        <path id="path294" d="M62.797,78.441C62.797,78.441 65.39,80.577 59.938,82.234C49.576,85.371 16.809,86.319 7.706,82.355C4.436,80.934 10.571,78.958 12.501,78.543C14.514,78.109 15.665,78.187 15.665,78.187C12.023,75.622 -7.857,83.221 5.564,85.398C42.17,91.332 72.289,82.723 62.797,78.441" style="fill:rgb(88,131,159);fill-rule:nonzero;"/>
                        <path id="path296" d="M24.437,50.569C24.437,50.569 7.769,54.532 18.536,55.97C23.08,56.575 32.14,56.437 40.581,55.731C47.48,55.151 54.405,53.909 54.405,53.909C54.405,53.909 51.974,54.956 50.216,56.153C33.285,60.607 0.593,58.532 10.004,53.982C17.965,50.132 24.437,50.569 24.437,50.569" style="fill:rgb(88,131,159);fill-rule:nonzero;"/>
                        <path id="path298" d="M54.339,67.282C71.541,58.34 63.59,49.752 58.035,50.907C56.676,51.192 56.065,51.437 56.065,51.437C56.065,51.437 56.572,50.643 57.536,50.304C68.524,46.442 76.973,61.691 53.992,67.733C53.992,67.733 54.258,67.496 54.339,67.282" style="fill:rgb(88,131,159);fill-rule:nonzero;"/>
                        <path id="path300" d="M26.128,91.511C42.644,92.568 68.004,90.923 68.609,83.109C68.609,83.109 67.452,86.072 54.956,88.427C40.862,91.078 23.473,90.765 13.166,89.067C13.166,89.067 15.273,90.815 26.128,91.511" style="fill:rgb(88,131,159);fill-rule:nonzero;"/>
                    </g>
                </g>
                <g id="dart" transform="matrix(1,0,0,1,-219.5,98.7425)">
                    <g>
                        <rect x="170" y="300" width="200" height="80" style="fill-opacity:0;"/>
                        <path d="M275.853,327.823C279.626,331.264 281.492,335.99 281.492,342.085C281.492,348.221 279.668,353.072 275.978,356.637C272.329,360.203 266.732,361.985 259.228,361.985L246.003,361.985L246.003,322.765L259.684,322.765C266.691,322.806 272.081,324.382 275.853,327.823ZM269.386,351.123C271.542,349.092 272.62,346.148 272.62,342.251C272.62,338.395 271.542,335.327 269.386,333.254C267.23,331.181 263.913,330.062 259.435,330.062L254.377,330.062L254.377,354.15L260.099,354.15C264.12,354.15 267.23,353.155 269.386,351.123Z" style="fill:rgb(35,31,32);fill-rule:nonzero;"/>
                        <path d="M312.669,362.027L304.834,362.027L304.834,358.296C302.595,361.032 299.983,362.4 296.79,362.4C293.598,362.4 290.903,361.488 288.706,359.622C286.508,357.757 285.431,355.269 285.431,352.201C285.431,349.092 286.55,346.811 288.83,345.277C291.069,343.743 294.178,342.997 298.076,342.997L304.295,342.997L304.295,342.748C304.295,339.514 302.636,337.897 299.237,337.897C297.785,337.897 296.251,338.188 294.593,338.768C292.976,339.349 291.608,340.053 290.447,340.924L286.674,335.451C290.654,332.549 295.215,331.098 300.314,331.098C304.004,331.098 306.907,332.01 309.27,333.876C311.591,335.7 312.669,338.644 312.669,342.624L312.669,362.027ZM304.253,350.377L304.253,349.133L298.988,349.133C295.588,349.133 293.93,350.087 293.93,352.16C293.93,353.237 294.344,354.025 295.132,354.606C295.92,355.186 297.081,355.435 298.615,355.435C300.107,355.435 301.434,354.979 302.553,354.025C303.714,353.155 304.253,351.911 304.253,350.377Z" style="fill:rgb(35,31,32);fill-rule:nonzero;"/>
                        <path d="M334.933,339.058C332.404,339.058 330.414,339.929 329.17,341.753C327.926,343.536 327.18,345.899 327.18,348.843L327.18,362.068L318.764,362.068L318.764,331.844L327.18,331.844L327.18,335.7C328.3,334.456 329.834,333.42 331.451,332.549C333.067,331.679 335.016,331.222 336.674,331.181L336.674,339.141L334.933,339.058L334.933,339.058Z" style="fill:rgb(35,31,32);fill-rule:nonzero;"/>
                        <path d="M350.19,337.939L350.19,351.289C350.19,352.45 350.522,353.362 351.144,354.025C351.724,354.689 352.47,355.02 353.3,355.02C354.875,355.02 356.202,354.315 357.321,352.864L360.472,358.793C357.86,361.198 355.082,362.4 352.18,362.4C349.278,362.4 346.832,361.446 344.8,359.539C342.769,357.632 341.815,355.02 341.815,351.703L341.815,322.848L350.232,322.848L350.232,331.264L359.187,331.264L354.585,337.98L350.19,337.939Z" style="fill:rgb(35,31,32);fill-rule:nonzero;"/>
                        <path d="M200.356,328.942L197.412,325.999L197.412,347.226L197.454,348.221C197.454,348.677 197.537,349.216 197.702,349.755L221.003,357.964L226.807,355.393L200.356,328.942Z" style="fill:rgb(0,196,179);fill-rule:nonzero;"/>
                        <path d="M197.702,349.755L197.702,349.755ZM226.807,355.393L221.003,357.964L197.744,349.755C198.2,351.455 199.153,353.362 200.231,354.44L207.818,361.985L224.734,362.027L226.807,355.393L226.807,355.393Z" style="fill:rgb(34,211,197);fill-rule:nonzero;"/>
                        <path d="M197.495,325.999L188.457,339.68C187.711,340.468 188.084,342.126 189.286,343.37L194.51,348.635L197.785,349.796C197.661,349.257 197.537,348.718 197.537,348.262L197.495,347.267L197.495,325.999L197.495,325.999Z" style="fill:rgb(0,117,201);fill-rule:nonzero;"/>
                        <path d="M221.168,326.247C220.629,326.123 220.09,326.04 219.634,325.999L218.598,325.957L197.412,325.957L226.807,355.352L229.377,349.548L221.168,326.247Z" style="fill:rgb(0,117,201);fill-rule:nonzero;"/>
                        <path d="M221.127,326.247L221.127,326.247ZM225.853,328.735C224.775,327.657 222.91,326.662 221.168,326.247L229.377,349.548L226.807,355.352L233.109,353.32L233.109,336.032L225.853,328.735Z" style="fill:rgb(0,168,225);fill-rule:nonzero;"/>
                        <path d="M220.008,323.014L214.742,317.79C213.54,316.587 211.881,316.214 211.052,316.96L197.371,325.999L218.556,325.999L219.593,326.04C220.049,326.04 220.588,326.123 221.127,326.289L220.008,323.014Z" style="fill:rgb(0,196,179);fill-rule:nonzero;"/>
                    </g>
                </g>
                <g id="php" transform="matrix(.16,0,0,.16,690,320)">
                    <path fill="#4F5B93" d="M320 104.5c171.4 0 303.2 72.2 303.2 151.5S491.3 407.5 320 407.5c-171.4 0-303.2-72.2-303.2-151.5S148.7 104.5 320 104.5m0-16.8C143.3 87.7 0 163 0 256s143.3 168.3 320 168.3S640 349 640 256S496.7 87.7 320 87.7zM218.2 242.5c-7.9 40.5-35.8 36.3-70.1 36.3l13.7-70.6c38 0 63.8-4.1 56.4 34.3zM97.4 350.3h36.7l8.7-44.8c41.1 0 66.6 3 90.2-19.1c26.1-24 32.9-66.7 14.3-88.1c-9.7-11.2-25.3-16.7-46.5-16.7h-70.7L97.4 350.3zm185.7-213.6h36.5l-8.7 44.8c31.5 0 60.7-2.3 74.8 10.7c14.8 13.6 7.7 31-8.3 113.1h-37c15.4-79.4 18.3-86 12.7-92c-5.4-5.8-17.7-4.6-47.4-4.6l-18.8 96.6h-36.5l32.7-168.6zM505 242.5c-8 41.1-36.7 36.3-70.1 36.3l13.7-70.6c38.2 0 63.8-4.1 56.4 34.3zM384.2 350.3H421l8.7-44.8c43.2 0 67.1 2.5 90.2-19.1c26.1-24 32.9-66.7 14.3-88.1c-9.7-11.2-25.3-16.7-46.5-16.7H417l-32.8 168.7z"/>
                </g>
                <g id="python" transform="matrix(0.45,0,0,0.45,604.491,410.659)">
                    <g>
                        <rect x="0" y="0" width="480" height="120" style="fill-opacity:0;"/>
                        <path d="M179.022,58.668C179.022,44.106 174.87,36.63 166.565,36.22C163.266,36.061 159.971,36.603 156.896,37.809C154.391,38.706 152.705,39.593 151.818,40.489L151.818,75.248C157.13,78.581 161.848,80.131 165.961,79.888C174.665,79.312 179.022,72.245 179.022,58.668ZM189.266,59.272C189.266,66.67 187.531,72.811 184.042,77.694C180.152,83.221 174.762,86.067 167.872,86.223C162.676,86.388 157.325,84.761 151.818,81.349L151.818,112.939L142.909,109.762L142.909,39.642C144.371,37.848 146.252,36.308 148.533,35.002C153.836,31.912 160.278,30.323 167.862,30.245L167.988,30.372C174.918,30.284 180.26,33.13 184.013,38.901C187.512,44.193 189.266,50.977 189.266,59.272ZM243.713,80.004C243.713,89.927 242.719,96.798 240.731,100.619C238.733,104.44 234.931,107.491 229.317,109.762C224.765,111.555 219.843,112.53 214.56,112.696L213.088,107.082C218.458,106.35 222.241,105.619 224.434,104.888C228.752,103.426 231.714,101.185 233.343,98.182C234.649,95.736 235.292,91.067 235.292,84.156L235.292,81.836C229.2,84.605 222.816,85.979 216.139,85.979C211.753,85.979 207.883,84.605 204.549,81.837C200.807,78.825 198.935,75.004 198.935,70.374L198.935,33.296L207.845,30.246L207.845,67.566C207.845,71.553 209.131,74.624 211.705,76.778C214.277,78.932 217.611,79.965 221.695,79.888C225.779,79.799 230.155,78.22 234.805,75.131L234.805,31.59L243.713,31.59L243.713,80.004ZM278.491,85.735C277.515,85.818 276.536,85.86 275.557,85.862C270.518,85.862 266.59,84.663 263.783,82.256C260.985,79.848 259.582,76.524 259.582,72.284L259.582,37.194L253.48,37.194L253.48,31.59L259.582,31.59L259.582,16.707L268.481,13.539L268.481,31.59L278.491,31.59L278.491,37.195L268.481,37.195L268.481,72.04C268.481,75.383 269.378,77.752 271.171,79.136C272.711,80.276 275.158,80.929 278.491,81.095L278.491,85.735ZM332.432,85.004L323.522,85.004L323.522,50.617C323.522,47.117 322.704,44.106 321.076,41.591C319.195,38.745 316.583,37.321 313.23,37.321C309.146,37.321 304.038,39.476 297.907,43.784L297.907,85.004L288.998,85.004L288.998,2.807L297.908,0L297.908,37.439C303.6,33.296 309.818,31.219 316.573,31.219C321.291,31.219 325.111,32.809 328.036,35.977C330.969,39.144 332.432,43.092 332.432,47.809L332.432,85.004ZM379.783,57.264C379.783,51.669 378.72,47.049 376.605,43.394C374.091,38.94 370.182,36.591 364.899,36.347C355.132,36.912 350.259,43.911 350.259,57.323C350.259,63.473 351.273,68.61 353.319,72.733C355.932,77.986 359.85,80.579 365.075,80.491C374.88,80.413 379.783,72.674 379.783,57.264ZM389.54,57.323C389.54,65.286 387.503,71.914 383.438,77.207C378.964,83.133 372.784,86.106 364.899,86.106C357.082,86.106 350.99,83.133 346.594,77.206C342.607,71.914 340.619,65.286 340.619,57.323C340.619,49.837 342.773,43.54 347.081,38.413C351.633,32.974 357.618,30.245 365.016,30.245C372.414,30.245 378.438,32.975 383.077,38.413C387.386,43.54 389.54,49.837 389.54,57.323ZM440.614,85.004L431.706,85.004L431.706,48.667C431.706,44.681 430.506,41.571 428.109,39.33C425.711,37.097 422.514,36.015 418.528,36.103C414.298,36.181 410.272,37.565 406.451,40.246L406.451,85.004L397.542,85.004L397.542,39.144C402.669,35.411 407.387,32.974 411.695,31.834C415.759,30.772 419.346,30.245 422.436,30.245C424.551,30.245 426.54,30.45 428.411,30.859C431.911,31.669 434.756,33.169 436.95,35.372C439.396,37.809 440.614,40.733 440.614,44.154L440.614,85.004Z" style="fill:rgb(100,100,100);fill-rule:nonzero;"/>
                        <g transform="matrix(1,0,0,1,-5.591,-3.262)">
                            <path d="M60.51,6.398C55.927,6.419 51.55,6.81 47.698,7.492C36.351,9.496 34.291,13.692 34.291,21.429L34.291,31.648L61.104,31.648L61.104,35.054L24.229,35.054C16.436,35.054 9.613,39.738 7.479,48.648C5.017,58.861 4.908,65.234 7.479,75.898C9.385,83.836 13.936,89.492 21.729,89.492L30.948,89.492L30.948,77.242C30.948,68.392 38.605,60.585 47.698,60.585L74.478,60.585C81.934,60.585 87.885,54.447 87.885,46.96L87.885,21.43C87.885,14.163 81.755,8.704 74.479,7.492C69.873,6.725 65.094,6.377 60.51,6.398ZM46.01,14.617C48.78,14.617 51.041,16.915 51.041,19.742C51.041,22.558 48.78,24.835 46.011,24.835C43.231,24.835 40.979,22.558 40.979,19.742C40.979,16.915 43.231,14.617 46.01,14.617Z" style="fill:url(#_Linear4);fill-rule:nonzero;"/>
                        </g>
                        <g transform="matrix(1,0,0,1,-5.591,-3.262)">
                            <path d="M91.229,35.054L91.229,46.96C91.229,56.191 83.403,63.96 74.479,63.96L47.698,63.96C40.362,63.96 34.291,70.239 34.291,77.585L34.291,103.117C34.291,110.383 40.61,114.657 47.698,116.742C56.185,119.237 64.324,119.688 74.478,116.742C81.229,114.787 87.885,110.854 87.885,103.117L87.885,92.898L61.104,92.898L61.104,89.492L101.291,89.492C109.084,89.492 111.988,84.056 114.698,75.898C117.497,67.499 117.378,59.422 114.698,48.648C112.772,40.891 109.094,35.054 101.291,35.054L91.229,35.054ZM76.166,99.71C78.946,99.71 81.198,101.988 81.198,104.804C81.198,107.631 78.946,109.929 76.166,109.929C73.396,109.929 71.136,107.631 71.136,104.804C71.136,101.988 73.396,99.71 76.166,99.71Z" style="fill:url(#_Linear5);fill-rule:nonzero;"/>
                        </g>
                    </g>
                </g>
                <g id="js_logo.svg" transform="matrix(0.121009,0,0,0.121009,173.079,66.1632)">
                    <g transform="matrix(1,0,0,1,-349.5,-349.5)">
                        <g transform="matrix(1,0,0,1,0,-1)">
                            <g id="Layer-1" serif:id="Layer 1">
                                <g id="g2987">
                                    <path id="path2991" d="M0,700L0,1L699,1L699,700L0,700ZM306,642.386C348.035,635.121 373.352,608.242 378.977,564.904C379.543,560.544 379.951,508.884 379.969,439.25L380,321L315,321L314.983,432.75C314.972,499.635 314.567,548.287 313.972,553.934C312.002,572.636 305.01,581.738 290.201,584.877C269.226,589.323 253.605,580.906 240.781,558.25C239.146,555.363 237.337,553 236.759,553C235.813,553 186.662,582.281 184.669,584.032C182.59,585.858 195.038,604.899 204.742,614.737C228.573,638.896 266.41,649.228 306,642.386L306,642.386ZM557.5,642.901C584.229,639.532 606.015,629.205 621.985,612.334C628.529,605.421 630.987,601.877 634.943,593.651C641.439,580.144 643.048,573.311 643.691,556.5C644.855,526.072 636.815,504.552 617.33,485.938C603.363,472.595 585.752,462.289 552.5,447.996C518.397,433.338 507.906,426.635 502.908,416.31C499.437,409.139 499.616,398.3 503.332,390.733C508.835,379.526 519.457,374.35 535.119,375.243C550.043,376.093 560.45,382.386 569.536,396.053L574.068,402.872L596.968,388.186C609.562,380.109 621.02,372.6 622.43,371.5L624.992,369.5L619.346,361.131C605.192,340.15 586.46,326.83 562.794,320.919C550.841,317.934 524.019,317.161 511,319.427C489.552,323.16 474.371,330.682 460.4,344.5C447.753,357.008 440.915,369.526 437.372,386.657C434.877,398.725 435.881,421.631 439.424,433.451C448.483,463.67 468.836,483.142 510.663,501.607C518.823,505.21 531.567,510.84 538.983,514.12C568.862,527.335 578.325,536.807 578.325,553.5C578.325,568.944 568.489,579.691 549.929,584.528C539.988,587.118 521.028,586.203 510.617,582.63C496.429,577.761 482.839,566.805 473.499,552.708C470.806,548.645 469.203,547.092 468.125,547.506C465.025,548.695 416,577.417 416,578.044C416,580.337 431.096,600.846 437.585,607.369C466.361,636.296 509.197,648.989 557.5,642.901Z" style="fill:rgb(238,217,77);fill-rule:nonzero;"/>
                                    <path id="path2989" d="M270.5,643.853C244.834,641.966 221.34,631.564 204.742,614.737C195.038,604.899 182.59,585.858 184.669,584.032C186.662,582.281 235.813,553 236.759,553C237.337,553 239.146,555.363 240.781,558.25C253.605,580.906 269.226,589.323 290.201,584.877C305.01,581.738 312.002,572.636 313.972,553.934C314.566,548.287 314.972,499.635 314.983,432.75L315,321L380,321L379.969,439.25C379.951,508.884 379.543,560.544 378.977,564.904C371.863,619.714 332.439,648.407 270.5,643.853L270.5,643.853ZM522.932,643.924C478.968,640.867 444.685,622.08 422.879,589.096C419.095,583.374 416,578.4 416,578.044C416,577.417 465.025,548.695 468.125,547.506C469.203,547.092 470.806,548.645 473.499,552.708C482.839,566.805 496.429,577.761 510.617,582.63C521.028,586.203 539.988,587.118 549.929,584.528C568.489,579.691 578.325,568.944 578.325,553.5C578.325,536.807 568.862,527.335 538.983,514.12C531.567,510.84 518.823,505.21 510.663,501.607C468.836,483.142 448.483,463.67 439.424,433.451C435.881,421.631 434.877,398.725 437.372,386.657C440.915,369.526 447.753,357.008 460.4,344.5C474.371,330.682 489.552,323.16 511,319.427C524.019,317.161 550.841,317.934 562.794,320.919C586.46,326.83 605.192,340.15 619.346,361.131L624.992,369.5L622.43,371.5C621.02,372.6 609.562,380.109 596.968,388.186L574.068,402.872L569.536,396.053C560.45,382.386 550.043,376.093 535.119,375.243C519.457,374.35 508.835,379.526 503.332,390.733C500.939,395.607 500.513,397.677 500.585,404.093C500.788,422.226 509.309,429.432 552.5,447.996C585.752,462.289 603.363,472.595 617.33,485.938C636.815,504.552 644.855,526.072 643.691,556.5C643.048,573.311 641.439,580.144 634.943,593.651C618.182,628.503 575.653,647.591 522.932,643.924L522.932,643.924Z" style="fill:rgb(49,50,47);fill-rule:nonzero;"/>
                                </g>
                            </g>
                        </g>
                    </g>
                </g>
            </g>
        </g>
    </g>
    <defs>
        <linearGradient id="_Linear1" x1="0" y1="0" x2="1" y2="0" gradientUnits="userSpaceOnUse" gradientTransform="matrix(27.756,-26.9629,26.9629,27.756,-3.86681,29.1704)"><stop offset="0" style="stop-color:rgb(199,87,188);stop-opacity:1"/><stop offset="0.11" style="stop-color:rgb(199,87,188);stop-opacity:1"/><stop offset="0.21" style="stop-color:rgb(208,96,154);stop-opacity:1"/><stop offset="0.43" style="stop-color:rgb(225,114,92);stop-opacity:1"/><stop offset="0.6" style="stop-color:rgb(238,126,47);stop-opacity:1"/><stop offset="0.74" style="stop-color:rgb(245,134,19);stop-opacity:1"/><stop offset="0.82" style="stop-color:rgb(248,137,9);stop-opacity:1"/><stop offset="1" style="stop-color:rgb(248,137,9);stop-opacity:1"/></linearGradient>
        <linearGradient id="_Linear2" x1="0" y1="0" x2="1" y2="0" gradientUnits="userSpaceOnUse" gradientTransform="matrix(14.6216,-14.2039,14.2039,14.6216,12.2658,38.6693)"><stop offset="0" style="stop-color:rgb(0,149,213);stop-opacity:1"/><stop offset="0.1" style="stop-color:rgb(0,149,213);stop-opacity:1"/><stop offset="0.3" style="stop-color:rgb(35,138,217);stop-opacity:1"/><stop offset="0.62" style="stop-color:rgb(85,123,222);stop-opacity:1"/><stop offset="0.86" style="stop-color:rgb(116,114,226);stop-opacity:1"/><stop offset="1" style="stop-color:rgb(128,110,227);stop-opacity:1"/></linearGradient>
        <linearGradient id="_Linear3" x1="0" y1="0" x2="1" y2="0" gradientUnits="userSpaceOnUse" gradientTransform="matrix(12.7803,-12.4152,12.4152,12.7803,-1.53102,10.5238)"><stop offset="0" style="stop-color:rgb(0,149,213);stop-opacity:1"/><stop offset="0.1" style="stop-color:rgb(0,149,213);stop-opacity:1"/><stop offset="0.3" style="stop-color:rgb(35,138,217);stop-opacity:1"/><stop offset="0.62" style="stop-color:rgb(85,123,222);stop-opacity:1"/><stop offset="0.86" style="stop-color:rgb(116,114,226);stop-opacity:1"/><stop offset="1" style="stop-color:rgb(128,110,227);stop-opacity:1"/></linearGradient>
        <linearGradient id="_Linear4" x1="0" y1="0" x2="1" y2="0" gradientUnits="userSpaceOnUse" gradientTransform="matrix(61.3259,53.2722,-53.2722,61.3259,5.59113,6.39745)"><stop offset="0" style="stop-color:rgb(90,159,212);stop-opacity:1"/><stop offset="1" style="stop-color:rgb(48,105,152);stop-opacity:1"/></linearGradient>
        <linearGradient id="_Linear5" x1="0" y1="0" x2="1" y2="0" gradientUnits="userSpaceOnUse" gradientTransform="matrix(-21.8997,-31.2832,31.2832,-21.8997,75.5216,103.945)"><stop offset="0" style="stop-color:rgb(255,212,59);stop-opacity:1"/><stop offset="1" style="stop-color:rgb(255,232,115);stop-opacity:1"/></linearGradient>
    </defs>
</svg>
