<?xml version="1.0" encoding="UTF-8" standalone="no"?>
<!DOCTYPE svg PUBLIC "-//W3C//DTD SVG 1.1//EN" "http://www.w3.org/Graphics/SVG/1.1/DTD/svg11.dtd">
<svg width="100%" height="100%" viewBox="0 0 2500 2432" version="1.1" xmlns="http://www.w3.org/2000/svg" xmlns:xlink="http://www.w3.org/1999/xlink" xml:space="preserve" xmlns:serif="http://www.serif.com/" style="fill-rule:evenodd;clip-rule:evenodd;stroke-linejoin:round;stroke-miterlimit:2;">
    <path d="M1639.41,453.002L1408.16,607.338L1169.92,250.326L1401.17,95.98L1639.4,453.002L1639.41,453.002Z" style="fill:url(#_Linear1);fill-rule:nonzero;"/>
    <path d="M1827.43,1525.57L2222.55,2117.66L1751.87,2431.77L1356.75,1839.66L1287.8,1736.38L1758.51,1422.27L1827.43,1525.56L1827.43,1525.57Z" style="fill:url(#_Linear2);fill-rule:nonzero;"/>
    <path d="M1234.59,1921.18L1321.58,2051.54L963.32,2290.62L807.393,2056.97L885.664,2004.74L1165.66,1817.88L1234.59,1921.18Z" style="fill:url(#_Linear3);fill-rule:nonzero;"/>
    <path d="M2023.16,1245.66L2123.65,1178.6L2279.57,1412.25L2048.29,1566.6L1961.3,1436.23L2092.09,1348.95L2023.16,1245.66ZM1961.3,1436.23L1892.37,1332.94L2023.16,1245.66L2092.09,1348.95L1961.3,1436.23Z" style="fill:url(#_Linear4);fill-rule:nonzero;"/>
    <path d="M401.465,1279.15L323.193,1331.38L84.941,974.359L443.213,735.277L610.205,985.541L330.215,1172.4L610.215,985.531L681.465,1092.3L401.455,1279.14L401.465,1279.15Z" style="fill:url(#_Linear5);fill-rule:nonzero;"/>
    <path d="M1274.31,696.684L803.604,1010.8L732.363,904.027L340.938,317.465L811.641,3.363L1203.06,589.916L1274.31,696.684Z" style="fill:url(#_Linear6);fill-rule:nonzero;"/>
    <path d="M1538.97,520.082L1408.17,607.357L1336.91,500.59L1169.92,250.336L1401.2,95.98L1639.45,453.012L1538.97,520.082Z" style="fill:url(#_Linear7);fill-rule:nonzero;"/>
    <g transform="matrix(1,0,0,1,625,608.07)">
        <text x="0px" y="8.596px" style="font-family:'ArialMT', 'Arial', sans-serif;font-size:12px;fill:url(#_Linear8);">#008ed6</text>
    </g>
    <path d="M954.59,2108.03L885.664,2004.74L1165.66,1817.88L1234.59,1921.18L954.59,2108.03Z" style="fill:rgb(0,108,214);fill-rule:nonzero;"/>
    <g transform="matrix(1,0,0,1,625,608.07)">
        <text x="0px" y="8.596px" style="font-family:'ArialMT', 'Arial', sans-serif;font-size:12px;fill:rgb(0,142,214);">#008ed6</text>
    </g>
    <path d="M1961.3,1436.23L1892.37,1332.94L2023.16,1245.66L2092.09,1348.95L1961.3,1436.23Z" style="fill:rgb(0,108,214);fill-rule:nonzero;"/>
    <path d="M401.465,1279.15L330.215,1172.4L610.205,985.531L681.465,1092.3L401.455,1279.14L401.465,1279.15Z" style="fill:rgb(0,108,214);fill-rule:nonzero;"/>
    <path d="M1408.17,607.357L1336.91,500.59L1467.73,413.305L1538.97,520.082L1408.17,607.357Z" style="fill:rgb(0,108,214);fill-rule:nonzero;"/>
    <path d="M1827.43,1525.57L1356.74,1839.66L1287.81,1736.38L1758.51,1422.27L1827.43,1525.56L1827.43,1525.57Z" style="fill:rgb(0,108,214);fill-rule:nonzero;"/>
    <path d="M1203.06,589.926L1274.31,696.684L803.604,1010.8L732.363,904.027L1203.07,589.916L1203.06,589.926Z" style="fill:rgb(0,108,214);fill-rule:nonzero;"/>
    <path d="M267.959,504.604L356.797,637.738L223.662,726.576L134.824,593.441L267.959,504.604Z" style="fill:rgb(0,142,214);fill-rule:nonzero;"/>
    <path d="M747.734,2100.61L836.572,2233.74L703.447,2322.58L614.6,2189.46L747.734,2100.61Z" style="fill:rgb(0,142,214);fill-rule:nonzero;"/>
    <path d="M397.5,2234.69L7.734,1645.86L2090.71,252.68L2499.42,832.104L397.5,2234.69Z" style="fill:url(#_Linear9);fill-rule:nonzero;"/>
    <defs>
        <linearGradient id="_Linear1" x1="0" y1="0" x2="1" y2="0" gradientUnits="userSpaceOnUse" gradientTransform="matrix(2938.23,2476.67,-2476.67,2938.23,-652.403,-485.32)"><stop offset="0" style="stop-color:rgb(192,111,187);stop-opacity:1"/><stop offset="1" style="stop-color:rgb(110,77,155);stop-opacity:1"/></linearGradient>
        <linearGradient id="_Linear2" x1="0" y1="0" x2="1" y2="0" gradientUnits="userSpaceOnUse" gradientTransform="matrix(-1589.04,-2009.08,2009.08,-1589.04,1969.65,2224.98)"><stop offset="0" style="stop-color:rgb(0,114,214);stop-opacity:1"/><stop offset="0.14" style="stop-color:rgb(0,142,214);stop-opacity:1"/><stop offset="0.29" style="stop-color:rgb(0,148,214);stop-opacity:1"/><stop offset="0.84" style="stop-color:rgb(0,166,214);stop-opacity:1"/><stop offset="1" style="stop-color:rgb(0,182,214);stop-opacity:1"/></linearGradient>
        <linearGradient id="_Linear3" x1="0" y1="0" x2="1" y2="0" gradientUnits="userSpaceOnUse" gradientTransform="matrix(2483.47,3759.7,-3759.7,2483.47,-386.617,-1461)"><stop offset="0" style="stop-color:rgb(0,160,214);stop-opacity:1"/><stop offset="1" style="stop-color:rgb(0,142,214);stop-opacity:1"/></linearGradient>
        <linearGradient id="_Linear4" x1="0" y1="0" x2="1" y2="0" gradientUnits="userSpaceOnUse" gradientTransform="matrix(3574.49,2926.26,-2926.26,3574.49,-1287.24,-633.082)"><stop offset="0" style="stop-color:rgb(0,163,214);stop-opacity:1"/><stop offset="1" style="stop-color:rgb(0,142,214);stop-opacity:1"/></linearGradient>
        <linearGradient id="_Linear5" x1="0" y1="0" x2="1" y2="0" gradientUnits="userSpaceOnUse" gradientTransform="matrix(3332.14,2938.21,-2938.21,3332.14,-750.758,-641.281)"><stop offset="0" style="stop-color:rgb(0,142,214);stop-opacity:1"/><stop offset="1" style="stop-color:rgb(0,180,214);stop-opacity:1"/></linearGradient>
        <linearGradient id="_Linear6" x1="0" y1="0" x2="1" y2="0" gradientUnits="userSpaceOnUse" gradientTransform="matrix(-1593.5,-2019.62,2019.62,-1593.5,2124.46,2270.76)"><stop offset="0" style="stop-color:rgb(0,92,214);stop-opacity:1"/><stop offset="0.14" style="stop-color:rgb(0,112,214);stop-opacity:1"/><stop offset="0.29" style="stop-color:rgb(0,142,214);stop-opacity:1"/><stop offset="0.84" style="stop-color:rgb(0,146,214);stop-opacity:1"/><stop offset="1" style="stop-color:rgb(0,161,214);stop-opacity:1"/></linearGradient>
        <linearGradient id="_Linear7" x1="0" y1="0" x2="1" y2="0" gradientUnits="userSpaceOnUse" gradientTransform="matrix(2938.18,2987.12,-2987.12,2938.18,-652.301,-613.443)"><stop offset="0" style="stop-color:rgb(0,174,214);stop-opacity:1"/><stop offset="1" style="stop-color:rgb(0,142,214);stop-opacity:1"/></linearGradient>
        <linearGradient id="_Linear8" x1="0" y1="0" x2="1" y2="0" gradientUnits="userSpaceOnUse" gradientTransform="matrix(1250,0,0,1216,0,608)"><stop offset="0" style="stop-color:rgb(192,111,187);stop-opacity:1"/><stop offset="1" style="stop-color:rgb(110,77,155);stop-opacity:1"/></linearGradient>
        <linearGradient id="_Linear9" x1="0" y1="0" x2="1" y2="0" gradientUnits="userSpaceOnUse" gradientTransform="matrix(1951.39,-1547.48,1547.48,1951.39,294.353,2029.61)"><stop offset="0" style="stop-color:rgb(0,92,214);stop-opacity:1"/><stop offset="0.14" style="stop-color:rgb(0,100,214);stop-opacity:1"/><stop offset="0.53" style="stop-color:rgb(0,142,214);stop-opacity:1"/><stop offset="0.79" style="stop-color:rgb(0,100,214);stop-opacity:1"/><stop offset="1" style="stop-color:rgb(0,92,214);stop-opacity:1"/></linearGradient>
    </defs>
</svg>
