<?xml version="1.0" encoding="UTF-8" standalone="no"?>
<!DOCTYPE svg PUBLIC "-//W3C//DTD SVG 1.1//EN" "http://www.w3.org/Graphics/SVG/1.1/DTD/svg11.dtd">
<svg width="100%" height="100%" viewBox="0 0 64 64" version="1.1" xmlns="http://www.w3.org/2000/svg" xmlns:xlink="http://www.w3.org/1999/xlink" xml:space="preserve" xmlns:serif="http://www.serif.com/" style="fill-rule:evenodd;clip-rule:evenodd;stroke-linejoin:round;stroke-miterlimit:2;">
    <g transform="matrix(2.53772,0,0,2.53772,-12.8708,-44.1316)">
        <path d="M12.738,38.729C12.719,38.696 12.703,38.662 12.688,38.626C12.587,38.393 12.556,38.136 12.599,37.885L6.637,37.885L15.497,22.293L18.406,27.406L19.249,25.914L16.714,21.447C16.467,20.982 16,20.674 15.476,20.63C14.952,20.654 14.484,20.976 14.275,21.457L5.299,37.239C5.027,37.691 4.997,38.25 5.221,38.729C5.502,39.172 6.012,39.418 6.534,39.362L14.052,39.362C13.53,39.419 13.019,39.173 12.738,38.729Z" style="fill:rgb(0,182,214);fill-rule:nonzero;"/>
        <path d="M30.023,37.239L22.647,24.245C22.401,23.776 21.932,23.463 21.404,23.418C20.88,23.44 20.412,23.761 20.203,24.243L19.249,25.914L20.098,27.406L21.412,25.081L28.709,37.885L25.934,37.885C25.97,38.097 25.95,38.314 25.876,38.516C25.861,38.561 25.842,38.604 25.819,38.645L25.795,38.692C25.489,39.124 24.987,39.376 24.457,39.362L28.798,39.362C29.328,39.376 29.83,39.124 30.136,38.692C30.378,38.227 30.334,37.662 30.023,37.239Z" style="fill:rgb(0,142,214);fill-rule:nonzero;"/>
        <path d="M25.795,38.692L25.819,38.645C25.842,38.604 25.861,38.561 25.876,38.516C25.95,38.314 25.97,38.097 25.934,37.885C25.893,37.657 25.811,37.438 25.692,37.239L20.104,27.406L19.25,25.914L18.401,27.406L12.815,37.239C12.706,37.441 12.633,37.659 12.599,37.886C12.554,38.135 12.582,38.393 12.681,38.627C12.695,38.662 12.712,38.696 12.731,38.729C13.012,39.172 13.523,39.418 14.044,39.362L24.45,39.362C24.981,39.378 25.487,39.126 25.795,38.692L25.795,38.692ZM19.249,28.899L24.358,37.885L14.144,37.885L19.249,28.899Z" style="fill:rgb(0,89,214);fill-rule:nonzero;"/>
    </g>
</svg>
