<?xml version="1.0" encoding="UTF-8"?>
<svg xmlns="http://www.w3.org/2000/svg" xmlns:xlink="http://www.w3.org/1999/xlink" width="502.5pt" height="408pt" viewBox="0 0 502.5 408" version="1.1">
<g id="surface1">
<path style=" stroke:none;fill-rule:nonzero;fill:rgb(100%,100%,100%);fill-opacity:1;" d="M 258.980469 117.300781 C 247.03125 115.660156 234.75 114.550781 222.820313 116.96875 C 215.800781 118.109375 209.398438 121.261719 202.988281 124.140625 C 183.179688 117.949219 161.890625 113.890625 141.238281 118.089844 C 126.671875 120.941406 113.039063 129.488281 105.269531 142.289063 C 95.601563 157.921875 93.988281 177.089844 95.441406 195.011719 C 98.019531 215.171875 102.800781 234.988281 108.429688 254.5 C 113.53125 271.390625 119.308594 288.300781 128.519531 303.441406 C 133.828125 311.871094 140.898438 320.25 150.890625 322.96875 C 158.738281 325.191406 167.199219 322.570313 173.339844 317.46875 C 176.519531 320.53125 180.21875 323.070313 184.410156 324.53125 C 196.339844 328.628906 209.71875 328.640625 221.480469 323.910156 C 222.179688 340.160156 221.589844 356.980469 227.519531 372.410156 C 229.921875 379.789063 234.109375 386.941406 240.789063 391.191406 C 248.019531 396.011719 257.210938 396.828125 265.589844 395.320313 C 273.25 393.859375 281.019531 391.890625 287.710938 387.71875 C 294.699219 383.429688 300.03125 376.808594 303.410156 369.390625 C 310.980469 352.75 311.339844 334.109375 312.378906 316.179688 C 329.75 317.179688 348.191406 313.269531 361.480469 301.441406 C 366.699219 297.039063 371.160156 290.171875 369.179688 283.078125 C 367.601563 276.421875 360.578125 272.378906 354.011719 272.808594 C 347.308594 273.25 340.808594 275.398438 334.050781 275.398438 C 349.070313 249.308594 360.800781 221.058594 366.21875 191.359375 C 368.28125 178.980469 369.640625 165.988281 366.21875 153.71875 C 364.308594 146.578125 359.148438 141.019531 354.070313 135.929688 C 342.578125 124.539063 327.480469 117.089844 311.609375 114.230469 C 294.128906 110.910156 276.058594 112.820313 258.980469 117.300781 M 260.75 37.730469 C 255.769531 46.140625 257.328125 58.570313 265.601563 64.378906 C 273.171875 69.769531 283.289063 70.121094 292.070313 68.078125 C 298.550781 66.621094 304.28125 61.910156 306.148438 55.410156 C 303.960938 55.390625 301.78125 55.378906 299.601563 55.390625 C 297.878906 59.75 294.28125 63.390625 289.601563 64.398438 C 282.550781 65.980469 274.160156 65.519531 268.601563 60.410156 C 265.589844 57.75 264.421875 53.738281 264.089844 49.871094 C 278.398438 49.648438 292.71875 49.878906 307.039063 49.75 C 306.820313 44.28125 305.488281 38.5 301.429688 34.558594 C 295.949219 28.878906 287.488281 27.859375 279.988281 28.230469 C 272.660156 28.460938 264.78125 31.230469 260.75 37.730469 M 244.71875 29.761719 C 242 30.960938 240.449219 33.621094 238.980469 36.050781 C 238.921875 33.839844 238.910156 31.621094 238.871094 29.410156 C 236.890625 29.441406 234.898438 29.441406 232.921875 29.429688 C 232.75 42.238281 232.78125 55.050781 232.96875 67.859375 C 234.941406 67.859375 236.921875 67.871094 238.898438 67.878906 C 238.96875 61.230469 238.859375 54.578125 238.929688 47.941406 C 239 43.289063 240.390625 38.148438 244.421875 35.390625 C 248.550781 32.390625 253.898438 33.03125 258.699219 33.101563 C 258.679688 31.46875 258.671875 29.839844 258.671875 28.210938 C 254 28.199219 249.101563 27.839844 244.71875 29.761719 M 192.371094 29.171875 C 186.128906 30.578125 180.230469 35 178.601563 41.410156 C 177.039063 47.691406 177.558594 55.019531 181.761719 60.210938 C 185.21875 64.480469 190.761719 66.371094 196.058594 66.980469 C 204.511719 68 213.960938 66.820313 220.210938 60.488281 C 220.210938 65.300781 220.898438 70.710938 217.871094 74.851563 C 214.730469 79.179688 209.011719 80.140625 204.019531 80.308594 C 199.539063 80.339844 194.820313 80.28125 190.699219 78.300781 C 187.949219 76.960938 186.988281 73.871094 185.738281 71.320313 C 183.761719 71.378906 181.789063 71.398438 179.820313 71.441406 C 180.539063 75.28125 182.289063 79.28125 185.941406 81.171875 C 191.160156 83.910156 197.238281 84.039063 203.011719 84.160156 C 209.5 84.03125 216.671875 83.289063 221.699219 78.730469 C 225.53125 75.300781 226.488281 69.898438 226.339844 64.988281 C 226.179688 53.121094 226.628906 41.230469 226.109375 29.378906 C 224.171875 29.421875 222.238281 29.441406 220.308594 29.429688 C 220.199219 31.46875 220.148438 33.519531 220.03125 35.570313 C 217.378906 33.289063 214.929688 30.488281 211.421875 29.539063 C 205.269531 27.679688 198.601563 27.78125 192.371094 29.171875 M 109.5 31.488281 C 104.03125 35.101563 104.128906 44.96875 110.558594 47.53125 C 119.480469 50.769531 129.339844 49.898438 138.390625 52.539063 C 142.851563 54.121094 143.261719 60.949219 139.039063 63.070313 C 132.949219 66.109375 125.71875 65.570313 119.179688 64.628906 C 114.679688 64.058594 110.671875 60.679688 110.558594 55.910156 C 108.371094 55.871094 106.179688 55.839844 103.988281 55.871094 C 104.570313 59.371094 105.628906 63.179688 108.710938 65.308594 C 113.730469 68.808594 120.128906 68.910156 126.011719 69.140625 C 132.050781 69.109375 138.511719 68.949219 143.851563 65.789063 C 148.25 63.28125 149.828125 57.050781 147.289063 52.710938 C 145.429688 49.71875 141.898438 48.410156 138.628906 47.640625 C 131.300781 46.070313 123.691406 46.25 116.410156 44.421875 C 113.941406 43.808594 111.351563 41.820313 111.648438 38.988281 C 111.75 35 115.941406 33.050781 119.371094 32.558594 C 124.890625 31.769531 130.878906 31.511719 136.058594 33.890625 C 138.941406 35.089844 140.109375 38.128906 140.550781 41 C 142.660156 41 144.78125 40.980469 146.890625 40.898438 C 146.449219 37.441406 145.320313 33.730469 142.191406 31.769531 C 136.570313 28.039063 129.46875 28.078125 122.980469 28.230469 C 118.378906 28.550781 113.480469 28.949219 109.5 31.488281 M 69.441406 28.671875 C 63.160156 29.71875 56.96875 33.269531 54.128906 39.160156 C 51.308594 45.210938 51.351563 52.640625 54.371094 58.609375 C 57.699219 65.070313 64.910156 68.558594 71.949219 68.988281 C 80.621094 69.71875 90.738281 68.789063 96.917969 61.929688 C 104.121094 53.128906 102.671875 37.511719 92.332031 31.691406 C 85.449219 27.800781 77.089844 27.539063 69.441406 28.671875 M 157.789063 16.769531 C 157.738281 20.929688 157.730469 25.089844 157.699219 29.25 C 155.140625 29.359375 152.589844 29.378906 150.03125 29.351563 C 150.011719 30.671875 150 32 149.980469 33.328125 C 152.570313 33.359375 155.148438 33.371094 157.738281 33.359375 C 157.78125 42.261719 157.710938 51.148438 157.761719 60.050781 C 157.710938 62.648438 158.53125 65.601563 161 66.890625 C 165.089844 68.921875 169.839844 68.589844 174.25 68.089844 C 174.238281 66.78125 174.230469 65.46875 174.230469 64.171875 C 171.371094 64.328125 168.28125 64.820313 165.609375 63.480469 C 163.699219 62.410156 163.878906 59.929688 163.820313 58.058594 C 163.871094 49.839844 163.761719 41.621094 163.898438 33.390625 C 167.371094 33.46875 170.839844 33.46875 174.308594 33.398438 C 174.25 32.039063 174.199219 30.691406 174.148438 29.328125 C 170.71875 29.371094 167.289063 29.371094 163.859375 29.328125 C 163.820313 25.140625 163.828125 20.960938 163.828125 16.769531 Z M 450.339844 9.238281 C 450.308594 28.761719 450.351563 48.289063 450.320313 67.808594 C 467.210938 67.921875 484.101563 67.859375 500.980469 67.851563 C 500.988281 66.25 501 64.648438 501.011719 63.058594 C 486.449219 62.769531 471.878906 63.128906 457.320313 62.878906 C 457.289063 44.941406 457.441406 27 457.25 9.058594 C 454.941406 9.128906 452.640625 9.191406 450.339844 9.238281 M 1.03125 9.238281 C 0.960938 28.789063 0.96875 48.328125 1.03125 67.878906 C 2.980469 67.871094 4.941406 67.871094 6.898438 67.878906 C 6.988281 59.570313 6.75 51.269531 6.851563 42.960938 C 16.261719 42.839844 25.679688 43.011719 35.089844 42.890625 C 42.070313 42.71875 49.839844 39.488281 52.550781 32.589844 C 54.839844 26.210938 53.910156 18.070313 48.570313 13.449219 C 44.628906 9.960938 39.140625 9.019531 34.039063 9.078125 C 23.03125 9.148438 12.03125 9.28125 1.03125 9.238281 M 388.070313 12.140625 C 381.128906 15.621094 375.519531 21.960938 373.601563 29.558594 C 371.519531 37.769531 372.109375 47.019531 376.640625 54.351563 C 381.21875 61.851563 389.378906 66.609375 397.871094 68.308594 C 405.660156 69.839844 413.769531 69.738281 421.570313 68.359375 C 424.371094 67.96875 426.941406 66.269531 429.75 66.269531 C 433.390625 68.320313 436.621094 71.019531 440.140625 73.28125 C 441.710938 71.929688 443.238281 70.539063 444.730469 69.101563 C 441.398438 66.660156 437.941406 64.429688 434.609375 62.011719 C 438.828125 58.25 442.761719 53.828125 444.238281 48.230469 C 446.96875 38.238281 445.671875 26.398438 438.398438 18.570313 C 432.539063 11.929688 423.71875 8.730469 415.058594 8.011719 C 405.941406 7.261719 396.351563 7.921875 388.070313 12.140625 M 320.601563 11.511719 C 311.589844 16.5 311.921875 32.441406 321.921875 36.109375 C 332.519531 40.019531 344.011719 40.179688 354.859375 43.109375 C 357.441406 43.820313 360.070313 45.148438 361.410156 47.601563 C 364.230469 53.019531 361.820313 60.929688 355.609375 62.679688 C 346.730469 65.371094 336.671875 65.410156 327.96875 62.03125 C 322.410156 59.910156 319.789063 54.109375 319.261719 48.53125 C 316.828125 48.539063 314.410156 48.578125 311.988281 48.699219 C 312.238281 53.949219 313.578125 59.640625 317.898438 63.058594 C 324.648438 68.421875 333.699219 69.199219 342 69.328125 C 349.621094 69.269531 357.859375 68.78125 364.339844 64.328125 C 372.148438 59.011719 372.488281 44.839844 363.628906 40.398438 C 355.320313 36.328125 345.859375 36.019531 336.941406 34.121094 C 332.589844 33.148438 327.78125 32.761719 324.171875 29.878906 C 319.128906 25.308594 321.519531 15.851563 328.058594 14.039063 C 336.21875 11.660156 345.421875 11.46875 353.429688 14.511719 C 358.21875 16.210938 360.238281 21.160156 361.101563 25.761719 C 363.460938 25.761719 365.820313 25.769531 368.191406 25.761719 C 368.179688 21.070313 366.558594 16.191406 362.738281 13.238281 C 356.640625 8.441406 348.460938 7.828125 341 7.738281 C 334.101563 7.859375 326.78125 8.089844 320.601563 11.511719 M 0 0 L 503 0 L 503 408 L 0 408 "/>
<path style=" stroke:none;fill-rule:nonzero;fill:rgb(100%,100%,100%);fill-opacity:1;" d="M 399.378906 13.488281 C 409.421875 11.339844 421.058594 11.949219 429.328125 18.679688 C 440.28125 26.980469 441.21875 44.511719 433.039063 55.03125 C 427.050781 62.300781 417.089844 64.910156 407.988281 64.609375 C 399.761719 64.480469 391.199219 61.640625 385.640625 55.339844 C 379.320313 48.339844 378.359375 37.828125 381.128906 29.109375 C 383.75 21.011719 391.289063 15.371094 399.378906 13.488281 "/>
<path style=" stroke:none;fill-rule:nonzero;fill:rgb(100%,100%,100%);fill-opacity:1;" d="M 6.929688 13.929688 C 15.300781 13.910156 23.667969 13.910156 32.039063 13.921875 C 36.269531 13.941406 41.089844 14.578125 43.96875 18.03125 C 46.929688 21.78125 47.179688 27.210938 45.582031 31.578125 C 43.550781 36.460938 37.871094 38.128906 33.019531 38.28125 C 24.332031 38.480469 15.640625 38.328125 6.949219 38.351563 C 6.890625 30.210938 6.917969 22.070313 6.929688 13.929688 "/>
<path style=" stroke:none;fill-rule:nonzero;fill:rgb(100%,100%,100%);fill-opacity:1;" d="M 72.390625 32.570313 C 77.929688 31.929688 83.941406 32.261719 88.808594 35.230469 C 92.550781 37.488281 94.589844 41.789063 94.960938 46.03125 C 95.441406 50.929688 94.832031 56.5 91.140625 60.121094 C 87.769531 63.648438 82.761719 64.898438 78.039063 65.089844 C 72.839844 65.339844 67.148438 64.488281 63.167969 60.839844 C 58.140625 56.269531 57.261719 48.550781 59.332031 42.359375 C 61.179688 36.789063 66.738281 33.230469 72.390625 32.570313 "/>
<path style=" stroke:none;fill-rule:nonzero;fill:rgb(100%,100%,100%);fill-opacity:1;" d="M 197.429688 32.738281 C 203.160156 31.960938 209.53125 32.160156 214.46875 35.511719 C 221.46875 40.410156 222.039063 51.449219 216.808594 57.808594 C 212.140625 62.96875 204.511719 63.820313 197.96875 62.878906 C 192.820313 62.351563 187.351563 59.761719 185.339844 54.691406 C 183.449219 49.800781 183.488281 43.878906 186.300781 39.351563 C 188.71875 35.539063 193.078125 33.421875 197.429688 32.738281 "/>
<path style=" stroke:none;fill-rule:nonzero;fill:rgb(100%,100%,100%);fill-opacity:1;" d="M 271.578125 34.578125 C 279.75 30.21875 291.390625 31 297.539063 38.449219 C 299.460938 40.570313 300.269531 43.378906 300.679688 46.148438 C 288.5 46.230469 276.320313 46.238281 264.148438 46.148438 C 265.191406 41.609375 267.230469 36.828125 271.578125 34.578125 "/>
<path style=" stroke:none;fill-rule:nonzero;fill:rgb(100%,100%,100%);fill-opacity:1;" d="M 206.410156 301.480469 C 200.320313 305.078125 192.929688 304.851563 186.609375 307.78125 C 199.421875 314.308594 217.148438 312.019531 226.011719 300.019531 C 230.550781 295.800781 226.160156 286.878906 220.160156 287.730469 C 214.648438 291.320313 212.308594 298.308594 206.410156 301.480469 M 309.839844 288.898438 C 307.210938 291.339844 307.390625 295.230469 307.359375 298.519531 C 313.171875 300.511719 319.421875 300.300781 325.441406 299.578125 C 334.53125 298.601563 343.78125 295.558594 350.449219 289.070313 C 339.53125 290.390625 327.589844 293.03125 317.320313 287.621094 C 314.898438 285.941406 311.929688 287.359375 309.839844 288.898438 M 182.691406 204.140625 C 182.859375 212.75 183.46875 221.371094 182.878906 229.980469 C 182.621094 237.589844 180.390625 245.230469 182.101563 252.820313 C 184.601563 266.25 196.601563 278.171875 210.710938 278.03125 C 212.78125 271.261719 215.179688 264.578125 218.140625 258.140625 C 226.621094 241.441406 225.25 221.820313 220.820313 204.179688 C 219.609375 199.210938 214.949219 195.640625 209.898438 195.421875 C 200.148438 194.859375 190.738281 198.941406 182.691406 204.140625 M 291.53125 197.53125 C 286.46875 201.488281 286.730469 208.699219 287.761719 214.398438 C 291.398438 232.308594 301.851563 247.660156 309.929688 263.738281 C 315.960938 251.621094 312.25 237.878906 311.320313 225.101563 C 310.289063 214.769531 313.449219 204.710938 313.769531 194.449219 C 306.351563 193.988281 297.949219 192.96875 291.53125 197.53125 M 144.878906 132.960938 C 133.980469 135 123.601563 141.238281 118.039063 151.03125 C 110.609375 163.960938 109.800781 179.53125 111.101563 194.050781 C 113.710938 213.128906 118.25 231.898438 123.628906 250.371094 C 128.429688 265.980469 133.679688 281.699219 142.378906 295.621094 C 145.601563 300.359375 149.28125 305.640625 155.058594 307.308594 C 160 308.332031 163.921875 304.261719 166.820313 300.839844 C 173.390625 292.730469 180.578125 285.171875 187.359375 277.238281 C 177.398438 268.191406 172.019531 254.398438 173.828125 240.988281 C 175.269531 230.71875 175.539063 220.320313 174.910156 209.96875 C 173.820313 195.28125 175.910156 180.398438 180.480469 166.421875 C 183.839844 155.949219 189.589844 146.390625 196.980469 138.269531 C 180.230469 133.160156 162.328125 129.601563 144.878906 132.960938 M 228.410156 131.640625 C 216.53125 133.191406 205.398438 139.609375 198.230469 149.230469 C 188.46875 162.160156 184.210938 178.460938 182.96875 194.390625 C 192.78125 189.808594 203.828125 185.519531 214.789063 188.28125 C 221.910156 189.988281 227.261719 196.210938 228.820313 203.238281 C 232.019531 217.328125 233.75 232.179688 230.621094 246.449219 C 228.210938 257.980469 221.179688 267.949219 218.851563 279.5 C 221.820313 279.738281 224.921875 279.941406 227.570313 281.429688 C 233.039063 284.410156 236.191406 290.800781 235.851563 296.941406 C 235.441406 312.660156 235.460938 328.390625 236.289063 344.089844 C 236.78125 350.589844 236.960938 357.191406 238.679688 363.511719 C 241.03125 371.050781 246.261719 378.78125 254.558594 380.238281 C 263.300781 381.582031 272.328125 379.101563 280.101563 375.148438 C 287.691406 371.148438 291.101563 362.609375 292.398438 354.582031 C 295.148438 337.820313 297.050781 320.929688 298.980469 304.058594 C 299.808594 298.039063 298.628906 291.429688 301.988281 286.011719 C 303.910156 282.53125 307.679688 280.898438 311.058594 279.191406 C 308.230469 275.558594 305.238281 272.03125 303.019531 267.980469 C 294.660156 250.71875 283.339844 234.398438 279.851563 215.199219 C 278.351563 207.121094 279.210938 197.511719 285.890625 191.878906 C 293.25 185.550781 303.578125 185.921875 312.691406 186.238281 C 307.210938 170.75 297.039063 156.96875 284.171875 146.800781 C 268.601563 134.539063 248.011719 129.148438 228.410156 131.640625 M 272.671875 130.140625 C 276.308594 132.660156 280.398438 134.410156 284.050781 136.921875 C 299.03125 146.949219 310.710938 161.558594 318.050781 177.96875 C 320.078125 182.710938 322.171875 187.699219 321.75 192.980469 C 321.839844 203.761719 318.148438 214.269531 319.25 225.078125 C 320.300781 236.53125 322.769531 248.238281 319.851563 259.621094 C 319.03125 263.648438 316.921875 267.230469 315.46875 271.03125 C 315.578125 271.578125 315.789063 272.679688 315.898438 273.21875 C 317.28125 271.441406 318.53125 269.558594 319.679688 267.621094 C 331.320313 247.898438 340.578125 226.71875 346.679688 204.621094 C 349.871094 192.679688 352.371094 180.410156 352.21875 168 C 352 162.789063 351.570313 157.101563 348.191406 152.859375 C 341.101563 143.980469 331.660156 136.96875 321.03125 132.941406 C 305.679688 127.160156 288.601563 126.71875 272.671875 130.140625 M 258.921875 125.339844 C 277.53125 119.589844 297.828125 118.058594 316.75 123.191406 C 331.898438 127.261719 345.640625 136.371094 355.121094 148.871094 C 358.949219 154.058594 359.820313 160.730469 360.101563 167 C 360.460938 178.199219 358.519531 189.320313 356 200.199219 C 349.078125 228.820313 336.699219 255.941406 320.960938 280.769531 C 329.78125 284.550781 339.671875 282.660156 348.769531 281.039063 C 352.558594 280.289063 357.449219 279.378906 360.320313 282.699219 C 363.109375 286.320313 360.429688 290.929688 357.601563 293.589844 C 344.371094 306.519531 324.339844 309.910156 306.628906 306.921875 C 304.839844 322.738281 302.960938 338.570313 300.488281 354.308594 C 299.121094 363.101563 296.191406 372.261719 289.308594 378.320313 C 282.839844 383.980469 274.320313 386.46875 266.039063 388.039063 C 257.601563 389.511719 248.121094 388.300781 241.46875 382.5 C 234.421875 376.261719 230.410156 367.019531 229.519531 357.738281 C 227.730469 341.898438 227.648438 325.929688 227.699219 310 C 220.089844 316.558594 209.96875 319.929688 199.949219 319.167969 C 192.878906 318.582031 185.050781 317.46875 179.738281 312.308594 C 176.800781 309.621094 176.960938 304.519531 180.230469 302.179688 C 185.898438 297.898438 193.441406 298.230469 199.871094 295.75 C 204.640625 294.351563 207.109375 289.710938 210.109375 286.148438 C 204.570313 285.738281 199.148438 284.328125 194.160156 281.878906 C 186.519531 290.019531 179.148438 298.429688 171.988281 307.011719 C 167.851563 311.96875 161.738281 316.160156 154.980469 315.339844 C 147.378906 314.410156 141.730469 308.449219 137.480469 302.539063 C 129.109375 290.511719 123.941406 276.628906 119.230469 262.851563 C 112.089844 240.75 106.480469 218.089844 103.230469 195.070313 C 101.621094 177.730469 102.988281 158.839844 113.089844 144.050781 C 121.078125 132.191406 135.058594 125.730469 148.980469 124.28125 C 167.699219 122.320313 186.609375 126.140625 204.191406 132.46875 C 218.839844 122.691406 237.46875 121.339844 254.359375 124.769531 C 255.871094 124.960938 257.378906 125.648438 258.921875 125.339844 "/>
<path style=" stroke:none;fill-rule:nonzero;fill:rgb(100%,100%,100%);fill-opacity:1;" d="M 293.898438 199.929688 C 297.539063 197.328125 302.589844 197.140625 306.609375 199.011719 C 306.460938 204.101563 300.359375 207.761719 295.910156 205.140625 C 294.070313 204.308594 291.761719 201.691406 293.898438 199.929688 "/>
<path style=" stroke:none;fill-rule:nonzero;fill:rgb(100%,100%,100%);fill-opacity:1;" d="M 205.308594 200.230469 C 209.109375 199.210938 213.660156 199.699219 216.789063 202.238281 C 218.980469 204.019531 216.980469 206.96875 215.078125 208.039063 C 210.769531 211.21875 203.921875 208.109375 203.039063 203 C 202.789063 201.5 204.078125 200.660156 205.308594 200.230469 "/>
<path style=" stroke:none;fill-rule:nonzero;fill:rgb(19.604492%,39.988708%,56.443787%);fill-opacity:1;" d="M 320.601563 11.511719 C 326.78125 8.089844 334.101563 7.859375 341 7.738281 C 348.460938 7.828125 356.640625 8.441406 362.738281 13.238281 C 366.558594 16.191406 368.179688 21.070313 368.191406 25.761719 C 365.820313 25.769531 363.460938 25.761719 361.101563 25.761719 C 360.238281 21.160156 358.21875 16.210938 353.429688 14.511719 C 345.421875 11.46875 336.21875 11.660156 328.058594 14.039063 C 321.519531 15.851563 319.128906 25.308594 324.171875 29.878906 C 327.78125 32.761719 332.589844 33.148438 336.941406 34.121094 C 345.859375 36.019531 355.320313 36.328125 363.628906 40.398438 C 372.488281 44.839844 372.148438 59.011719 364.339844 64.328125 C 357.859375 68.78125 349.621094 69.269531 342 69.328125 C 333.699219 69.199219 324.648438 68.421875 317.898438 63.058594 C 313.578125 59.640625 312.238281 53.949219 311.988281 48.699219 C 314.410156 48.578125 316.828125 48.539063 319.261719 48.53125 C 319.789063 54.109375 322.410156 59.910156 327.96875 62.03125 C 336.671875 65.410156 346.730469 65.371094 355.609375 62.679688 C 361.820313 60.929688 364.230469 53.019531 361.410156 47.601563 C 360.070313 45.148438 357.441406 43.820313 354.859375 43.109375 C 344.011719 40.179688 332.519531 40.019531 321.921875 36.109375 C 311.921875 32.441406 311.589844 16.5 320.601563 11.511719 "/>
<path style=" stroke:none;fill-rule:nonzero;fill:rgb(19.604492%,39.988708%,56.443787%);fill-opacity:1;" d="M 399.378906 13.488281 C 391.289063 15.371094 383.75 21.011719 381.128906 29.109375 C 378.359375 37.828125 379.320313 48.339844 385.640625 55.339844 C 391.199219 61.640625 399.761719 64.480469 407.988281 64.609375 C 417.089844 64.910156 427.050781 62.300781 433.039063 55.03125 C 441.21875 44.511719 440.28125 26.980469 429.328125 18.679688 C 421.058594 11.949219 409.421875 11.339844 399.378906 13.488281 M 388.070313 12.140625 C 396.351563 7.921875 405.941406 7.261719 415.058594 8.011719 C 423.71875 8.730469 432.539063 11.929688 438.398438 18.570313 C 445.671875 26.398438 446.96875 38.238281 444.238281 48.230469 C 442.761719 53.828125 438.828125 58.25 434.609375 62.011719 C 437.941406 64.429688 441.398438 66.660156 444.730469 69.101563 C 443.238281 70.539063 441.710938 71.929688 440.140625 73.28125 C 436.621094 71.019531 433.390625 68.320313 429.75 66.269531 C 426.941406 66.269531 424.371094 67.96875 421.570313 68.359375 C 413.769531 69.738281 405.660156 69.839844 397.871094 68.308594 C 389.378906 66.609375 381.21875 61.851563 376.640625 54.351563 C 372.109375 47.019531 371.519531 37.769531 373.601563 29.558594 C 375.519531 21.960938 381.128906 15.621094 388.070313 12.140625 "/>
<path style=" stroke:none;fill-rule:nonzero;fill:rgb(19.604492%,39.988708%,56.443787%);fill-opacity:1;" d="M 450.339844 9.238281 C 452.640625 9.191406 454.941406 9.128906 457.25 9.058594 C 457.441406 27 457.289063 44.941406 457.320313 62.878906 C 471.878906 63.128906 486.449219 62.769531 501.011719 63.058594 C 501 64.648438 500.988281 66.25 500.980469 67.851563 C 484.101563 67.859375 467.210938 67.921875 450.320313 67.808594 C 450.351563 48.289063 450.308594 28.761719 450.339844 9.238281 "/>
<path style=" stroke:none;fill-rule:nonzero;fill:rgb(19.604492%,39.988708%,56.443787%);fill-opacity:1;" d="M 272.671875 130.140625 C 288.601563 126.71875 305.679688 127.160156 321.03125 132.941406 C 331.660156 136.96875 341.101563 143.980469 348.191406 152.859375 C 351.570313 157.101563 352 162.789063 352.21875 168 C 352.371094 180.410156 349.871094 192.679688 346.679688 204.621094 C 340.578125 226.71875 331.320313 247.898438 319.679688 267.621094 C 318.53125 269.558594 317.28125 271.441406 315.898438 273.21875 C 315.789063 272.679688 315.578125 271.578125 315.46875 271.03125 C 316.921875 267.230469 319.03125 263.648438 319.851563 259.621094 C 322.769531 248.238281 320.300781 236.53125 319.25 225.078125 C 318.148438 214.269531 321.839844 203.761719 321.75 192.980469 C 322.171875 187.699219 320.078125 182.710938 318.050781 177.96875 C 310.710938 161.558594 299.03125 146.949219 284.050781 136.921875 C 280.398438 134.410156 276.308594 132.660156 272.671875 130.140625 "/>
<path style=" stroke:none;fill-rule:nonzero;fill:rgb(19.604492%,39.988708%,56.443787%);fill-opacity:1;" d="M 228.410156 131.640625 C 248.011719 129.148438 268.601563 134.539063 284.171875 146.800781 C 297.039063 156.96875 307.210938 170.75 312.691406 186.238281 C 303.578125 185.921875 293.25 185.550781 285.890625 191.878906 C 279.210938 197.511719 278.351563 207.121094 279.851563 215.199219 C 283.339844 234.398438 294.660156 250.71875 303.019531 267.980469 C 305.238281 272.03125 308.230469 275.558594 311.058594 279.191406 C 307.679688 280.898438 303.910156 282.53125 301.988281 286.011719 C 298.628906 291.429688 299.808594 298.039063 298.980469 304.058594 C 297.050781 320.929688 295.148438 337.820313 292.398438 354.582031 C 291.101563 362.609375 287.691406 371.148438 280.101563 375.148438 C 272.328125 379.101563 263.300781 381.582031 254.558594 380.238281 C 246.261719 378.78125 241.03125 371.050781 238.679688 363.511719 C 236.960938 357.191406 236.78125 350.589844 236.289063 344.089844 C 235.460938 328.390625 235.441406 312.660156 235.851563 296.941406 C 236.191406 290.800781 233.039063 284.410156 227.570313 281.429688 C 224.921875 279.941406 221.820313 279.738281 218.851563 279.5 C 221.179688 267.949219 228.210938 257.980469 230.621094 246.449219 C 233.75 232.179688 232.019531 217.328125 228.820313 203.238281 C 227.261719 196.210938 221.910156 189.988281 214.789063 188.28125 C 203.828125 185.519531 192.78125 189.808594 182.96875 194.390625 C 184.210938 178.460938 188.46875 162.160156 198.230469 149.230469 C 205.398438 139.609375 216.53125 133.191406 228.410156 131.640625 "/>
<path style=" stroke:none;fill-rule:nonzero;fill:rgb(19.604492%,39.988708%,56.443787%);fill-opacity:1;" d="M 144.878906 132.960938 C 162.328125 129.601563 180.230469 133.160156 196.980469 138.269531 C 189.589844 146.390625 183.839844 155.949219 180.480469 166.421875 C 175.910156 180.398438 173.820313 195.28125 174.910156 209.96875 C 175.539063 220.320313 175.269531 230.71875 173.828125 240.988281 C 172.019531 254.398438 177.398438 268.191406 187.359375 277.238281 C 180.578125 285.171875 173.390625 292.730469 166.820313 300.839844 C 163.921875 304.261719 160 308.332031 155.058594 307.308594 C 149.28125 305.640625 145.601563 300.359375 142.378906 295.621094 C 133.679688 281.699219 128.429688 265.980469 123.628906 250.371094 C 118.25 231.898438 113.710938 213.128906 111.101563 194.050781 C 109.800781 179.53125 110.609375 163.960938 118.039063 151.03125 C 123.601563 141.238281 133.980469 135 144.878906 132.960938 "/>
<path style=" stroke:none;fill-rule:nonzero;fill:rgb(19.604492%,39.988708%,56.443787%);fill-opacity:1;" d="M 293.898438 199.929688 C 291.761719 201.691406 294.070313 204.308594 295.910156 205.140625 C 300.359375 207.761719 306.460938 204.101563 306.609375 199.011719 C 302.589844 197.140625 297.539063 197.328125 293.898438 199.929688 M 291.53125 197.53125 C 297.949219 192.96875 306.351563 193.988281 313.769531 194.449219 C 313.449219 204.710938 310.289063 214.769531 311.320313 225.101563 C 312.25 237.878906 315.960938 251.621094 309.929688 263.738281 C 301.851563 247.660156 291.398438 232.308594 287.761719 214.398438 C 286.730469 208.699219 286.46875 201.488281 291.53125 197.53125 "/>
<path style=" stroke:none;fill-rule:nonzero;fill:rgb(19.604492%,39.988708%,56.443787%);fill-opacity:1;" d="M 205.308594 200.230469 C 204.078125 200.660156 202.789063 201.5 203.039063 203 C 203.921875 208.109375 210.769531 211.21875 215.078125 208.039063 C 216.980469 206.96875 218.980469 204.019531 216.789063 202.238281 C 213.660156 199.699219 209.109375 199.210938 205.308594 200.230469 M 182.691406 204.140625 C 190.738281 198.941406 200.148438 194.859375 209.898438 195.421875 C 214.949219 195.640625 219.609375 199.210938 220.820313 204.179688 C 225.25 221.820313 226.621094 241.441406 218.140625 258.140625 C 215.179688 264.578125 212.78125 271.261719 210.710938 278.03125 C 196.601563 278.171875 184.601563 266.25 182.101563 252.820313 C 180.390625 245.230469 182.621094 237.589844 182.878906 229.980469 C 183.46875 221.371094 182.859375 212.75 182.691406 204.140625 "/>
<path style=" stroke:none;fill-rule:nonzero;fill:rgb(19.604492%,39.988708%,56.443787%);fill-opacity:1;" d="M 309.839844 288.898438 C 311.929688 287.359375 314.898438 285.941406 317.320313 287.621094 C 327.589844 293.03125 339.53125 290.390625 350.449219 289.070313 C 343.78125 295.558594 334.53125 298.601563 325.441406 299.578125 C 319.421875 300.300781 313.171875 300.511719 307.359375 298.519531 C 307.390625 295.230469 307.210938 291.339844 309.839844 288.898438 "/>
<path style=" stroke:none;fill-rule:nonzero;fill:rgb(19.604492%,39.988708%,56.443787%);fill-opacity:1;" d="M 206.410156 301.480469 C 212.308594 298.308594 214.648438 291.320313 220.160156 287.730469 C 226.160156 286.878906 230.550781 295.800781 226.011719 300.019531 C 217.148438 312.019531 199.421875 314.308594 186.609375 307.78125 C 192.929688 304.851563 200.320313 305.078125 206.410156 301.480469 "/>
<path style=" stroke:none;fill-rule:nonzero;fill:rgb(0%,0%,0%);fill-opacity:1;" d="M 6.929688 13.929688 C 6.917969 22.070313 6.890625 30.210938 6.949219 38.351563 C 15.640625 38.328125 24.332031 38.480469 33.019531 38.28125 C 37.871094 38.128906 43.550781 36.460938 45.582031 31.578125 C 47.179688 27.210938 46.929688 21.78125 43.96875 18.03125 C 41.089844 14.578125 36.269531 13.941406 32.039063 13.921875 C 23.667969 13.910156 15.300781 13.910156 6.929688 13.929688 M 1.03125 9.238281 C 12.03125 9.28125 23.03125 9.148438 34.039063 9.078125 C 39.140625 9.019531 44.628906 9.960938 48.570313 13.449219 C 53.910156 18.070313 54.839844 26.210938 52.550781 32.589844 C 49.839844 39.488281 42.070313 42.71875 35.089844 42.890625 C 25.679688 43.011719 16.261719 42.839844 6.851563 42.960938 C 6.75 51.269531 6.988281 59.570313 6.898438 67.878906 C 4.941406 67.871094 2.980469 67.871094 1.03125 67.878906 C 0.96875 48.328125 0.960938 28.789063 1.03125 9.238281 "/>
<path style=" stroke:none;fill-rule:nonzero;fill:rgb(0%,0%,0%);fill-opacity:1;" d="M 157.789063 16.769531 L 163.828125 16.769531 C 163.828125 20.960938 163.820313 25.140625 163.859375 29.328125 C 167.289063 29.371094 170.71875 29.371094 174.148438 29.328125 C 174.199219 30.691406 174.25 32.039063 174.308594 33.398438 C 170.839844 33.46875 167.371094 33.46875 163.898438 33.390625 C 163.761719 41.621094 163.871094 49.839844 163.820313 58.058594 C 163.878906 59.929688 163.699219 62.410156 165.609375 63.480469 C 168.28125 64.820313 171.371094 64.328125 174.230469 64.171875 C 174.230469 65.46875 174.238281 66.78125 174.25 68.089844 C 169.839844 68.589844 165.089844 68.921875 161 66.890625 C 158.53125 65.601563 157.710938 62.648438 157.761719 60.050781 C 157.710938 51.148438 157.78125 42.261719 157.738281 33.359375 C 155.148438 33.371094 152.570313 33.359375 149.980469 33.328125 C 150 32 150.011719 30.671875 150.03125 29.351563 C 152.589844 29.378906 155.140625 29.359375 157.699219 29.25 C 157.730469 25.089844 157.738281 20.929688 157.789063 16.769531 "/>
<path style=" stroke:none;fill-rule:nonzero;fill:rgb(0%,0%,0%);fill-opacity:1;" d="M 72.390625 32.570313 C 66.738281 33.230469 61.179688 36.789063 59.332031 42.359375 C 57.261719 48.550781 58.140625 56.269531 63.167969 60.839844 C 67.148438 64.488281 72.839844 65.339844 78.039063 65.089844 C 82.761719 64.898438 87.769531 63.648438 91.140625 60.121094 C 94.832031 56.5 95.441406 50.929688 94.960938 46.03125 C 94.589844 41.789063 92.550781 37.488281 88.808594 35.230469 C 83.941406 32.261719 77.929688 31.929688 72.390625 32.570313 M 69.441406 28.671875 C 77.089844 27.539063 85.449219 27.800781 92.332031 31.691406 C 102.671875 37.511719 104.121094 53.128906 96.917969 61.929688 C 90.738281 68.789063 80.621094 69.71875 71.949219 68.988281 C 64.910156 68.558594 57.699219 65.070313 54.371094 58.609375 C 51.351563 52.640625 51.308594 45.210938 54.128906 39.160156 C 56.96875 33.269531 63.160156 29.71875 69.441406 28.671875 "/>
<path style=" stroke:none;fill-rule:nonzero;fill:rgb(0%,0%,0%);fill-opacity:1;" d="M 109.5 31.488281 C 113.480469 28.949219 118.378906 28.550781 122.980469 28.230469 C 129.46875 28.078125 136.570313 28.039063 142.191406 31.769531 C 145.320313 33.730469 146.449219 37.441406 146.890625 40.898438 C 144.78125 40.980469 142.660156 41 140.550781 41 C 140.109375 38.128906 138.941406 35.089844 136.058594 33.890625 C 130.878906 31.511719 124.890625 31.769531 119.371094 32.558594 C 115.941406 33.050781 111.75 35 111.648438 38.988281 C 111.351563 41.820313 113.941406 43.808594 116.410156 44.421875 C 123.691406 46.25 131.300781 46.070313 138.628906 47.640625 C 141.898438 48.410156 145.429688 49.71875 147.289063 52.710938 C 149.828125 57.050781 148.25 63.28125 143.851563 65.789063 C 138.511719 68.949219 132.050781 69.109375 126.011719 69.140625 C 120.128906 68.910156 113.730469 68.808594 108.710938 65.308594 C 105.628906 63.179688 104.570313 59.371094 103.988281 55.871094 C 106.179688 55.839844 108.371094 55.871094 110.558594 55.910156 C 110.671875 60.679688 114.679688 64.058594 119.179688 64.628906 C 125.71875 65.570313 132.949219 66.109375 139.039063 63.070313 C 143.261719 60.949219 142.851563 54.121094 138.390625 52.539063 C 129.339844 49.898438 119.480469 50.769531 110.558594 47.53125 C 104.128906 44.96875 104.03125 35.101563 109.5 31.488281 "/>
<path style=" stroke:none;fill-rule:nonzero;fill:rgb(0%,0%,0%);fill-opacity:1;" d="M 197.429688 32.738281 C 193.078125 33.421875 188.71875 35.539063 186.300781 39.351563 C 183.488281 43.878906 183.449219 49.800781 185.339844 54.691406 C 187.351563 59.761719 192.820313 62.351563 197.96875 62.878906 C 204.511719 63.820313 212.140625 62.96875 216.808594 57.808594 C 222.039063 51.449219 221.46875 40.410156 214.46875 35.511719 C 209.53125 32.160156 203.160156 31.960938 197.429688 32.738281 M 192.371094 29.171875 C 198.601563 27.78125 205.269531 27.679688 211.421875 29.539063 C 214.929688 30.488281 217.378906 33.289063 220.03125 35.570313 C 220.148438 33.519531 220.199219 31.46875 220.308594 29.429688 C 222.238281 29.441406 224.171875 29.421875 226.109375 29.378906 C 226.628906 41.230469 226.179688 53.121094 226.339844 64.988281 C 226.488281 69.898438 225.53125 75.300781 221.699219 78.730469 C 216.671875 83.289063 209.5 84.03125 203.011719 84.160156 C 197.238281 84.039063 191.160156 83.910156 185.941406 81.171875 C 182.289063 79.28125 180.539063 75.28125 179.820313 71.441406 C 181.789063 71.398438 183.761719 71.378906 185.738281 71.320313 C 186.988281 73.871094 187.949219 76.960938 190.699219 78.300781 C 194.820313 80.28125 199.539063 80.339844 204.019531 80.308594 C 209.011719 80.140625 214.730469 79.179688 217.871094 74.851563 C 220.898438 70.710938 220.210938 65.300781 220.210938 60.488281 C 213.960938 66.820313 204.511719 68 196.058594 66.980469 C 190.761719 66.371094 185.21875 64.480469 181.761719 60.210938 C 177.558594 55.019531 177.039063 47.691406 178.601563 41.410156 C 180.230469 35 186.128906 30.578125 192.371094 29.171875 "/>
<path style=" stroke:none;fill-rule:nonzero;fill:rgb(0%,0%,0%);fill-opacity:1;" d="M 244.71875 29.761719 C 249.101563 27.839844 254 28.199219 258.671875 28.210938 C 258.671875 29.839844 258.679688 31.46875 258.699219 33.101563 C 253.898438 33.03125 248.550781 32.390625 244.421875 35.390625 C 240.390625 38.148438 239 43.289063 238.929688 47.941406 C 238.859375 54.578125 238.96875 61.230469 238.898438 67.878906 C 236.921875 67.871094 234.941406 67.859375 232.96875 67.859375 C 232.78125 55.050781 232.75 42.238281 232.921875 29.429688 C 234.898438 29.441406 236.890625 29.441406 238.871094 29.410156 C 238.910156 31.621094 238.921875 33.839844 238.980469 36.050781 C 240.449219 33.621094 242 30.960938 244.71875 29.761719 "/>
<path style=" stroke:none;fill-rule:nonzero;fill:rgb(0%,0%,0%);fill-opacity:1;" d="M 271.578125 34.578125 C 267.230469 36.828125 265.191406 41.609375 264.148438 46.148438 C 276.320313 46.238281 288.5 46.230469 300.679688 46.148438 C 300.269531 43.378906 299.460938 40.570313 297.539063 38.449219 C 291.390625 31 279.75 30.21875 271.578125 34.578125 M 260.75 37.730469 C 264.78125 31.230469 272.660156 28.460938 279.988281 28.230469 C 287.488281 27.859375 295.949219 28.878906 301.429688 34.558594 C 305.488281 38.5 306.820313 44.28125 307.039063 49.75 C 292.71875 49.878906 278.398438 49.648438 264.089844 49.871094 C 264.421875 53.738281 265.589844 57.75 268.601563 60.410156 C 274.160156 65.519531 282.550781 65.980469 289.601563 64.398438 C 294.28125 63.390625 297.878906 59.75 299.601563 55.390625 C 301.78125 55.378906 303.960938 55.390625 306.148438 55.410156 C 304.28125 61.910156 298.550781 66.621094 292.070313 68.078125 C 283.289063 70.121094 273.171875 69.769531 265.601563 64.378906 C 257.328125 58.570313 255.769531 46.140625 260.75 37.730469 "/>
<path style=" stroke:none;fill-rule:nonzero;fill:rgb(0%,0%,0%);fill-opacity:1;" d="M 258.921875 125.339844 C 257.378906 125.648438 255.871094 124.960938 254.359375 124.769531 C 237.46875 121.339844 218.839844 122.691406 204.191406 132.46875 C 186.609375 126.140625 167.699219 122.320313 148.980469 124.28125 C 135.058594 125.730469 121.078125 132.191406 113.089844 144.050781 C 102.988281 158.839844 101.621094 177.730469 103.230469 195.070313 C 106.480469 218.089844 112.089844 240.75 119.230469 262.851563 C 123.941406 276.628906 129.109375 290.511719 137.480469 302.539063 C 141.730469 308.449219 147.378906 314.410156 154.980469 315.339844 C 161.738281 316.160156 167.851563 311.96875 171.988281 307.011719 C 179.148438 298.429688 186.519531 290.019531 194.160156 281.878906 C 199.148438 284.328125 204.570313 285.738281 210.109375 286.148438 C 207.109375 289.710938 204.640625 294.351563 199.871094 295.75 C 193.441406 298.230469 185.898438 297.898438 180.230469 302.179688 C 176.960938 304.519531 176.800781 309.621094 179.738281 312.308594 C 185.050781 317.46875 192.878906 318.578125 199.949219 319.167969 C 209.96875 319.929688 220.089844 316.558594 227.699219 310 C 227.648438 325.929688 227.730469 341.898438 229.519531 357.738281 C 230.410156 367.019531 234.421875 376.261719 241.46875 382.5 C 248.121094 388.300781 257.601563 389.511719 266.039063 388.039063 C 274.320313 386.46875 282.839844 383.980469 289.308594 378.320313 C 296.191406 372.261719 299.121094 363.097656 300.488281 354.308594 C 302.960938 338.570313 304.839844 322.738281 306.628906 306.921875 C 324.339844 309.910156 344.371094 306.519531 357.601563 293.589844 C 360.429688 290.929688 363.109375 286.320313 360.320313 282.699219 C 357.449219 279.378906 352.558594 280.289063 348.769531 281.039063 C 339.671875 282.660156 329.78125 284.550781 320.960938 280.769531 C 336.699219 255.941406 349.078125 228.820313 356 200.199219 C 358.519531 189.320313 360.460938 178.199219 360.101563 167 C 359.820313 160.730469 358.949219 154.058594 355.121094 148.871094 C 345.640625 136.371094 331.898438 127.261719 316.75 123.191406 C 297.828125 118.058594 277.53125 119.589844 258.921875 125.339844 M 258.980469 117.300781 C 276.058594 112.820313 294.128906 110.910156 311.609375 114.230469 C 327.480469 117.089844 342.578125 124.539063 354.070313 135.929688 C 359.148438 141.019531 364.308594 146.578125 366.21875 153.71875 C 369.640625 165.988281 368.28125 178.980469 366.21875 191.359375 C 360.800781 221.058594 349.070313 249.308594 334.050781 275.398438 C 340.808594 275.398438 347.308594 273.25 354.011719 272.808594 C 360.578125 272.378906 367.601563 276.421875 369.179688 283.078125 C 371.160156 290.171875 366.699219 297.039063 361.480469 301.441406 C 348.191406 313.269531 329.75 317.179688 312.378906 316.179688 C 311.339844 334.109375 310.980469 352.75 303.410156 369.390625 C 300.03125 376.808594 294.699219 383.429688 287.710938 387.71875 C 281.019531 391.890625 273.25 393.859375 265.589844 395.320313 C 257.210938 396.828125 248.019531 396.011719 240.789063 391.191406 C 234.109375 386.941406 229.921875 379.789063 227.519531 372.410156 C 221.589844 356.980469 222.179688 340.160156 221.480469 323.910156 C 209.71875 328.640625 196.339844 328.628906 184.410156 324.53125 C 180.21875 323.070313 176.519531 320.53125 173.339844 317.46875 C 167.199219 322.570313 158.738281 325.191406 150.890625 322.96875 C 140.898438 320.25 133.828125 311.871094 128.519531 303.441406 C 119.308594 288.300781 113.53125 271.390625 108.429688 254.5 C 102.800781 234.988281 98.019531 215.171875 95.441406 195.011719 C 93.988281 177.089844 95.601563 157.921875 105.269531 142.289063 C 113.039063 129.488281 126.671875 120.941406 141.238281 118.089844 C 161.890625 113.890625 183.179688 117.949219 202.988281 124.140625 C 209.398438 121.261719 215.800781 118.109375 222.820313 116.96875 C 234.75 114.550781 247.03125 115.660156 258.980469 117.300781 "/>
</g>
</svg>
