<?xml version="1.0" encoding="UTF-8" standalone="no"?>
<!DOCTYPE svg PUBLIC "-//W3C//DTD SVG 1.1//EN" "http://www.w3.org/Graphics/SVG/1.1/DTD/svg11.dtd">
<svg width="100%" height="100%" viewBox="0 0 852 410" version="1.1" xmlns="http://www.w3.org/2000/svg" xmlns:xlink="http://www.w3.org/1999/xlink" xml:space="preserve" xmlns:serif="http://www.serif.com/" style="fill-rule:evenodd;clip-rule:evenodd;stroke-miterlimit:8;">
    <g transform="matrix(1,0,0,1,-248.125,-117.125)">
        <path d="M253.5,149.335C253.5,134.514 265.514,122.5 280.335,122.5L474.665,122.5C489.486,122.5 501.5,134.514 501.5,149.335L501.5,256.671C501.5,271.491 489.486,283.505 474.665,283.505L280.335,283.505C265.514,283.505 253.5,271.491 253.5,256.671L253.5,149.335Z" style="fill:rgb(112,173,71);stroke:rgb(80,126,50);stroke-width:1.33px;"/>
    </g>
    <g transform="matrix(1,0,0,1,22.3108,49.8748)">
        <text x="0px" y="0px" style="font-family:'Calibri', sans-serif;font-size:24px;fill:white;">Ser<tspan x="31.559px 42.398px " y="0px 0px ">vi</tspan>ceA</text>
        <g transform="matrix(1,0,0,1,0,29)">
            <g transform="matrix(24,0,0,24,12.3867,0)">
                <path d="M0.602,-0.044C0.602,-0.035 0.601,-0.028 0.6,-0.022C0.599,-0.017 0.597,-0.013 0.594,-0.01C0.591,-0.008 0.587,-0.005 0.583,-0.003C0.578,-0.001 0.572,0.001 0.565,0.003C0.559,0.005 0.551,0.006 0.544,0.007C0.536,0.008 0.529,0.008 0.521,0.008C0.498,0.008 0.479,0.005 0.462,-0.001C0.446,-0.007 0.433,-0.016 0.423,-0.028C0.412,-0.04 0.405,-0.056 0.4,-0.074C0.395,-0.093 0.393,-0.115 0.393,-0.141L0.393,-0.397L0.174,-0.397L0.174,-0.152C0.174,-0.122 0.179,-0.099 0.188,-0.084C0.197,-0.068 0.213,-0.061 0.236,-0.061C0.243,-0.061 0.25,-0.061 0.256,-0.063C0.262,-0.064 0.267,-0.066 0.271,-0.067C0.276,-0.069 0.28,-0.071 0.283,-0.072C0.286,-0.073 0.289,-0.074 0.292,-0.074C0.294,-0.074 0.295,-0.074 0.297,-0.073C0.298,-0.072 0.299,-0.071 0.3,-0.068C0.301,-0.066 0.302,-0.063 0.302,-0.059C0.303,-0.055 0.303,-0.05 0.303,-0.044C0.303,-0.039 0.303,-0.035 0.303,-0.031C0.302,-0.028 0.302,-0.025 0.302,-0.022C0.301,-0.019 0.3,-0.017 0.299,-0.015C0.298,-0.013 0.296,-0.011 0.294,-0.009C0.291,-0.006 0.288,-0.004 0.283,-0.002C0.278,-0 0.272,0.002 0.266,0.003C0.259,0.005 0.252,0.006 0.245,0.007C0.237,0.008 0.23,0.008 0.222,0.008C0.199,0.008 0.18,0.005 0.164,-0.001C0.147,-0.007 0.134,-0.016 0.124,-0.028C0.113,-0.04 0.106,-0.056 0.101,-0.074C0.096,-0.093 0.094,-0.115 0.094,-0.141L0.094,-0.397L0.032,-0.397C0.027,-0.397 0.023,-0.4 0.021,-0.405C0.018,-0.41 0.016,-0.419 0.016,-0.431C0.016,-0.437 0.017,-0.442 0.017,-0.446C0.018,-0.451 0.019,-0.454 0.021,-0.457C0.022,-0.46 0.024,-0.462 0.026,-0.463C0.028,-0.464 0.03,-0.464 0.033,-0.464L0.094,-0.464L0.094,-0.569C0.094,-0.571 0.094,-0.573 0.095,-0.575C0.097,-0.577 0.099,-0.579 0.102,-0.58C0.105,-0.582 0.109,-0.583 0.114,-0.583C0.119,-0.584 0.126,-0.584 0.134,-0.584C0.142,-0.584 0.149,-0.584 0.154,-0.583C0.159,-0.583 0.163,-0.582 0.166,-0.58C0.169,-0.579 0.171,-0.577 0.172,-0.575C0.174,-0.573 0.174,-0.571 0.174,-0.569L0.174,-0.464L0.393,-0.464L0.393,-0.59C0.393,-0.592 0.393,-0.595 0.395,-0.597C0.396,-0.599 0.398,-0.6 0.401,-0.601C0.404,-0.602 0.408,-0.603 0.414,-0.604C0.419,-0.605 0.425,-0.605 0.433,-0.605C0.441,-0.605 0.447,-0.605 0.453,-0.604C0.458,-0.603 0.462,-0.602 0.465,-0.601C0.468,-0.6 0.47,-0.599 0.472,-0.597C0.473,-0.595 0.474,-0.592 0.474,-0.59L0.474,-0.464L0.586,-0.464C0.589,-0.464 0.591,-0.464 0.593,-0.463C0.595,-0.462 0.596,-0.46 0.598,-0.457C0.599,-0.454 0.6,-0.451 0.601,-0.446C0.602,-0.442 0.602,-0.437 0.602,-0.431C0.602,-0.419 0.601,-0.41 0.598,-0.405C0.595,-0.4 0.591,-0.397 0.586,-0.397L0.474,-0.397L0.474,-0.152C0.474,-0.122 0.478,-0.099 0.487,-0.084C0.496,-0.068 0.512,-0.061 0.535,-0.061C0.542,-0.061 0.548,-0.061 0.554,-0.063C0.56,-0.064 0.566,-0.066 0.57,-0.067C0.575,-0.069 0.579,-0.071 0.582,-0.072C0.586,-0.073 0.589,-0.074 0.591,-0.074C0.593,-0.074 0.594,-0.074 0.596,-0.073C0.597,-0.072 0.598,-0.071 0.599,-0.068C0.6,-0.066 0.6,-0.063 0.601,-0.059C0.602,-0.055 0.602,-0.05 0.602,-0.044Z" style="fill:white;fill-rule:nonzero;"/>
            </g>
            <text x="0px" y="0px" style="font-family:'Calibri', sans-serif;font-size:24px;fill:white;">h<tspan x="27.609px " y="0px ">p</tspan>://hos<tspan x="99.563px 107.602px " y="0px 0px ">t1</tspan></text>
        </g>
        <g transform="matrix(1,0,0,1,0,87)">
            <text x="0px" y="0px" style="font-family:'Calibri', sans-serif;font-size:24px;fill:white;">R<tspan x="12.609px 24.551px " y="0px 0px ">eq</tspan>ues<tspan x="70.828px " y="0px ">t</tspan></text>
        </g>
        <g transform="matrix(1,0,0,1,78.98,87)">
            <text x="0px" y="0px" style="font-family:'Calibri', sans-serif;font-size:24px;fill:white;">A</text>
        </g>
    </g>
    <g transform="matrix(1,0,0,1,-248.125,-117.125)">
        <path d="M253.5,387.335C253.5,372.514 265.514,360.5 280.335,360.5L474.665,360.5C489.486,360.5 501.5,372.514 501.5,387.335L501.5,494.671C501.5,509.491 489.486,521.505 474.665,521.505L280.335,521.505C265.514,521.505 253.5,509.491 253.5,494.671L253.5,387.335Z" style="fill:rgb(112,173,71);stroke:rgb(80,126,50);stroke-width:1.33px;"/>
    </g>
    <g transform="matrix(1,0,0,1,22.3108,287.875)">
        <text x="0px" y="0px" style="font-family:'Calibri', sans-serif;font-size:24px;fill:white;">Ser<tspan x="31.559px 42.398px " y="0px 0px ">vi</tspan>ceB</text>
        <g transform="matrix(1,0,0,1,0,29)">
            <g transform="matrix(24,0,0,24,12.3867,0)">
                <path d="M0.602,-0.044C0.602,-0.035 0.601,-0.028 0.6,-0.022C0.599,-0.017 0.597,-0.013 0.594,-0.01C0.591,-0.008 0.587,-0.005 0.583,-0.003C0.578,-0.001 0.572,0.001 0.565,0.003C0.559,0.005 0.551,0.006 0.544,0.007C0.536,0.008 0.529,0.008 0.521,0.008C0.498,0.008 0.479,0.005 0.462,-0.001C0.446,-0.007 0.433,-0.016 0.423,-0.028C0.412,-0.04 0.405,-0.056 0.4,-0.074C0.395,-0.093 0.393,-0.115 0.393,-0.141L0.393,-0.397L0.174,-0.397L0.174,-0.152C0.174,-0.122 0.179,-0.099 0.188,-0.084C0.197,-0.068 0.213,-0.061 0.236,-0.061C0.243,-0.061 0.25,-0.061 0.256,-0.063C0.262,-0.064 0.267,-0.066 0.271,-0.067C0.276,-0.069 0.28,-0.071 0.283,-0.072C0.286,-0.073 0.289,-0.074 0.292,-0.074C0.294,-0.074 0.295,-0.074 0.297,-0.073C0.298,-0.072 0.299,-0.071 0.3,-0.068C0.301,-0.066 0.302,-0.063 0.302,-0.059C0.303,-0.055 0.303,-0.05 0.303,-0.044C0.303,-0.039 0.303,-0.035 0.303,-0.031C0.302,-0.028 0.302,-0.025 0.302,-0.022C0.301,-0.019 0.3,-0.017 0.299,-0.015C0.298,-0.013 0.296,-0.011 0.294,-0.009C0.291,-0.006 0.288,-0.004 0.283,-0.002C0.278,-0 0.272,0.002 0.266,0.003C0.259,0.005 0.252,0.006 0.245,0.007C0.237,0.008 0.23,0.008 0.222,0.008C0.199,0.008 0.18,0.005 0.164,-0.001C0.147,-0.007 0.134,-0.016 0.124,-0.028C0.113,-0.04 0.106,-0.056 0.101,-0.074C0.096,-0.093 0.094,-0.115 0.094,-0.141L0.094,-0.397L0.032,-0.397C0.027,-0.397 0.023,-0.4 0.021,-0.405C0.018,-0.41 0.016,-0.419 0.016,-0.431C0.016,-0.437 0.017,-0.442 0.017,-0.446C0.018,-0.451 0.019,-0.454 0.021,-0.457C0.022,-0.46 0.024,-0.462 0.026,-0.463C0.028,-0.464 0.03,-0.464 0.033,-0.464L0.094,-0.464L0.094,-0.569C0.094,-0.571 0.094,-0.573 0.095,-0.575C0.097,-0.577 0.099,-0.579 0.102,-0.58C0.105,-0.582 0.109,-0.583 0.114,-0.583C0.119,-0.584 0.126,-0.584 0.134,-0.584C0.142,-0.584 0.149,-0.584 0.154,-0.583C0.159,-0.583 0.163,-0.582 0.166,-0.58C0.169,-0.579 0.171,-0.577 0.172,-0.575C0.174,-0.573 0.174,-0.571 0.174,-0.569L0.174,-0.464L0.393,-0.464L0.393,-0.59C0.393,-0.592 0.393,-0.595 0.395,-0.597C0.396,-0.599 0.398,-0.6 0.401,-0.601C0.404,-0.602 0.408,-0.603 0.414,-0.604C0.419,-0.605 0.425,-0.605 0.433,-0.605C0.441,-0.605 0.447,-0.605 0.453,-0.604C0.458,-0.603 0.462,-0.602 0.465,-0.601C0.468,-0.6 0.47,-0.599 0.472,-0.597C0.473,-0.595 0.474,-0.592 0.474,-0.59L0.474,-0.464L0.586,-0.464C0.589,-0.464 0.591,-0.464 0.593,-0.463C0.595,-0.462 0.596,-0.46 0.598,-0.457C0.599,-0.454 0.6,-0.451 0.601,-0.446C0.602,-0.442 0.602,-0.437 0.602,-0.431C0.602,-0.419 0.601,-0.41 0.598,-0.405C0.595,-0.4 0.591,-0.397 0.586,-0.397L0.474,-0.397L0.474,-0.152C0.474,-0.122 0.478,-0.099 0.487,-0.084C0.496,-0.068 0.512,-0.061 0.535,-0.061C0.542,-0.061 0.548,-0.061 0.554,-0.063C0.56,-0.064 0.566,-0.066 0.57,-0.067C0.575,-0.069 0.579,-0.071 0.582,-0.072C0.586,-0.073 0.589,-0.074 0.591,-0.074C0.593,-0.074 0.594,-0.074 0.596,-0.073C0.597,-0.072 0.598,-0.071 0.599,-0.068C0.6,-0.066 0.6,-0.063 0.601,-0.059C0.602,-0.055 0.602,-0.05 0.602,-0.044Z" style="fill:white;fill-rule:nonzero;"/>
            </g>
            <text x="0px" y="0px" style="font-family:'Calibri', sans-serif;font-size:24px;fill:white;">h<tspan x="27.609px " y="0px ">p</tspan>://hos<tspan x="99.563px 107.602px " y="0px 0px ">t2</tspan></text>
        </g>
        <g transform="matrix(1,0,0,1,0,87)">
            <text x="0px" y="0px" style="font-family:'Calibri', sans-serif;font-size:24px;fill:white;">R<tspan x="12.609px 24.551px " y="0px 0px ">eq</tspan>ues<tspan x="70.828px 78.867px " y="0px 0px ">tB</tspan></text>
        </g>
    </g>
    <g transform="matrix(1,0,0,1,-248.125,-117.125)">
        <path d="M846.5,152.001C846.5,137.917 857.917,126.5 872.001,126.5L1071,126.5C1085.08,126.5 1096.5,137.917 1096.5,152.001L1096.5,253.999C1096.5,268.083 1085.08,279.5 1071,279.5L872.001,279.5C857.917,279.5 846.5,268.083 846.5,253.999L846.5,152.001Z" style="fill:url(#_Linear1);stroke:rgb(68,114,196);stroke-width:0.67px;"/>
    </g>
    <g transform="matrix(1,0,0,1,690.393,92.8748)">
        <text x="0px" y="0px" style="font-family:'Calibri', sans-serif;font-size:24px;fill:white;">Consul</text>
        <g transform="matrix(1,0,0,1,-392.015,-42)">
            <text x="0px" y="0px" style="font-family:'Calibri', sans-serif;font-size:24px;">Ser<tspan x="31.559px 42.398px " y="0px 0px ">vi</tspan>ce URI f<tspan x="122.145px 134.801px " y="0px 0px ">or</tspan></text>
        </g>
        <g transform="matrix(1,0,0,1,-243.302,-42)">
            <text x="0px" y="0px" style="font-family:'Calibri', sans-serif;font-size:24px;">R<tspan x="12.609px 24.551px " y="0px 0px ">eq</tspan>ues<tspan x="70.828px 78.867px " y="0px 0px ">tB</tspan></text>
        </g>
        <g transform="matrix(1,0,0,1,-151.322,-42)">
            <text x="0px" y="0px" style="font-family:'Calibri', sans-serif;font-size:24px;">?</text>
        </g>
    </g>
    <g transform="matrix(1,0,0,1,-248.125,-117.125)">
        <path d="M515.5,181.167L824.078,181.167L824.078,181.833L515.5,181.833L515.5,181.167ZM822.743,177.5L830.743,181.5L822.743,185.5L822.743,177.5Z" style="fill:rgb(68,114,196);fill-rule:nonzero;"/>
    </g>
    <g transform="matrix(-1,0,0,1,582.889,128.375)">
        <path d="M0,-0.333L306.847,-0.333L306.847,0.333L-0,0.333L0,-0.333ZM305.514,-4L313.514,0L305.514,4L305.514,-4Z" style="fill:rgb(68,114,196);fill-rule:nonzero;"/>
    </g>
    <g transform="matrix(1,0,0,1,365.135,113.875)">
        <g transform="matrix(24,0,0,24,12.3867,0)">
            <path d="M0.602,-0.044C0.602,-0.035 0.601,-0.028 0.6,-0.022C0.599,-0.017 0.597,-0.013 0.594,-0.01C0.591,-0.008 0.587,-0.005 0.583,-0.003C0.578,-0.001 0.572,0.001 0.565,0.003C0.559,0.005 0.551,0.006 0.544,0.007C0.536,0.008 0.529,0.008 0.521,0.008C0.498,0.008 0.479,0.005 0.462,-0.001C0.446,-0.007 0.433,-0.016 0.423,-0.028C0.412,-0.04 0.405,-0.056 0.4,-0.074C0.395,-0.093 0.393,-0.115 0.393,-0.141L0.393,-0.397L0.174,-0.397L0.174,-0.152C0.174,-0.122 0.179,-0.099 0.188,-0.084C0.197,-0.068 0.213,-0.061 0.236,-0.061C0.243,-0.061 0.25,-0.061 0.256,-0.063C0.262,-0.064 0.267,-0.066 0.271,-0.067C0.276,-0.069 0.28,-0.071 0.283,-0.072C0.286,-0.073 0.289,-0.074 0.292,-0.074C0.294,-0.074 0.295,-0.074 0.297,-0.073C0.298,-0.072 0.299,-0.071 0.3,-0.068C0.301,-0.066 0.302,-0.063 0.302,-0.059C0.303,-0.055 0.303,-0.05 0.303,-0.044C0.303,-0.039 0.303,-0.035 0.303,-0.031C0.302,-0.028 0.302,-0.025 0.302,-0.022C0.301,-0.019 0.3,-0.017 0.299,-0.015C0.298,-0.013 0.296,-0.011 0.294,-0.009C0.291,-0.006 0.288,-0.004 0.283,-0.002C0.278,-0 0.272,0.002 0.266,0.003C0.259,0.005 0.252,0.006 0.245,0.007C0.237,0.008 0.23,0.008 0.222,0.008C0.199,0.008 0.18,0.005 0.164,-0.001C0.147,-0.007 0.134,-0.016 0.124,-0.028C0.113,-0.04 0.106,-0.056 0.101,-0.074C0.096,-0.093 0.094,-0.115 0.094,-0.141L0.094,-0.397L0.032,-0.397C0.027,-0.397 0.023,-0.4 0.021,-0.405C0.018,-0.41 0.016,-0.419 0.016,-0.431C0.016,-0.437 0.017,-0.442 0.017,-0.446C0.018,-0.451 0.019,-0.454 0.021,-0.457C0.022,-0.46 0.024,-0.462 0.026,-0.463C0.028,-0.464 0.03,-0.464 0.033,-0.464L0.094,-0.464L0.094,-0.569C0.094,-0.571 0.094,-0.573 0.095,-0.575C0.097,-0.577 0.099,-0.579 0.102,-0.58C0.105,-0.582 0.109,-0.583 0.114,-0.583C0.119,-0.584 0.126,-0.584 0.134,-0.584C0.142,-0.584 0.149,-0.584 0.154,-0.583C0.159,-0.583 0.163,-0.582 0.166,-0.58C0.169,-0.579 0.171,-0.577 0.172,-0.575C0.174,-0.573 0.174,-0.571 0.174,-0.569L0.174,-0.464L0.393,-0.464L0.393,-0.59C0.393,-0.592 0.393,-0.595 0.395,-0.597C0.396,-0.599 0.398,-0.6 0.401,-0.601C0.404,-0.602 0.408,-0.603 0.414,-0.604C0.419,-0.605 0.425,-0.605 0.433,-0.605C0.441,-0.605 0.447,-0.605 0.453,-0.604C0.458,-0.603 0.462,-0.602 0.465,-0.601C0.468,-0.6 0.47,-0.599 0.472,-0.597C0.473,-0.595 0.474,-0.592 0.474,-0.59L0.474,-0.464L0.586,-0.464C0.589,-0.464 0.591,-0.464 0.593,-0.463C0.595,-0.462 0.596,-0.46 0.598,-0.457C0.599,-0.454 0.6,-0.451 0.601,-0.446C0.602,-0.442 0.602,-0.437 0.602,-0.431C0.602,-0.419 0.601,-0.41 0.598,-0.405C0.595,-0.4 0.591,-0.397 0.586,-0.397L0.474,-0.397L0.474,-0.152C0.474,-0.122 0.478,-0.099 0.487,-0.084C0.496,-0.068 0.512,-0.061 0.535,-0.061C0.542,-0.061 0.548,-0.061 0.554,-0.063C0.56,-0.064 0.566,-0.066 0.57,-0.067C0.575,-0.069 0.579,-0.071 0.582,-0.072C0.586,-0.073 0.589,-0.074 0.591,-0.074C0.593,-0.074 0.594,-0.074 0.596,-0.073C0.597,-0.072 0.598,-0.071 0.599,-0.068C0.6,-0.066 0.6,-0.063 0.601,-0.059C0.602,-0.055 0.602,-0.05 0.602,-0.044Z" style="fill-rule:nonzero;"/>
        </g>
        <text x="0px" y="0px" style="font-family:'Calibri', sans-serif;font-size:24px;">h<tspan x="27.609px " y="0px ">p</tspan>://hos<tspan x="99.563px 107.602px " y="0px 0px ">t2</tspan></text>
    </g>
    <defs>
        <linearGradient id="_Linear1" x1="0" y1="0" x2="1" y2="0" gradientUnits="userSpaceOnUse" gradientTransform="matrix(9.36855e-15,153,-153,9.36855e-15,971.5,126.5)"><stop offset="0" style="stop-color:rgb(96,131,203);stop-opacity:1"/><stop offset="0.5" style="stop-color:rgb(62,112,202);stop-opacity:1"/><stop offset="1" style="stop-color:rgb(46,97,186);stop-opacity:1"/></linearGradient>
    </defs>
</svg>
