<?xml version="1.0" encoding="UTF-8" standalone="no"?>
<!DOCTYPE svg PUBLIC "-//W3C//DTD SVG 1.1//EN" "http://www.w3.org/Graphics/SVG/1.1/DTD/svg11.dtd">
<svg width="100%" height="100%" viewBox="0 0 969 163" version="1.1" xmlns="http://www.w3.org/2000/svg" xmlns:xlink="http://www.w3.org/1999/xlink" xml:space="preserve" xmlns:serif="http://www.serif.com/" style="fill-rule:evenodd;clip-rule:evenodd;stroke-miterlimit:8;">
    <g transform="matrix(1,0,0,1,-152.125,-86.6758)">
        <path d="M859.5,136.834C859.5,125.052 869.052,115.5 880.834,115.5L1096.17,115.5C1107.95,115.5 1117.5,125.052 1117.5,136.834L1117.5,222.166C1117.5,233.949 1107.95,243.5 1096.17,243.5L880.834,243.5C869.052,243.5 859.5,233.949 859.5,222.166L859.5,136.834Z" style="fill:url(#_Linear1);stroke:rgb(68,114,196);stroke-width:0.67px;"/>
    </g>
    <g transform="matrix(1,0,0,1,722.534,85.3242)">
        <text x="0px" y="0px" style="font-family:'Calibri', sans-serif;font-size:24px;fill:white;">R<tspan x="12.609px 24.551px " y="0px 0px ">eq</tspan>ues<tspan x="70.828px 78.867px " y="0px 0px ">tA</tspan></text>
        <g transform="matrix(1,0,0,1,92.8133,0)">
            <g transform="matrix(24,0,0,24,24.2344,0)">
                <path d="M0.602,-0.044C0.602,-0.035 0.601,-0.028 0.6,-0.022C0.599,-0.017 0.597,-0.013 0.594,-0.01C0.591,-0.008 0.587,-0.005 0.583,-0.003C0.578,-0.001 0.572,0.001 0.565,0.003C0.559,0.005 0.551,0.006 0.544,0.007C0.536,0.008 0.529,0.008 0.521,0.008C0.498,0.008 0.479,0.005 0.462,-0.001C0.446,-0.007 0.433,-0.016 0.423,-0.028C0.412,-0.04 0.405,-0.056 0.4,-0.074C0.395,-0.093 0.393,-0.115 0.393,-0.141L0.393,-0.397L0.174,-0.397L0.174,-0.152C0.174,-0.122 0.179,-0.099 0.188,-0.084C0.197,-0.068 0.213,-0.061 0.236,-0.061C0.243,-0.061 0.25,-0.061 0.256,-0.063C0.262,-0.064 0.267,-0.066 0.271,-0.067C0.276,-0.069 0.28,-0.071 0.283,-0.072C0.286,-0.073 0.289,-0.074 0.292,-0.074C0.294,-0.074 0.295,-0.074 0.297,-0.073C0.298,-0.072 0.299,-0.071 0.3,-0.068C0.301,-0.066 0.302,-0.063 0.302,-0.059C0.303,-0.055 0.303,-0.05 0.303,-0.044C0.303,-0.039 0.303,-0.035 0.303,-0.031C0.302,-0.028 0.302,-0.025 0.302,-0.022C0.301,-0.019 0.3,-0.017 0.299,-0.015C0.298,-0.013 0.296,-0.011 0.294,-0.009C0.291,-0.006 0.288,-0.004 0.283,-0.002C0.278,-0 0.272,0.002 0.266,0.003C0.259,0.005 0.252,0.006 0.245,0.007C0.237,0.008 0.23,0.008 0.222,0.008C0.199,0.008 0.18,0.005 0.164,-0.001C0.147,-0.007 0.134,-0.016 0.124,-0.028C0.113,-0.04 0.106,-0.056 0.101,-0.074C0.096,-0.093 0.094,-0.115 0.094,-0.141L0.094,-0.397L0.032,-0.397C0.027,-0.397 0.023,-0.4 0.021,-0.405C0.018,-0.41 0.016,-0.419 0.016,-0.431C0.016,-0.437 0.017,-0.442 0.017,-0.446C0.018,-0.451 0.019,-0.454 0.021,-0.457C0.022,-0.46 0.024,-0.462 0.026,-0.463C0.028,-0.464 0.03,-0.464 0.033,-0.464L0.094,-0.464L0.094,-0.569C0.094,-0.571 0.094,-0.573 0.095,-0.575C0.097,-0.577 0.099,-0.579 0.102,-0.58C0.105,-0.582 0.109,-0.583 0.114,-0.583C0.119,-0.584 0.126,-0.584 0.134,-0.584C0.142,-0.584 0.149,-0.584 0.154,-0.583C0.159,-0.583 0.163,-0.582 0.166,-0.58C0.169,-0.579 0.171,-0.577 0.172,-0.575C0.174,-0.573 0.174,-0.571 0.174,-0.569L0.174,-0.464L0.393,-0.464L0.393,-0.59C0.393,-0.592 0.393,-0.595 0.395,-0.597C0.396,-0.599 0.398,-0.6 0.401,-0.601C0.404,-0.602 0.408,-0.603 0.414,-0.604C0.419,-0.605 0.425,-0.605 0.433,-0.605C0.441,-0.605 0.447,-0.605 0.453,-0.604C0.458,-0.603 0.462,-0.602 0.465,-0.601C0.468,-0.6 0.47,-0.599 0.472,-0.597C0.473,-0.595 0.474,-0.592 0.474,-0.59L0.474,-0.464L0.586,-0.464C0.589,-0.464 0.591,-0.464 0.593,-0.463C0.595,-0.462 0.596,-0.46 0.598,-0.457C0.599,-0.454 0.6,-0.451 0.601,-0.446C0.602,-0.442 0.602,-0.437 0.602,-0.431C0.602,-0.419 0.601,-0.41 0.598,-0.405C0.595,-0.4 0.591,-0.397 0.586,-0.397L0.474,-0.397L0.474,-0.152C0.474,-0.122 0.478,-0.099 0.487,-0.084C0.496,-0.068 0.512,-0.061 0.535,-0.061C0.542,-0.061 0.548,-0.061 0.554,-0.063C0.56,-0.064 0.566,-0.066 0.57,-0.067C0.575,-0.069 0.579,-0.071 0.582,-0.072C0.586,-0.073 0.589,-0.074 0.591,-0.074C0.593,-0.074 0.594,-0.074 0.596,-0.073C0.597,-0.072 0.598,-0.071 0.599,-0.068C0.6,-0.066 0.6,-0.063 0.601,-0.059C0.602,-0.055 0.602,-0.05 0.602,-0.044Z" style="fill:white;fill-rule:nonzero;"/>
            </g>
            <text x="0px" y="0px" style="font-family:'Calibri', sans-serif;font-size:24px;fill:white;">: h<tspan x="39.457px " y="0px ">p</tspan>://hos<tspan x="111.41px 119.449px " y="0px 0px ">t1</tspan></text>
        </g>
        <g transform="matrix(1,0,0,1,0,29)">
            <text x="0px" y="0px" style="font-family:'Calibri', sans-serif;font-size:24px;fill:white;">R<tspan x="12.609px 24.551px " y="0px 0px ">eq</tspan>ues<tspan x="70.828px 78.867px " y="0px 0px ">tB</tspan></text>
        </g>
        <g transform="matrix(1,0,0,1,91.98,29)">
            <g transform="matrix(24,0,0,24,24.2344,0)">
                <path d="M0.602,-0.044C0.602,-0.035 0.601,-0.028 0.6,-0.022C0.599,-0.017 0.597,-0.013 0.594,-0.01C0.591,-0.008 0.587,-0.005 0.583,-0.003C0.578,-0.001 0.572,0.001 0.565,0.003C0.559,0.005 0.551,0.006 0.544,0.007C0.536,0.008 0.529,0.008 0.521,0.008C0.498,0.008 0.479,0.005 0.462,-0.001C0.446,-0.007 0.433,-0.016 0.423,-0.028C0.412,-0.04 0.405,-0.056 0.4,-0.074C0.395,-0.093 0.393,-0.115 0.393,-0.141L0.393,-0.397L0.174,-0.397L0.174,-0.152C0.174,-0.122 0.179,-0.099 0.188,-0.084C0.197,-0.068 0.213,-0.061 0.236,-0.061C0.243,-0.061 0.25,-0.061 0.256,-0.063C0.262,-0.064 0.267,-0.066 0.271,-0.067C0.276,-0.069 0.28,-0.071 0.283,-0.072C0.286,-0.073 0.289,-0.074 0.292,-0.074C0.294,-0.074 0.295,-0.074 0.297,-0.073C0.298,-0.072 0.299,-0.071 0.3,-0.068C0.301,-0.066 0.302,-0.063 0.302,-0.059C0.303,-0.055 0.303,-0.05 0.303,-0.044C0.303,-0.039 0.303,-0.035 0.303,-0.031C0.302,-0.028 0.302,-0.025 0.302,-0.022C0.301,-0.019 0.3,-0.017 0.299,-0.015C0.298,-0.013 0.296,-0.011 0.294,-0.009C0.291,-0.006 0.288,-0.004 0.283,-0.002C0.278,-0 0.272,0.002 0.266,0.003C0.259,0.005 0.252,0.006 0.245,0.007C0.237,0.008 0.23,0.008 0.222,0.008C0.199,0.008 0.18,0.005 0.164,-0.001C0.147,-0.007 0.134,-0.016 0.124,-0.028C0.113,-0.04 0.106,-0.056 0.101,-0.074C0.096,-0.093 0.094,-0.115 0.094,-0.141L0.094,-0.397L0.032,-0.397C0.027,-0.397 0.023,-0.4 0.021,-0.405C0.018,-0.41 0.016,-0.419 0.016,-0.431C0.016,-0.437 0.017,-0.442 0.017,-0.446C0.018,-0.451 0.019,-0.454 0.021,-0.457C0.022,-0.46 0.024,-0.462 0.026,-0.463C0.028,-0.464 0.03,-0.464 0.033,-0.464L0.094,-0.464L0.094,-0.569C0.094,-0.571 0.094,-0.573 0.095,-0.575C0.097,-0.577 0.099,-0.579 0.102,-0.58C0.105,-0.582 0.109,-0.583 0.114,-0.583C0.119,-0.584 0.126,-0.584 0.134,-0.584C0.142,-0.584 0.149,-0.584 0.154,-0.583C0.159,-0.583 0.163,-0.582 0.166,-0.58C0.169,-0.579 0.171,-0.577 0.172,-0.575C0.174,-0.573 0.174,-0.571 0.174,-0.569L0.174,-0.464L0.393,-0.464L0.393,-0.59C0.393,-0.592 0.393,-0.595 0.395,-0.597C0.396,-0.599 0.398,-0.6 0.401,-0.601C0.404,-0.602 0.408,-0.603 0.414,-0.604C0.419,-0.605 0.425,-0.605 0.433,-0.605C0.441,-0.605 0.447,-0.605 0.453,-0.604C0.458,-0.603 0.462,-0.602 0.465,-0.601C0.468,-0.6 0.47,-0.599 0.472,-0.597C0.473,-0.595 0.474,-0.592 0.474,-0.59L0.474,-0.464L0.586,-0.464C0.589,-0.464 0.591,-0.464 0.593,-0.463C0.595,-0.462 0.596,-0.46 0.598,-0.457C0.599,-0.454 0.6,-0.451 0.601,-0.446C0.602,-0.442 0.602,-0.437 0.602,-0.431C0.602,-0.419 0.601,-0.41 0.598,-0.405C0.595,-0.4 0.591,-0.397 0.586,-0.397L0.474,-0.397L0.474,-0.152C0.474,-0.122 0.478,-0.099 0.487,-0.084C0.496,-0.068 0.512,-0.061 0.535,-0.061C0.542,-0.061 0.548,-0.061 0.554,-0.063C0.56,-0.064 0.566,-0.066 0.57,-0.067C0.575,-0.069 0.579,-0.071 0.582,-0.072C0.586,-0.073 0.589,-0.074 0.591,-0.074C0.593,-0.074 0.594,-0.074 0.596,-0.073C0.597,-0.072 0.598,-0.071 0.599,-0.068C0.6,-0.066 0.6,-0.063 0.601,-0.059C0.602,-0.055 0.602,-0.05 0.602,-0.044Z" style="fill:white;fill-rule:nonzero;"/>
            </g>
            <text x="0px" y="0px" style="font-family:'Calibri', sans-serif;font-size:24px;fill:white;">: h<tspan x="39.457px " y="0px ">p</tspan>://hos<tspan x="111.41px 119.449px " y="0px 0px ">t1</tspan></text>
        </g>
    </g>
    <g transform="matrix(1,0,0,1,-152.125,-86.6758)">
        <path d="M157.5,142.667C157.5,131.529 166.529,122.5 177.667,122.5L470.333,122.5C481.471,122.5 490.5,131.529 490.5,142.667L490.5,223.333C490.5,234.471 481.471,243.5 470.333,243.5L177.667,243.5C166.529,243.5 157.5,234.471 157.5,223.333L157.5,142.667Z" style="fill:rgb(112,173,71);stroke:rgb(80,126,50);stroke-width:1.33px;"/>
    </g>
    <g transform="matrix(1,0,0,1,20.8118,89.3242)">
        <text x="0px" y="0px" style="font-family:'Calibri', sans-serif;font-size:24px;fill:white;">AppHos<tspan x="75.832px " y="0px ">t</tspan></text>
        <g transform="matrix(1,0,0,1,83.9,0)">
            <g transform="matrix(24,0,0,24,24.2344,0)">
                <path d="M0.602,-0.044C0.602,-0.035 0.601,-0.028 0.6,-0.022C0.599,-0.017 0.597,-0.013 0.594,-0.01C0.591,-0.008 0.587,-0.005 0.583,-0.003C0.578,-0.001 0.572,0.001 0.565,0.003C0.559,0.005 0.551,0.006 0.544,0.007C0.536,0.008 0.529,0.008 0.521,0.008C0.498,0.008 0.479,0.005 0.462,-0.001C0.446,-0.007 0.433,-0.016 0.423,-0.028C0.412,-0.04 0.405,-0.056 0.4,-0.074C0.395,-0.093 0.393,-0.115 0.393,-0.141L0.393,-0.397L0.174,-0.397L0.174,-0.152C0.174,-0.122 0.179,-0.099 0.188,-0.084C0.197,-0.068 0.213,-0.061 0.236,-0.061C0.243,-0.061 0.25,-0.061 0.256,-0.063C0.262,-0.064 0.267,-0.066 0.271,-0.067C0.276,-0.069 0.28,-0.071 0.283,-0.072C0.286,-0.073 0.289,-0.074 0.292,-0.074C0.294,-0.074 0.295,-0.074 0.297,-0.073C0.298,-0.072 0.299,-0.071 0.3,-0.068C0.301,-0.066 0.302,-0.063 0.302,-0.059C0.303,-0.055 0.303,-0.05 0.303,-0.044C0.303,-0.039 0.303,-0.035 0.303,-0.031C0.302,-0.028 0.302,-0.025 0.302,-0.022C0.301,-0.019 0.3,-0.017 0.299,-0.015C0.298,-0.013 0.296,-0.011 0.294,-0.009C0.291,-0.006 0.288,-0.004 0.283,-0.002C0.278,-0 0.272,0.002 0.266,0.003C0.259,0.005 0.252,0.006 0.245,0.007C0.237,0.008 0.23,0.008 0.222,0.008C0.199,0.008 0.18,0.005 0.164,-0.001C0.147,-0.007 0.134,-0.016 0.124,-0.028C0.113,-0.04 0.106,-0.056 0.101,-0.074C0.096,-0.093 0.094,-0.115 0.094,-0.141L0.094,-0.397L0.032,-0.397C0.027,-0.397 0.023,-0.4 0.021,-0.405C0.018,-0.41 0.016,-0.419 0.016,-0.431C0.016,-0.437 0.017,-0.442 0.017,-0.446C0.018,-0.451 0.019,-0.454 0.021,-0.457C0.022,-0.46 0.024,-0.462 0.026,-0.463C0.028,-0.464 0.03,-0.464 0.033,-0.464L0.094,-0.464L0.094,-0.569C0.094,-0.571 0.094,-0.573 0.095,-0.575C0.097,-0.577 0.099,-0.579 0.102,-0.58C0.105,-0.582 0.109,-0.583 0.114,-0.583C0.119,-0.584 0.126,-0.584 0.134,-0.584C0.142,-0.584 0.149,-0.584 0.154,-0.583C0.159,-0.583 0.163,-0.582 0.166,-0.58C0.169,-0.579 0.171,-0.577 0.172,-0.575C0.174,-0.573 0.174,-0.571 0.174,-0.569L0.174,-0.464L0.393,-0.464L0.393,-0.59C0.393,-0.592 0.393,-0.595 0.395,-0.597C0.396,-0.599 0.398,-0.6 0.401,-0.601C0.404,-0.602 0.408,-0.603 0.414,-0.604C0.419,-0.605 0.425,-0.605 0.433,-0.605C0.441,-0.605 0.447,-0.605 0.453,-0.604C0.458,-0.603 0.462,-0.602 0.465,-0.601C0.468,-0.6 0.47,-0.599 0.472,-0.597C0.473,-0.595 0.474,-0.592 0.474,-0.59L0.474,-0.464L0.586,-0.464C0.589,-0.464 0.591,-0.464 0.593,-0.463C0.595,-0.462 0.596,-0.46 0.598,-0.457C0.599,-0.454 0.6,-0.451 0.601,-0.446C0.602,-0.442 0.602,-0.437 0.602,-0.431C0.602,-0.419 0.601,-0.41 0.598,-0.405C0.595,-0.4 0.591,-0.397 0.586,-0.397L0.474,-0.397L0.474,-0.152C0.474,-0.122 0.478,-0.099 0.487,-0.084C0.496,-0.068 0.512,-0.061 0.535,-0.061C0.542,-0.061 0.548,-0.061 0.554,-0.063C0.56,-0.064 0.566,-0.066 0.57,-0.067C0.575,-0.069 0.579,-0.071 0.582,-0.072C0.586,-0.073 0.589,-0.074 0.591,-0.074C0.593,-0.074 0.594,-0.074 0.596,-0.073C0.597,-0.072 0.598,-0.071 0.599,-0.068C0.6,-0.066 0.6,-0.063 0.601,-0.059C0.602,-0.055 0.602,-0.05 0.602,-0.044Z" style="fill:white;fill-rule:nonzero;"/>
            </g>
            <text x="0px" y="0px" style="font-family:'Calibri', sans-serif;font-size:24px;fill:white;">: h<tspan x="39.457px " y="0px ">p</tspan>://hos<tspan x="111.41px 119.449px " y="0px 0px ">t1</tspan></text>
        </g>
        <g transform="matrix(1,0,0,1,0,29)">
            <text x="0px" y="0px" style="font-family:'Calibri', sans-serif;font-size:24px;fill:white;">Ser<tspan x="31.559px 42.398px " y="0px 0px ">vi</tspan>ceA</text>
        </g>
        <g transform="matrix(1,0,0,1,89.3867,29)">
            <text x="0px" y="0px" style="font-family:'Calibri', sans-serif;font-size:24px;fill:white;">[</text>
        </g>
        <g transform="matrix(1,0,0,1,96.72,29)">
            <text x="0px" y="0px" style="font-family:'Calibri', sans-serif;font-size:24px;fill:white;">R<tspan x="12.609px 24.551px " y="0px 0px ">eq</tspan>ues<tspan x="70.828px 78.867px " y="0px 0px ">tA</tspan></text>
        </g>
        <g transform="matrix(1,0,0,1,189.707,29)">
            <text x="0px" y="0px" style="font-family:'Calibri', sans-serif;font-size:24px;fill:white;">, R<tspan x="24.023px 35.965px " y="0px 0px ">eq</tspan>ues<tspan x="82.242px 90.281px " y="0px 0px ">tB</tspan></text>
        </g>
        <g transform="matrix(1,0,0,1,293.187,29)">
            <text x="0px" y="0px" style="font-family:'Calibri', sans-serif;font-size:24px;fill:white;">]</text>
        </g>
        <g transform="matrix(1,0,0,1,775.545,-73)">
            <text x="0px" y="0px" style="font-family:'Calibri', sans-serif;font-size:24px;">Consul</text>
        </g>
        <g transform="matrix(1,0,0,1,373.778,-25)">
            <text x="0px" y="0px" style="font-family:'Calibri', sans-serif;font-size:24px;">R<tspan x="12.609px 24.551px " y="0px 0px ">eg</tspan>is<tspan x="50.473px 58.254px 70.195px " y="0px 0px 0px ">ter</tspan>:</text>
        </g>
        <g transform="matrix(1,0,0,1,464.331,-25)">
            <text x="0px" y="0px" style="font-family:'Calibri', sans-serif;font-size:24px;">AppHos<tspan x="75.832px " y="0px ">t</tspan></text>
        </g>
        <g transform="matrix(1,0,0,1,553.731,-25)">
            <text x="0px" y="0px" style="font-family:'Calibri', sans-serif;font-size:24px;">Init()</text>
        </g>
        <g transform="matrix(1,0,0,1,358.287,30)">
            <text x="0px" y="0px" style="font-family:'Calibri', sans-serif;font-size:24px;">Der<tspan x="34.758px 46.699px " y="0px 0px ">eg</tspan>is<tspan x="72.621px 80.402px 92.344px " y="0px 0px 0px ">ter</tspan>:</text>
        </g>
        <g transform="matrix(1,0,0,1,471.114,30)">
            <text x="0px" y="0px" style="font-family:'Calibri', sans-serif;font-size:24px;">AppHos<tspan x="75.832px " y="0px ">t</tspan></text>
        </g>
        <g transform="matrix(1,0,0,1,560.514,30)">
            <text x="0px" y="0px" style="font-family:'Calibri', sans-serif;font-size:24px;">Dispose()</text>
        </g>
    </g>
    <g transform="matrix(1,0,0,1,-152.125,-86.6758)">
        <path d="M507.503,161.167L842.026,163.71L842.021,164.377L507.498,161.833L507.503,161.167ZM840.72,160.034L848.689,164.094L840.659,168.034L840.72,160.034Z" style="fill:rgb(68,114,196);fill-rule:nonzero;"/>
    </g>
    <g transform="matrix(1,0,0,1,-152.125,-86.6758)">
        <path d="M507.503,218.167L842.026,220.71L842.021,221.377L507.498,218.833L507.503,218.167ZM840.72,217.034L848.689,221.094L840.659,225.034L840.72,217.034Z" style="fill:rgb(68,114,196);fill-rule:nonzero;"/>
    </g>
    <defs>
        <linearGradient id="_Linear1" x1="0" y1="0" x2="1" y2="0" gradientUnits="userSpaceOnUse" gradientTransform="matrix(7.83774e-15,128,-128,7.83774e-15,988.5,115.5)"><stop offset="0" style="stop-color:rgb(96,131,203);stop-opacity:1"/><stop offset="0.5" style="stop-color:rgb(62,112,202);stop-opacity:1"/><stop offset="1" style="stop-color:rgb(46,97,186);stop-opacity:1"/></linearGradient>
    </defs>
</svg>
