<svg width="1280" height="720" xmlns="http://www.w3.org/2000/svg" xmlns:xlink="http://www.w3.org/1999/xlink" overflow="hidden"><defs><clipPath id="clip0"><rect x="0" y="0" width="1280" height="720"/></clipPath><clipPath id="clip1"><rect x="128" y="229" width="544" height="279"/></clipPath><clipPath id="clip2"><rect x="128" y="229" width="544" height="279"/></clipPath><clipPath id="clip3"><rect x="128" y="229" width="544" height="279"/></clipPath><clipPath id="clip4"><rect x="293" y="356" width="8" height="8"/></clipPath><clipPath id="clip5"><rect x="293" y="356" width="8" height="8"/></clipPath><clipPath id="clip6"><rect x="293" y="356" width="8" height="8"/></clipPath><clipPath id="clip7"><rect x="119" y="250" width="8" height="8"/></clipPath><clipPath id="clip8"><rect x="119" y="250" width="8" height="8"/></clipPath><clipPath id="clip9"><rect x="119" y="250" width="8" height="8"/></clipPath><clipPath id="clip10"><rect x="231" y="288" width="132" height="132"/></clipPath><clipPath id="clip11"><rect x="231" y="288" width="132" height="132"/></clipPath><clipPath id="clip12"><rect x="231" y="288" width="132" height="132"/></clipPath><clipPath id="clip13"><rect x="57" y="195" width="133" height="132"/></clipPath><clipPath id="clip14"><rect x="57" y="195" width="133" height="132"/></clipPath><clipPath id="clip15"><rect x="57" y="195" width="133" height="132"/></clipPath><clipPath id="clip16"><rect x="416" y="387" width="132" height="132"/></clipPath><clipPath id="clip17"><rect x="416" y="387" width="132" height="132"/></clipPath><clipPath id="clip18"><rect x="416" y="387" width="132" height="132"/></clipPath><clipPath id="clip19"><rect x="605" y="457" width="132" height="132"/></clipPath><clipPath id="clip20"><rect x="605" y="457" width="132" height="132"/></clipPath><clipPath id="clip21"><rect x="605" y="457" width="132" height="132"/></clipPath></defs><g clip-path="url(#clip0)"><rect x="0" y="0" width="1280" height="720" fill="#FFFFFF"/><text fill="#333333" font-family="Segoe UI,Segoe UI_MSFontService,sans-serif" font-weight="400" font-size="37" transform="translate(389.563 144)">300 concurrent user stress test<tspan fill="#2683C6" font-weight="700" font-size="60" x="-48.19" y="-69">Cost per 1M requests</tspan><tspan fill="#2683C6" font-weight="700" font-size="112" x="459.823" y="210">3666%</tspan><tspan font-size="37" x="481.297" y="259">More Cost Effective</tspan><tspan fill="#6B7280" font-size="32" x="445.91" y="326">Results</tspan><tspan fill="#6B7280" font-size="29" x="552.683" y="326">from using Gatling to </tspan><tspan fill="#6B7280" font-size="29" x="471.463" y="362">simulate ~300 concurrent </tspan><tspan fill="#6B7280" font-size="29" x="450.663" y="397">users calling</tspan><tspan fill="#6B7280" font-size="29" x="618.03" y="397">AutoQuery APIs </tspan><tspan fill="#6B7280" font-size="29" x="459.57" y="432">to</tspan><tspan fill="#6B7280" font-size="29" x="494.51" y="432">query &amp; create bookings</tspan></text><g clip-path="url(#clip1)"><g clip-path="url(#clip2)"><g clip-path="url(#clip3)"><path d="M110.477 43.38 110.477 35.8787 110.477 35.8787 552.406 35.8787 552.406 312.396" stroke="#333333" stroke-width="2.12804" stroke-dasharray="8.51214 8.51214" fill="none" transform="matrix(1.22507 0 0 1 -6.03824 194.363)"/></g></g></g><text fill="#333333" font-family="Segoe UI,Segoe UI_MSFontService,sans-serif" font-weight="700" font-size="16" transform="translate(385.235 345)">2098%</text><rect x="231" y="356" width="132" height="236" fill="#059669"/><rect x="57" y="265" width="132" height="327" fill="#059669"/><g clip-path="url(#clip4)"><g clip-path="url(#clip5)"><g clip-path="url(#clip6)"><path d="M297 356C299.209 356 301 357.791 301 360 301 362.209 299.209 364 297 364 294.791 364 293 362.209 293 360 293 357.791 294.791 356 297 356" fill="#333333"/></g></g></g><g clip-path="url(#clip7)"><g clip-path="url(#clip8)"><g clip-path="url(#clip9)"><path d="M123 250C125.209 250 127 251.791 127 254 127 256.209 125.209 258 123 258 120.791 258 119 256.209 119 254 119 251.791 120.791 250 123 250" fill="#333333"/></g></g></g><rect x="212" y="235" width="60" height="31" fill="#FFFFFF"/><text fill="#333333" font-family="Segoe UI,Segoe UI_MSFontService,sans-serif" font-weight="700" font-size="16" transform="translate(205.582 249)">3666%</text><g clip-path="url(#clip10)"><g clip-path="url(#clip11)"><g clip-path="url(#clip12)"><path d="M297 289.5C332.622 289.5 361.5 318.378 361.5 354 361.5 389.622 332.622 418.5 297 418.5 261.378 418.5 232.5 389.622 232.5 354 232.5 318.378 261.378 289.5 297 289.5" stroke="#059669" stroke-width="3.00005" fill="#FFFFFF"/></g></g></g><g clip-path="url(#clip13)"><g clip-path="url(#clip14)"><g clip-path="url(#clip15)"><path d="M64.5 0C100.122-2.84217e-14 129 28.8776 129 64.5 129 100.122 100.122 129 64.5 129 28.8776 129 0 100.122 0 64.5-1.42109e-14 28.8776 28.8776-1.42109e-14 64.5-2.84217e-14" stroke="#059669" stroke-width="3" fill="#FFFFFF" transform="matrix(1.00758 0 0 1 58.5114 196.5)"/></g></g></g><rect x="416" y="457" width="132" height="134" fill="#2563EB"/><g clip-path="url(#clip16)"><g clip-path="url(#clip17)"><g clip-path="url(#clip18)"><path d="M482 388.5C517.622 388.5 546.5 417.378 546.5 453 546.5 488.622 517.622 517.5 482 517.5 446.378 517.5 417.5 488.622 417.5 453 417.5 417.378 446.378 388.5 482 388.5" stroke="#2563EB" stroke-width="3.00005" fill="#FFFFFF"/></g></g></g><text fill="#000000" fill-opacity="0.6" font-family="Segoe UI,Segoe UI_MSFontService,sans-serif" font-weight="400" font-size="52" transform="translate(431.431 471)">0.18<tspan font-size="52" x="-181.614" y="-95">1.07</tspan><tspan font-size="52" x="-355.669" y="-192">1.87</tspan></text><rect x="605" y="528" width="132" height="64" fill="#2563EB"/><g clip-path="url(#clip19)"><g clip-path="url(#clip20)"><g clip-path="url(#clip21)"><path d="M671 458.5C706.622 458.5 735.5 487.378 735.5 523 735.5 558.622 706.622 587.5 671 587.5 635.378 587.5 606.5 558.622 606.5 523 606.5 487.378 635.378 458.5 671 458.5" stroke="#2563EB" stroke-width="3.00005" fill="#FFFFFF"/></g></g></g><text fill="#000000" fill-opacity="0.6" font-family="Segoe UI,Segoe UI_MSFontService,sans-serif" font-weight="400" font-size="49" transform="translate(626.936 541)">0.05<tspan fill="#333333" fill-opacity="1" font-weight="700" font-size="16" x="-78.5725" y="-128">352%</tspan></text><path d="M0 0 313.341 2.44556" stroke="#1F2937" stroke-width="2" stroke-linejoin="round" stroke-miterlimit="10" stroke-dasharray="8 6" fill="none" fill-rule="evenodd" transform="matrix(1 0 0 -1 359 327.446)"/><path d="M0 0 129.822 2.03129" stroke="#1F2937" stroke-width="2" stroke-linejoin="round" stroke-miterlimit="10" stroke-dasharray="8 6" fill="none" fill-rule="evenodd" transform="matrix(1 0 0 -1 540 420.031)"/><text fill="#059669" font-family="Segoe UI,Segoe UI_MSFontService,sans-serif" font-weight="700" font-size="32" transform="translate(78.4755 663)">Managed RDBMS<tspan fill="#2563EB" font-size="32" x="419.779" y="0">Litestream</tspan><tspan fill="#000000" fill-opacity="0.6" font-weight="400" font-size="27" x="5.95701" y="-44">Azure</tspan><tspan fill="#000000" fill-opacity="0.6" font-weight="400" font-size="27" x="186.069" y="-44">AWS</tspan><tspan fill="#000000" fill-opacity="0.6" font-weight="400" font-size="27" x="322.893" y="-44">DigitalOcean</tspan><tspan fill="#000000" fill-opacity="0.6" font-weight="400" font-size="27" x="504.932" y="-44">Hetzner</tspan><tspan fill="#000000" fill-opacity="0.6" font-weight="400" font-size="27" x="604.766" y="-44">Cloud</tspan></text></g></svg>