<?xml version="1.0" encoding="UTF-8" standalone="no"?>
<!DOCTYPE svg PUBLIC "-//W3C//DTD SVG 1.1//EN" "http://www.w3.org/Graphics/SVG/1.1/DTD/svg11.dtd">
<svg width="100%" height="100%" viewBox="0 0 724 370" version="1.1" xmlns="http://www.w3.org/2000/svg" xmlns:xlink="http://www.w3.org/1999/xlink" xml:space="preserve" xmlns:serif="http://www.serif.com/" style="fill-rule:evenodd;clip-rule:evenodd;stroke-linejoin:round;stroke-miterlimit:2;">
    <g transform="matrix(1,0,0,1,28.0759,-2.56968)">
        <g transform="matrix(0.0100046,0,0,0.00998568,0,0)">
            <rect x="48" y="2928" width="23520" height="9968" style="fill:rgb(38,131,198);"/>
        </g>
        <rect x="0" y="3.355" width="647.34" height="356.769" style="fill:none;"/>
        <clipPath id="_clip1">
            <rect x="0" y="3.355" width="647.34" height="356.769"/>
        </clipPath>
        <g clip-path="url(#_clip1)">
            <g transform="matrix(0.0100046,0,0,0.00998568,0,0)">
                <rect x="48" y="2928" width="23520" height="9968" style="fill:none;stroke:rgb(38,131,198);stroke-width:113.11px;"/>
            </g>
        </g>
        <rect x="0" y="0" width="661.586" height="369.39" style="fill:none;"/>
        <g transform="matrix(0.160074,0,0,0.159771,27.6397,65.2228)">
            <text x="0px" y="0px" style="font-family:'SegoeUI', 'Segoe UI', sans-serif;font-size:150px;fill:white;">S</text>
            <text x="80.037px" y="0px" style="font-family:'SegoeUI', 'Segoe UI', sans-serif;font-size:150px;fill:white;">e</text>
            <text x="158.03px" y="0px" style="font-family:'SegoeUI', 'Segoe UI', sans-serif;font-size:150px;fill:white;">r</text>
            <text x="221.984px" y="0px" style="font-family:'SegoeUI', 'Segoe UI', sans-serif;font-size:150px;fill:white;">v</text>
            <text x="293.985px" y="0px" style="font-family:'SegoeUI', 'Segoe UI', sans-serif;font-size:150px;fill:white;">i</text>
            <text x="330.013px" y="0px" style="font-family:'SegoeUI', 'Segoe UI', sans-serif;font-size:150px;fill:white;">c</text>
            <text x="399px" y="0px" style="font-family:'SegoeUI', 'Segoe UI', sans-serif;font-size:150px;fill:white;">e</text>
            <text x="476.992px" y="0px" style="font-family:'SegoeUI', 'Segoe UI', sans-serif;font-size:150px;fill:white;">S</text>
            <text x="547.196px" y="0px" style="font-family:'SegoeUI', 'Segoe UI', sans-serif;font-size:150px;fill:white;">t</text>
            <text x="598.176px" y="0px" style="font-family:'SegoeUI', 'Segoe UI', sans-serif;font-size:150px;fill:white;">a</text>
            <text x="674.144px" y="0px" style="font-family:'SegoeUI', 'Segoe UI', sans-serif;font-size:150px;fill:white;">c</text>
            <text x="743.131px" y="0px" style="font-family:'SegoeUI', 'Segoe UI', sans-serif;font-size:150px;fill:white;">k</text>
            <text x="862.131px" y="0px" style="font-family:'SegoeUI', 'Segoe UI', sans-serif;font-size:150px;fill:white;">A</text>
            <text x="959.134px" y="0px" style="font-family:'SegoeUI', 'Segoe UI', sans-serif;font-size:150px;fill:white;">p<tspan x="1047.12px " y="0px ">p</tspan></text>
        </g>
        <g transform="matrix(0.160074,0,0,0.159771,41.4061,103.894)">
            <text x="0px" y="0px" style="font-family:'SegoeUI', 'Segoe UI', sans-serif;font-size:100px;fill:white;">.</text>
            <text x="21.98px" y="0px" style="font-family:'SegoeUI', 'Segoe UI', sans-serif;font-size:100px;fill:white;">N</text>
            <text x="96.984px" y="0px" style="font-family:'SegoeUI', 'Segoe UI', sans-serif;font-size:100px;fill:white;">E</text>
            <text x="148.166px" y="0px" style="font-family:'SegoeUI', 'Segoe UI', sans-serif;font-size:100px;fill:white;">T</text>
            <text x="227.151px" y="0px" style="font-family:'SegoeUI', 'Segoe UI', sans-serif;font-size:100px;fill:white;">W</text>
            <text x="315.766px" y="0px" style="font-family:'SegoeUI', 'Segoe UI', sans-serif;font-size:100px;fill:white;">e</text>
            <text x="367.761px" y="0px" style="font-family:'SegoeUI', 'Segoe UI', sans-serif;font-size:100px;fill:white;">b</text>
            <text x="453.743px" y="0px" style="font-family:'SegoeUI', 'Segoe UI', sans-serif;font-size:100px;fill:white;">A</text>
            <text x="518.745px" y="0px" style="font-family:'SegoeUI', 'Segoe UI', sans-serif;font-size:100px;fill:white;">p<tspan x="577.734px " y="0px ">p</tspan></text>
            <text x="661.716px" y="0px" style="font-family:'SegoeUI', 'Segoe UI', sans-serif;font-size:100px;fill:white;">&amp;</text>
            <text x="769.737px" y="0px" style="font-family:'SegoeUI', 'Segoe UI', sans-serif;font-size:100px;fill:white;">A</text>
            <text x="834.739px" y="0px" style="font-family:'SegoeUI', 'Segoe UI', sans-serif;font-size:100px;fill:white;">P</text>
            <text x="890.745px" y="0px" style="font-family:'SegoeUI', 'Segoe UI', sans-serif;font-size:100px;fill:white;">I</text>
            <text x="917.757px" y="0px" style="font-family:'SegoeUI', 'Segoe UI', sans-serif;font-size:100px;fill:white;">s</text>
        </g>
        <g transform="matrix(0.160074,0,0,0.159771,38.4646,20.432)">
            <text x="0px" y="0px" style="font-family:'SegoeUI', 'Segoe UI', sans-serif;font-size:100px;fill:rgb(31,41,55);">D</text>
            <text x="70.017px" y="0px" style="font-family:'SegoeUI', 'Segoe UI', sans-serif;font-size:100px;fill:rgb(31,41,55);">o</text>
            <text x="129.011px" y="0px" style="font-family:'SegoeUI', 'Segoe UI', sans-serif;font-size:100px;fill:rgb(31,41,55);">c</text>
            <text x="175.002px" y="0px" style="font-family:'SegoeUI', 'Segoe UI', sans-serif;font-size:100px;fill:rgb(31,41,55);">k</text>
            <text x="221.007px" y="0px" style="font-family:'SegoeUI', 'Segoe UI', sans-serif;font-size:100px;fill:rgb(31,41,55);">e</text>
            <text x="273.002px" y="0px" style="font-family:'SegoeUI', 'Segoe UI', sans-serif;font-size:100px;fill:rgb(31,41,55);">r</text>
            <text x="332.961px" y="0px" style="font-family:'SegoeUI', 'Segoe UI', sans-serif;font-size:100px;fill:rgb(31,41,55);">C</text>
            <text x="394.975px" y="0px" style="font-family:'SegoeUI', 'Segoe UI', sans-serif;font-size:100px;fill:rgb(31,41,55);">o</text>
            <text x="453.968px" y="0px" style="font-family:'SegoeUI', 'Segoe UI', sans-serif;font-size:100px;fill:rgb(31,41,55);">n</text>
            <text x="510.96px" y="0px" style="font-family:'SegoeUI', 'Segoe UI', sans-serif;font-size:100px;fill:rgb(31,41,55);">ta</text>
            <text x="595.926px" y="0px" style="font-family:'SegoeUI', 'Segoe UI', sans-serif;font-size:100px;fill:rgb(31,41,55);">i</text>
            <text x="619.945px" y="0px" style="font-family:'SegoeUI', 'Segoe UI', sans-serif;font-size:100px;fill:rgb(31,41,55);">n</text>
            <text x="676.936px" y="0px" style="font-family:'SegoeUI', 'Segoe UI', sans-serif;font-size:100px;fill:rgb(31,41,55);">e</text>
            <text x="728.931px" y="0px" style="font-family:'SegoeUI', 'Segoe UI', sans-serif;font-size:100px;fill:rgb(31,41,55);">r</text>
            <text x="771.901px" y="0px" style="font-family:'SegoeUI', 'Segoe UI', sans-serif;font-size:100px;fill:rgb(31,41,55);">:</text>
            <text x="818.873px" y="0px" style="font-family:'SegoeUI', 'Segoe UI', sans-serif;font-size:100px;fill:rgb(31,41,55);">A</text>
            <text x="883.875px" y="0px" style="font-family:'SegoeUI', 'Segoe UI', sans-serif;font-size:100px;fill:rgb(31,41,55);">p<tspan x="942.864px " y="0px ">p</tspan></text>
        </g>
        <g transform="matrix(0.0200093,0,0,0.0199714,0,0)">
            <rect x="15848" y="1488" width="11760" height="4984" style="fill:rgb(38,131,198);"/>
        </g>
        <g transform="matrix(0.0200093,0,0,0.0199714,0,0)">
            <rect x="15848" y="1488" width="11760" height="4984" style="fill:none;stroke:rgb(38,131,198);stroke-width:57.05px;"/>
        </g>
        <g transform="matrix(0.160074,0,0,0.159771,329.029,65.2228)">
            <text x="0px" y="0px" style="font-family:'SegoeUI', 'Segoe UI', sans-serif;font-size:150px;fill:white;">L</text>
            <text x="70.955px" y="0px" style="font-family:'SegoeUI', 'Segoe UI', sans-serif;font-size:150px;fill:white;">i</text>
            <text x="106.984px" y="0px" style="font-family:'SegoeUI', 'Segoe UI', sans-serif;font-size:150px;fill:white;">t</text>
            <text x="155.792px" y="0px" style="font-family:'SegoeUI', 'Segoe UI', sans-serif;font-size:150px;fill:white;">e</text>
            <text x="233.784px" y="0px" style="font-family:'SegoeUI', 'Segoe UI', sans-serif;font-size:150px;fill:white;">s</text>
            <text x="297.832px" y="0px" style="font-family:'SegoeUI', 'Segoe UI', sans-serif;font-size:150px;fill:white;">t</text>
            <text x="348.812px" y="0px" style="font-family:'SegoeUI', 'Segoe UI', sans-serif;font-size:150px;fill:white;">r</text>
            <text x="396.783px" y="0px" style="font-family:'SegoeUI', 'Segoe UI', sans-serif;font-size:150px;fill:white;">e</text>
            <text x="474.775px" y="0px" style="font-family:'SegoeUI', 'Segoe UI', sans-serif;font-size:150px;fill:white;">a</text>
            <text x="550.743px" y="0px" style="font-family:'SegoeUI', 'Segoe UI', sans-serif;font-size:150px;fill:white;">m</text>
            <text x="720.781px" y="0px" style="font-family:'SegoeUI', 'Segoe UI', sans-serif;font-size:150px;fill:white;">R</text>
            <text x="802.628px" y="0px" style="font-family:'SegoeUI', 'Segoe UI', sans-serif;font-size:150px;fill:white;">e</text>
            <text x="880.621px" y="0px" style="font-family:'SegoeUI', 'Segoe UI', sans-serif;font-size:150px;fill:white;">p</text>
            <text x="968.604px" y="0px" style="font-family:'SegoeUI', 'Segoe UI', sans-serif;font-size:150px;fill:white;">l</text>
            <text x="1004.63px" y="0px" style="font-family:'SegoeUI', 'Segoe UI', sans-serif;font-size:150px;fill:white;">i</text>
            <text x="1040.66px" y="0px" style="font-family:'SegoeUI', 'Segoe UI', sans-serif;font-size:150px;fill:white;">c</text>
            <text x="1109.65px" y="0px" style="font-family:'SegoeUI', 'Segoe UI', sans-serif;font-size:150px;fill:white;">a</text>
            <text x="1185.62px" y="0px" style="font-family:'SegoeUI', 'Segoe UI', sans-serif;font-size:150px;fill:white;">t</text>
            <text x="1234.42px" y="0px" style="font-family:'SegoeUI', 'Segoe UI', sans-serif;font-size:150px;fill:white;">e</text>
        </g>
        <g transform="matrix(0.160074,0,0,0.159771,353.921,96.1444)">
            <text x="0px" y="0px" style="font-family:'SegoeUI', 'Segoe UI', sans-serif;font-size:100px;fill:white;">W</text>
            <text x="85.297px" y="0px" style="font-family:'SegoeUI', 'Segoe UI', sans-serif;font-size:100px;fill:white;">a</text>
            <text x="136.276px" y="0px" style="font-family:'SegoeUI', 'Segoe UI', sans-serif;font-size:100px;fill:white;">t</text>
            <text x="167.945px" y="0px" style="font-family:'SegoeUI', 'Segoe UI', sans-serif;font-size:100px;fill:white;">c</text>
            <text x="213.936px" y="0px" style="font-family:'SegoeUI', 'Segoe UI', sans-serif;font-size:100px;fill:white;">h</text>
            <text x="270.928px" y="0px" style="font-family:'SegoeUI', 'Segoe UI', sans-serif;font-size:100px;fill:white;">e</text>
            <text x="322.923px" y="0px" style="font-family:'SegoeUI', 'Segoe UI', sans-serif;font-size:100px;fill:white;">s</text>
            <text x="392.947px" y="0px" style="font-family:'SegoeUI', 'Segoe UI', sans-serif;font-size:100px;fill:white;">a</text>
            <text x="443.926px" y="0px" style="font-family:'SegoeUI', 'Segoe UI', sans-serif;font-size:100px;fill:white;">n</text>
            <text x="500.918px" y="0px" style="font-family:'SegoeUI', 'Segoe UI', sans-serif;font-size:100px;fill:white;">d</text>
            <text x="586.897px" y="0px" style="font-family:'SegoeUI', 'Segoe UI', sans-serif;font-size:100px;fill:white;">R</text>
            <text x="641.128px" y="0px" style="font-family:'SegoeUI', 'Segoe UI', sans-serif;font-size:100px;fill:white;">e</text>
            <text x="693.123px" y="0px" style="font-family:'SegoeUI', 'Segoe UI', sans-serif;font-size:100px;fill:white;">p</text>
            <text x="752.112px" y="0px" style="font-family:'SegoeUI', 'Segoe UI', sans-serif;font-size:100px;fill:white;">l<tspan x="776.131px " y="0px ">i</tspan></text>
            <text x="800.15px" y="0px" style="font-family:'SegoeUI', 'Segoe UI', sans-serif;font-size:100px;fill:white;">c</text>
            <text x="846.141px" y="0px" style="font-family:'SegoeUI', 'Segoe UI', sans-serif;font-size:100px;fill:white;">a</text>
            <text x="897.12px" y="0px" style="font-family:'SegoeUI', 'Segoe UI', sans-serif;font-size:100px;fill:white;">t</text>
            <text x="929.325px" y="0px" style="font-family:'SegoeUI', 'Segoe UI', sans-serif;font-size:100px;fill:white;">e</text>
            <text x="981.32px" y="0px" style="font-family:'SegoeUI', 'Segoe UI', sans-serif;font-size:100px;fill:white;">s</text>
        </g>
        <g transform="matrix(0.160074,0,0,0.159771,381.134,115.317)">
            <text x="0px" y="0px" style="font-family:'SegoeUI', 'Segoe UI', sans-serif;font-size:100px;fill:white;">S</text>
            <text x="53.025px" y="0px" style="font-family:'SegoeUI', 'Segoe UI', sans-serif;font-size:100px;fill:white;">Q</text>
            <text x="128.016px" y="0px" style="font-family:'SegoeUI', 'Segoe UI', sans-serif;font-size:100px;fill:white;">L</text>
            <text x="174.986px" y="0px" style="font-family:'SegoeUI', 'Segoe UI', sans-serif;font-size:100px;fill:white;">i</text>
            <text x="199.005px" y="0px" style="font-family:'SegoeUI', 'Segoe UI', sans-serif;font-size:100px;fill:white;">t</text>
            <text x="231.21px" y="0px" style="font-family:'SegoeUI', 'Segoe UI', sans-serif;font-size:100px;fill:white;">e</text>
            <text x="311.198px" y="0px" style="font-family:'SegoeUI', 'Segoe UI', sans-serif;font-size:100px;fill:white;">C</text>
            <text x="373.212px" y="0px" style="font-family:'SegoeUI', 'Segoe UI', sans-serif;font-size:100px;fill:white;">h</text>
            <text x="430.204px" y="0px" style="font-family:'SegoeUI', 'Segoe UI', sans-serif;font-size:100px;fill:white;">a</text>
            <text x="481.182px" y="0px" style="font-family:'SegoeUI', 'Segoe UI', sans-serif;font-size:100px;fill:white;">n</text>
            <text x="538.174px" y="0px" style="font-family:'SegoeUI', 'Segoe UI', sans-serif;font-size:100px;fill:white;">g</text>
            <text x="597.161px" y="0px" style="font-family:'SegoeUI', 'Segoe UI', sans-serif;font-size:100px;fill:white;">e</text>
            <text x="649.156px" y="0px" style="font-family:'SegoeUI', 'Segoe UI', sans-serif;font-size:100px;fill:white;">s</text>
        </g>
        <g transform="matrix(0.160074,0,0,0.159771,321.635,20.432)">
            <text x="0px" y="0px" style="font-family:'SegoeUI', 'Segoe UI', sans-serif;font-size:100px;fill:rgb(31,41,55);">D</text>
            <text x="70.017px" y="0px" style="font-family:'SegoeUI', 'Segoe UI', sans-serif;font-size:100px;fill:rgb(31,41,55);">o</text>
            <text x="129.011px" y="0px" style="font-family:'SegoeUI', 'Segoe UI', sans-serif;font-size:100px;fill:rgb(31,41,55);">c</text>
            <text x="175.002px" y="0px" style="font-family:'SegoeUI', 'Segoe UI', sans-serif;font-size:100px;fill:rgb(31,41,55);">k</text>
            <text x="221.007px" y="0px" style="font-family:'SegoeUI', 'Segoe UI', sans-serif;font-size:100px;fill:rgb(31,41,55);">e</text>
            <text x="273.002px" y="0px" style="font-family:'SegoeUI', 'Segoe UI', sans-serif;font-size:100px;fill:rgb(31,41,55);">r</text>
            <text x="332.961px" y="0px" style="font-family:'SegoeUI', 'Segoe UI', sans-serif;font-size:100px;fill:rgb(31,41,55);">C</text>
            <text x="394.975px" y="0px" style="font-family:'SegoeUI', 'Segoe UI', sans-serif;font-size:100px;fill:rgb(31,41,55);">o</text>
            <text x="453.968px" y="0px" style="font-family:'SegoeUI', 'Segoe UI', sans-serif;font-size:100px;fill:rgb(31,41,55);">n</text>
            <text x="510.96px" y="0px" style="font-family:'SegoeUI', 'Segoe UI', sans-serif;font-size:100px;fill:rgb(31,41,55);">ta</text>
            <text x="595.926px" y="0px" style="font-family:'SegoeUI', 'Segoe UI', sans-serif;font-size:100px;fill:rgb(31,41,55);">i</text>
            <text x="619.945px" y="0px" style="font-family:'SegoeUI', 'Segoe UI', sans-serif;font-size:100px;fill:rgb(31,41,55);">n</text>
            <text x="676.936px" y="0px" style="font-family:'SegoeUI', 'Segoe UI', sans-serif;font-size:100px;fill:rgb(31,41,55);">e</text>
            <text x="728.931px" y="0px" style="font-family:'SegoeUI', 'Segoe UI', sans-serif;font-size:100px;fill:rgb(31,41,55);">r</text>
            <text x="771.901px" y="0px" style="font-family:'SegoeUI', 'Segoe UI', sans-serif;font-size:100px;fill:rgb(31,41,55);">:</text>
            <text x="818.873px" y="0px" style="font-family:'SegoeUI', 'Segoe UI', sans-serif;font-size:100px;fill:rgb(31,41,55);">L</text>
            <text x="865.843px" y="0px" style="font-family:'SegoeUI', 'Segoe UI', sans-serif;font-size:100px;fill:rgb(31,41,55);">i</text>
            <text x="889.862px" y="0px" style="font-family:'SegoeUI', 'Segoe UI', sans-serif;font-size:100px;fill:rgb(31,41,55);">t</text>
            <text x="922.068px" y="0px" style="font-family:'SegoeUI', 'Segoe UI', sans-serif;font-size:100px;fill:rgb(31,41,55);">e</text>
            <text x="974.062px" y="0px" style="font-family:'SegoeUI', 'Segoe UI', sans-serif;font-size:100px;fill:rgb(31,41,55);">s</text>
            <text x="1016.09px" y="0px" style="font-family:'SegoeUI', 'Segoe UI', sans-serif;font-size:100px;fill:rgb(31,41,55);">t</text>
            <text x="1050.08px" y="0px" style="font-family:'SegoeUI', 'Segoe UI', sans-serif;font-size:100px;fill:rgb(31,41,55);">r</text>
            <text x="1082.73px" y="0px" style="font-family:'SegoeUI', 'Segoe UI', sans-serif;font-size:100px;fill:rgb(31,41,55);">e</text>
            <text x="1134.72px" y="0px" style="font-family:'SegoeUI', 'Segoe UI', sans-serif;font-size:100px;fill:rgb(31,41,55);">a</text>
            <text x="1185.7px" y="0px" style="font-family:'SegoeUI', 'Segoe UI', sans-serif;font-size:100px;fill:rgb(31,41,55);">m</text>
        </g>
        <g transform="matrix(0.0200093,0,0,0.0199714,0,0)">
            <path d="M9080,10081C9080,10595 10918,11010 13184,11010C15451,11010 17288,10595 17288,10081L17288,15655C17288,16169 15451,16584 13184,16584C10918,16584 9080,16169 9080,15655L9080,10081Z" style="fill:rgb(38,131,198);"/>
        </g>
        <g transform="matrix(0.0200093,0,0,0.0199714,0,0)">
            <path d="M9080,10081C9080,9568 10918,9152 13184,9152C15451,9152 17288,9568 17288,10081C17288,10595 15451,11010 13184,11010C10918,11010 9080,10595 9080,10081" style="fill:rgb(125,181,221);"/>
        </g>
        <g transform="matrix(0.0200093,0,0,0.0199714,0,0)">
            <path d="M17288,10081C17288,10595 15451,11010 13184,11010C10918,11010 9080,10595 9080,10081C9080,9568 10918,9152 13184,9152C15451,9152 17288,9568 17288,10081L17288,15655C17288,16169 15451,16584 13184,16584C10918,16584 9080,16169 9080,15655L9080,10081" style="fill:none;stroke:rgb(38,131,198);stroke-width:57.05px;"/>
        </g>
        <g transform="matrix(0.160074,0,0,0.159771,214.678,275.247)">
            <text x="0px" y="0px" style="font-family:'SegoeUI', 'Segoe UI', sans-serif;font-size:150px;fill:white;">D</text>
            <text x="105.026px" y="0px" style="font-family:'SegoeUI', 'Segoe UI', sans-serif;font-size:150px;fill:white;">a</text>
            <text x="180.994px" y="0px" style="font-family:'SegoeUI', 'Segoe UI', sans-serif;font-size:150px;fill:white;">t</text>
            <text x="231.974px" y="0px" style="font-family:'SegoeUI', 'Segoe UI', sans-serif;font-size:150px;fill:white;">a</text>
            <text x="307.943px" y="0px" style="font-family:'SegoeUI', 'Segoe UI', sans-serif;font-size:150px;fill:white;">b</text>
            <text x="391.949px" y="0px" style="font-family:'SegoeUI', 'Segoe UI', sans-serif;font-size:150px;fill:white;">a</text>
            <text x="467.917px" y="0px" style="font-family:'SegoeUI', 'Segoe UI', sans-serif;font-size:150px;fill:white;">s</text>
            <text x="531.964px" y="0px" style="font-family:'SegoeUI', 'Segoe UI', sans-serif;font-size:150px;fill:white;">e</text>
        </g>
        <g transform="matrix(0.160074,0,0,0.159771,183.45,356.07)">
            <text x="0px" y="0px" style="font-family:'SegoeUI', 'Segoe UI', sans-serif;font-size:100px;fill:rgb(31,41,55);">S</text>
            <text x="53.025px" y="0px" style="font-family:'SegoeUI', 'Segoe UI', sans-serif;font-size:100px;fill:rgb(31,41,55);">h</text>
            <text x="110.017px" y="0px" style="font-family:'SegoeUI', 'Segoe UI', sans-serif;font-size:100px;fill:rgb(31,41,55);">a</text>
            <text x="160.996px" y="0px" style="font-family:'SegoeUI', 'Segoe UI', sans-serif;font-size:100px;fill:rgb(31,41,55);">r</text>
            <text x="193.643px" y="0px" style="font-family:'SegoeUI', 'Segoe UI', sans-serif;font-size:100px;fill:rgb(31,41,55);">e</text>
            <text x="245.638px" y="0px" style="font-family:'SegoeUI', 'Segoe UI', sans-serif;font-size:100px;fill:rgb(31,41,55);">d</text>
            <text x="330.617px" y="0px" style="font-family:'SegoeUI', 'Segoe UI', sans-serif;font-size:100px;fill:rgb(31,41,55);">D</text>
            <text x="400.634px" y="0px" style="font-family:'SegoeUI', 'Segoe UI', sans-serif;font-size:100px;fill:rgb(31,41,55);">o</text>
            <text x="459.628px" y="0px" style="font-family:'SegoeUI', 'Segoe UI', sans-serif;font-size:100px;fill:rgb(31,41,55);">c</text>
            <text x="505.62px" y="0px" style="font-family:'SegoeUI', 'Segoe UI', sans-serif;font-size:100px;fill:rgb(31,41,55);">k</text>
            <text x="551.625px" y="0px" style="font-family:'SegoeUI', 'Segoe UI', sans-serif;font-size:100px;fill:rgb(31,41,55);">e</text>
            <text x="603.62px" y="0px" style="font-family:'SegoeUI', 'Segoe UI', sans-serif;font-size:100px;fill:rgb(31,41,55);">r</text>
            <text x="663.578px" y="0px" style="font-family:'SegoeUI', 'Segoe UI', sans-serif;font-size:100px;fill:rgb(31,41,55);">V</text>
            <text x="713.288px" y="0px" style="font-family:'SegoeUI', 'Segoe UI', sans-serif;font-size:100px;fill:rgb(31,41,55);">o</text>
            <text x="772.282px" y="0px" style="font-family:'SegoeUI', 'Segoe UI', sans-serif;font-size:100px;fill:rgb(31,41,55);">l</text>
            <text x="796.301px" y="0px" style="font-family:'SegoeUI', 'Segoe UI', sans-serif;font-size:100px;fill:rgb(31,41,55);">u</text>
            <text x="853.293px" y="0px" style="font-family:'SegoeUI', 'Segoe UI', sans-serif;font-size:100px;fill:rgb(31,41,55);">m</text>
            <text x="939.325px" y="0px" style="font-family:'SegoeUI', 'Segoe UI', sans-serif;font-size:100px;fill:rgb(31,41,55);">e</text>
        </g>
        <g transform="matrix(0.0100046,0,0,0.00998568,0,0)">
            <path d="M11892,13154L17823,19086L18045,18864L18045,19750L17158,19750L17380,19529L11448,13598L11892,13154Z" style="fill:none;stroke:rgb(31,41,55);stroke-width:113.11px;stroke-linejoin:miter;stroke-miterlimit:8;"/>
        </g>
        <g transform="matrix(0.160074,0,0,0.159771,158.518,164.107)">
            <text x="0px" y="0px" style="font-family:'SegoeUI', 'Segoe UI', sans-serif;font-size:100px;fill:rgb(31,41,55);">R</text>
            <text x="54.231px" y="0px" style="font-family:'SegoeUI', 'Segoe UI', sans-serif;font-size:100px;fill:rgb(31,41,55);">e</text>
            <text x="106.226px" y="0px" style="font-family:'SegoeUI', 'Segoe UI', sans-serif;font-size:100px;fill:rgb(31,41,55);">ad</text>
            <text x="216.192px" y="0px" style="font-family:'SegoeUI', 'Segoe UI', sans-serif;font-size:100px;fill:rgb(31,41,55);">/</text>
            <text x="255.157px" y="0px" style="font-family:'SegoeUI', 'Segoe UI', sans-serif;font-size:100px;fill:rgb(31,41,55);">W</text>
            <text x="348.165px" y="0px" style="font-family:'SegoeUI', 'Segoe UI', sans-serif;font-size:100px;fill:rgb(31,41,55);">r</text>
            <text x="383.13px" y="0px" style="font-family:'SegoeUI', 'Segoe UI', sans-serif;font-size:100px;fill:rgb(31,41,55);">i</text>
            <text x="407.149px" y="0px" style="font-family:'SegoeUI', 'Segoe UI', sans-serif;font-size:100px;fill:rgb(31,41,55);">t</text>
            <text x="439.355px" y="0px" style="font-family:'SegoeUI', 'Segoe UI', sans-serif;font-size:100px;fill:rgb(31,41,55);">e</text>
        </g>
        <g transform="matrix(0.0200093,0,0,0.0199714,0,0)">
            <path d="M20494,6577L17528,9543L17417,9432L17417,9875L17861,9875L17750,9765L20715,6799L20494,6577Z" style="fill:none;stroke:rgb(31,41,55);stroke-width:57.05px;stroke-linejoin:miter;stroke-miterlimit:8;"/>
        </g>
        <g transform="matrix(0.160074,0,0,0.159771,313.151,163.51)">
            <text x="0px" y="0px" style="font-family:'SegoeUI', 'Segoe UI', sans-serif;font-size:100px;fill:rgb(31,41,55);">W</text>
            <text x="85.297px" y="0px" style="font-family:'SegoeUI', 'Segoe UI', sans-serif;font-size:100px;fill:rgb(31,41,55);">a</text>
            <text x="136.276px" y="0px" style="font-family:'SegoeUI', 'Segoe UI', sans-serif;font-size:100px;fill:rgb(31,41,55);">t</text>
            <text x="167.945px" y="0px" style="font-family:'SegoeUI', 'Segoe UI', sans-serif;font-size:100px;fill:rgb(31,41,55);">c</text>
            <text x="213.936px" y="0px" style="font-family:'SegoeUI', 'Segoe UI', sans-serif;font-size:100px;fill:rgb(31,41,55);">h</text>
            <text x="270.928px" y="0px" style="font-family:'SegoeUI', 'Segoe UI', sans-serif;font-size:100px;fill:rgb(31,41,55);">e</text>
            <text x="322.923px" y="0px" style="font-family:'SegoeUI', 'Segoe UI', sans-serif;font-size:100px;fill:rgb(31,41,55);">s</text>
        </g>
        <g transform="matrix(0.160074,0,0,0.159771,232.594,309.57)">
            <text x="0px" y="0px" style="font-family:'SegoeUI', 'Segoe UI', sans-serif;font-size:100px;fill:white;">a</text>
            <text x="50.979px" y="0px" style="font-family:'SegoeUI', 'Segoe UI', sans-serif;font-size:100px;fill:white;">p<tspan x="109.968px " y="0px ">p</tspan></text>
            <text x="168.957px" y="0px" style="font-family:'SegoeUI', 'Segoe UI', sans-serif;font-size:100px;fill:white;">.</text>
            <text x="190.937px" y="0px" style="font-family:'SegoeUI', 'Segoe UI', sans-serif;font-size:100px;fill:white;">s</text>
            <text x="232.968px" y="0px" style="font-family:'SegoeUI', 'Segoe UI', sans-serif;font-size:100px;fill:white;">q</text>
            <text x="291.955px" y="0px" style="font-family:'SegoeUI', 'Segoe UI', sans-serif;font-size:100px;fill:white;">l<tspan x="315.974px " y="0px ">i</tspan></text>
            <text x="339.993px" y="0px" style="font-family:'SegoeUI', 'Segoe UI', sans-serif;font-size:100px;fill:white;">t</text>
            <text x="372.198px" y="0px" style="font-family:'SegoeUI', 'Segoe UI', sans-serif;font-size:100px;fill:white;">e</text>
        </g>
        <g transform="matrix(0.0200093,0,0,0.0199714,0,0)">
            <path d="M23767,6577L26733,9543L26843,9432L26843,9875L26400,9875L26511,9765L23545,6799L23767,6577Z" style="fill:none;stroke:rgb(31,41,55);stroke-width:57.05px;stroke-linejoin:miter;stroke-miterlimit:8;"/>
        </g>
        <g transform="matrix(0.160074,0,0,0.159771,514.463,164.106)">
            <text x="0px" y="0px" style="font-family:'SegoeUI', 'Segoe UI', sans-serif;font-size:100px;fill:rgb(31,41,55);">R</text>
            <text x="54.231px" y="0px" style="font-family:'SegoeUI', 'Segoe UI', sans-serif;font-size:100px;fill:rgb(31,41,55);">e</text>
            <text x="106.226px" y="0px" style="font-family:'SegoeUI', 'Segoe UI', sans-serif;font-size:100px;fill:rgb(31,41,55);">p</text>
            <text x="165.215px" y="0px" style="font-family:'SegoeUI', 'Segoe UI', sans-serif;font-size:100px;fill:rgb(31,41,55);">l<tspan x="189.234px " y="0px ">i</tspan></text>
            <text x="213.253px" y="0px" style="font-family:'SegoeUI', 'Segoe UI', sans-serif;font-size:100px;fill:rgb(31,41,55);">c</text>
            <text x="259.244px" y="0px" style="font-family:'SegoeUI', 'Segoe UI', sans-serif;font-size:100px;fill:rgb(31,41,55);">a</text>
            <text x="310.223px" y="0px" style="font-family:'SegoeUI', 'Segoe UI', sans-serif;font-size:100px;fill:rgb(31,41,55);">t</text>
            <text x="342.429px" y="0px" style="font-family:'SegoeUI', 'Segoe UI', sans-serif;font-size:100px;fill:rgb(31,41,55);">e</text>
            <text x="394.423px" y="0px" style="font-family:'SegoeUI', 'Segoe UI', sans-serif;font-size:100px;fill:rgb(31,41,55);">s</text>
            <text x="463.448px" y="0px" style="font-family:'SegoeUI', 'Segoe UI', sans-serif;font-size:100px;fill:rgb(31,41,55);">c</text>
            <text x="509.439px" y="0px" style="font-family:'SegoeUI', 'Segoe UI', sans-serif;font-size:100px;fill:rgb(31,41,55);">h</text>
            <text x="566.431px" y="0px" style="font-family:'SegoeUI', 'Segoe UI', sans-serif;font-size:100px;fill:rgb(31,41,55);">a</text>
            <text x="617.41px" y="0px" style="font-family:'SegoeUI', 'Segoe UI', sans-serif;font-size:100px;fill:rgb(31,41,55);">n</text>
            <text x="674.402px" y="0px" style="font-family:'SegoeUI', 'Segoe UI', sans-serif;font-size:100px;fill:rgb(31,41,55);">g</text>
            <text x="733.388px" y="0px" style="font-family:'SegoeUI', 'Segoe UI', sans-serif;font-size:100px;fill:rgb(31,41,55);">e</text>
            <text x="785.383px" y="0px" style="font-family:'SegoeUI', 'Segoe UI', sans-serif;font-size:100px;fill:rgb(31,41,55);">s</text>
        </g>
    </g>
    <g transform="matrix(1,0,0,1,479.329,183.125)">
        <path d="M194.33,84.838L0,84.838L0,0L194.33,0L194.33,84.838Z" style="fill:none;fill-rule:nonzero;"/>
        <clipPath id="_clip2">
            <path d="M194.33,84.838L0,84.838L0,0L194.33,0L194.33,84.838Z" clip-rule="nonzero"/>
        </clipPath>
        <g clip-path="url(#_clip2)">
            <g transform="matrix(0.0202361,0,0,0.0201571,0.229343,0.22888)">
                <path d="M4513,2612C4513,2506 4475,2432 4356,2432C4251,2432 4189,2489 4189,2597C4189,2881 4667,2711 4667,3081C4667,3315 4496,3382 4352,3382C4116,3382 4046,3261 4046,3046L4170,3046C4170,3159 4177,3281 4360,3281C4384,3282 4407,3278 4429,3269C4451,3260 4471,3247 4487,3230C4504,3214 4517,3194 4525,3172C4533,3150 4537,3126 4536,3103C4536,2816 4058,2982 4058,2611C4058,2517 4097,2332 4354,2332C4547,2332 4635,2428 4637,2614L4513,2612Z" style="fill-rule:nonzero;"/>
            </g>
            <g transform="matrix(0.0202361,0,0,0.0201571,0.229343,0.22888)">
                <path d="M5001,2796L5063,2796C5170,2796 5216,2720 5216,2619C5216,2527 5182,2452 5086,2452C4954,2452 4941,2574 4941,2647L4817,2647C4817,2475 4898,2358 5083,2358C5293,2358 5341,2507 5341,2619C5341,2719 5290,2808 5185,2834L5185,2837C5299,2859 5371,2932 5371,3071C5371,3254 5279,3381 5086,3381C4817,3381 4801,3146 4801,3102L4801,3089L4925,3089C4925,3181 4970,3288 5085,3288C5158,3288 5244,3251 5244,3081C5244,2963 5187,2889 5063,2889L4999,2889L5001,2796Z" style="fill-rule:nonzero;"/>
            </g>
        </g>
        <rect x="0.229" y="2.164" width="194.101" height="80.951" style="fill:none;fill-rule:nonzero;"/>
        <clipPath id="_clip3">
            <rect x="0.229" y="2.164" width="194.101" height="80.951" clip-rule="nonzero"/>
        </clipPath>
        <g clip-path="url(#_clip3)">
            <g transform="matrix(0.0202361,0,0,0.0201571,0.229343,0.22888)">
                <path d="M1042,392C1245,290 1447,188 1650,88C1652,425 1650,763 1650,1100C1452,1144 1257,1200 1059,1243L1086,1261L1044,1256C1040,1162 1044,1068 1042,974L1042,392Z" style="fill:rgb(140,50,35);fill-rule:nonzero;"/>
            </g>
            <g transform="matrix(0.0202361,0,0,0.0201571,0.229343,0.22888)">
                <path d="M1650,88C1853,190 2056,291 2259,393L2259,973C2258,1063 2259,1153 2259,1243L2246,1247C2048,1197 1850,1146 1651,1100C1650,763 1652,425 1650,88Z" style="fill:rgb(225,83,67);fill-rule:nonzero;"/>
            </g>
        </g>
        <path d="M194.33,84.838L0,84.838L0,0L194.33,0L194.33,84.838Z" style="fill:none;fill-rule:nonzero;"/>
        <clipPath id="_clip4">
            <path d="M194.33,84.838L0,84.838L0,0L194.33,0L194.33,84.838Z" clip-rule="nonzero"/>
        </clipPath>
        <g clip-path="url(#_clip4)">
            <g transform="matrix(0.0202361,0,0,0.0201571,0.229343,0.22888)">
                <path d="M-8,916C82,872 171,825 262,782C261,1654 261,2525 262,3396C171,3355 83,3308 -7,3264C-7,2482 -8,1699 -8,916" style="fill:rgb(140,50,35);fill-rule:nonzero;"/>
            </g>
            <g transform="matrix(0.0202361,0,0,0.0201571,0.229343,0.22888)">
                <path d="M262,782C521,849 783,908 1043,974C1044,1068 1040,1163 1045,1257L1086,1261C1275,1292 1461,1332 1649,1361C1651,1437 1651,1513 1649,1589C1448,1612 1245,1637 1043,1665C1043,1950 1044,2236 1043,2521C1244,2552 1448,2574 1650,2599C1654,2674 1651,2749 1651,2824C1448,2859 1246,2897 1044,2935L1044,3206C782,3271 521,3331 261,3396C262,2525 263,1654 262,782Z" style="fill:rgb(225,83,67);fill-rule:nonzero;"/>
            </g>
            <g transform="matrix(0.0202361,0,0,0.0201571,0.229343,0.22888)">
                <path d="M2259,973C2519,909 2780,846 3041,783C3040,1630 3040,2476 3041,3322C3041,3346 3038,3370 3036,3394C2777,3333 2518,3270 2259,3207C2258,3116 2259,3026 2259,2935C2056,2897 1854,2859 1650,2824C1650,2749 1653,2674 1649,2599C1447,2574 1244,2552 1042,2520C1044,2235 1042,1950 1042,1665C1245,1637 1448,1612 1650,1588C1651,1512 1651,1436 1650,1360C1820,1336 1989,1298 2159,1271C2189,1267 2218,1258 2246,1247L2259,1244C2258,1153 2258,1063 2259,973Z" style="fill:rgb(140,50,35);fill-rule:nonzero;"/>
            </g>
            <g transform="matrix(0.0202361,0,0,0.0201571,0.229343,0.22888)">
                <path d="M3041,783C3130,829 3220,872 3310,918C3309,1700 3309,2482 3310,3263C3218,3309 3126,3353 3036,3401L3036,3395C3038,3370 3040,3346 3041,3322L3041,783Z" style="fill:rgb(225,83,67);fill-rule:nonzero;"/>
            </g>
            <g transform="matrix(0.0202361,0,0,0.0201571,0.229343,0.22888)">
                <path d="M1059,1243C1257,1200 1453,1144 1651,1100C1850,1146 2048,1197 2245,1247C2217,1258 2188,1266 2158,1271C1988,1298 1820,1336 1649,1360C1461,1331 1274,1291 1086,1260C1077,1255 1068,1249 1059,1243" style="fill:rgb(94,31,25);fill-rule:nonzero;"/>
            </g>
            <g transform="matrix(0.0202361,0,0,0.0201571,0.229343,0.22888)">
                <path d="M1652,1588C1854,1613 2057,1637 2258,1665L2258,2520C2056,2550 1853,2575 1650,2598C1653,2261 1648,1925 1652,1588Z" style="fill:rgb(225,83,67);fill-rule:nonzero;"/>
            </g>
            <g transform="matrix(0.0202361,0,0,0.0201571,0.229343,0.22888)">
                <path d="M1043,2935C1245,2896 1447,2858 1650,2824C1854,2859 2056,2897 2259,2935C2056,2985 1854,3039 1650,3085C1447,3037 1245,2986 1043,2935Z" style="fill:rgb(242,176,169);fill-rule:nonzero;"/>
            </g>
            <g transform="matrix(0.0202361,0,0,0.0201571,0.229343,0.22888)">
                <path d="M1042,3207C1043,3116 1042,3026 1042,2936C1244,2987 1447,3038 1649,3086C1652,3423 1650,3760 1649,4097C1446,3998 1244,3895 1041,3794C1042,3598 1042,3402 1042,3207" style="fill:rgb(140,50,35);fill-rule:nonzero;"/>
            </g>
            <g transform="matrix(0.0202361,0,0,0.0201571,0.229343,0.22888)">
                <path d="M1650,3086C1854,3039 2056,2985 2259,2935C2258,3026 2258,3116 2259,3207C2260,3402 2259,3597 2259,3793C2056,3894 1853,3995 1651,4097C1651,3760 1652,3423 1650,3086" style="fill:rgb(225,83,67);fill-rule:nonzero;"/>
            </g>
            <g transform="matrix(0.0202361,0,0,0.0201571,0.229343,0.22888)">
                <path d="M4446,1023C4283,1023 4102,1086 4062,1293C4061,1297 4061,1301 4062,1305C4063,1309 4064,1313 4066,1316C4068,1319 4071,1322 4074,1324C4077,1326 4081,1328 4085,1329L4088,1329L4256,1349C4263,1347 4270,1342 4275,1336C4280,1329 4283,1321 4283,1313C4289,1282 4307,1254 4332,1235C4358,1215 4390,1206 4422,1208C4440,1208 4458,1211 4475,1219C4492,1227 4506,1238 4518,1253C4537,1293 4545,1337 4540,1381L4540,1405C4429,1410 4320,1430 4215,1466C4159,1489 4111,1530 4079,1581C4046,1633 4030,1693 4032,1754C4032,1938 4147,2029 4289,2029C4343,2033 4398,2023 4447,2000C4497,1978 4540,1944 4574,1902C4599,1945 4631,1984 4670,2016C4676,2020 4684,2021 4691,2020C4698,2019 4705,2016 4710,2012C4746,1980 4806,1923 4842,1893C4849,1887 4852,1878 4852,1869C4852,1860 4849,1851 4842,1845C4800,1801 4777,1743 4776,1682L4776,1415C4776,1300 4785,1191 4702,1110C4630,1051 4539,1020 4446,1023ZM6702,1023C6539,1023 6358,1086 6318,1293C6317,1297 6317,1301 6318,1305C6318,1309 6320,1312 6322,1316C6324,1319 6327,1322 6330,1324C6333,1326 6337,1328 6340,1329L6343,1329L6512,1349C6520,1347 6528,1342 6533,1336C6538,1330 6541,1322 6541,1313C6548,1282 6565,1254 6591,1234C6616,1215 6648,1206 6680,1208C6698,1207 6717,1211 6734,1219C6750,1227 6765,1238 6776,1253C6795,1293 6801,1337 6796,1381L6796,1405C6686,1410 6577,1430 6473,1466C6417,1489 6369,1530 6336,1581C6304,1633 6287,1693 6290,1754C6290,1938 6404,2029 6547,2029C6601,2032 6655,2023 6705,2000C6754,1978 6797,1944 6831,1902C6856,1945 6888,1984 6927,2016C6933,2020 6941,2021 6948,2020C6955,2019 6962,2016 6967,2012C7003,1980 7063,1923 7099,1893C7105,1887 7109,1878 7109,1869C7109,1860 7105,1852 7099,1845C7058,1801 7035,1742 7035,1682L7035,1415C7035,1300 7042,1191 6959,1110C6887,1050 6796,1019 6702,1023ZM5433,1032C5382,1031 5332,1046 5291,1077C5250,1107 5221,1150 5207,1199L5207,1081C5206,1072 5203,1065 5197,1059C5191,1053 5183,1049 5175,1049L5015,1049C5007,1049 4998,1053 4992,1059C4986,1065 4983,1073 4982,1082L4982,1989C4983,1997 4987,2004 4993,2010C4998,2016 5006,2020 5014,2020L5186,2020C5195,2020 5203,2017 5210,2010C5216,2004 5219,1996 5220,1987L5220,1507C5220,1402 5214,1259 5338,1259C5462,1259 5443,1407 5443,1507L5443,1987C5444,1996 5447,2004 5453,2010C5459,2016 5466,2020 5475,2021L5647,2021C5656,2020 5664,2017 5670,2011C5677,2005 5680,1996 5680,1987L5680,1507C5676,1449 5682,1391 5696,1335C5703,1314 5716,1295 5734,1281C5752,1268 5774,1259 5796,1258C5820,1255 5843,1261 5862,1276C5881,1290 5893,1311 5896,1335C5902,1392 5904,1450 5901,1507L5901,1987C5902,1996 5905,2004 5911,2010C5917,2016 5924,2020 5933,2021L6105,2021C6113,2020 6122,2017 6128,2011C6134,2005 6138,1996 6138,1987L6138,1412C6138,1316 6147,1204 6093,1127C6065,1092 6029,1066 5987,1050C5945,1034 5900,1029 5856,1036C5812,1043 5771,1062 5737,1091C5702,1119 5676,1156 5661,1198C5608,1085 5541,1032 5433,1032ZM8365,1032C8117,1032 7977,1251 7977,1533C7977,1815 8114,2039 8365,2039C8605,2039 8758,1818 8758,1542C8758,1257 8619,1032 8361,1032L8365,1032ZM9348,1032C9229,1032 9161,1089 9113,1215L9113,1077C9111,1070 9107,1064 9101,1059C9095,1055 9088,1053 9081,1052L8922,1052C8913,1052 8905,1055 8899,1061C8893,1066 8889,1074 8888,1082L8888,1987C8889,1996 8892,2004 8898,2010C8904,2016 8912,2020 8920,2021L9093,2021C9101,2020 9110,2017 9116,2011C9122,2005 9125,1996 9126,1987L9126,1500C9123,1441 9133,1382 9155,1327C9162,1308 9174,1290 9191,1277C9207,1265 9227,1257 9248,1254C9367,1254 9355,1398 9355,1498L9355,1991C9356,1998 9360,2006 9366,2011C9371,2016 9379,2019 9387,2020L9559,2020C9567,2020 9575,2017 9581,2011C9587,2006 9591,1999 9592,1991L9592,1421C9592,1333 9592,1211 9548,1139C9527,1105 9497,1077 9462,1058C9427,1039 9387,1030 9347,1031L9348,1032ZM7278,1047C7270,1047 7262,1050 7256,1056C7250,1062 7247,1070 7247,1079L7247,1209C7246,1217 7249,1225 7255,1232C7260,1238 7268,1241 7276,1242L7574,1242L7237,1741C7221,1767 7212,1798 7213,1829L7213,1961C7213,1966 7214,1971 7216,1976C7218,1980 7221,1984 7225,1987C7229,1990 7234,1992 7239,1992C7244,1993 7249,1992 7253,1991C7345,1942 7448,1916 7552,1916C7656,1916 7759,1942 7851,1991C7856,1992 7861,1993 7866,1993C7871,1992 7876,1990 7880,1987C7885,1985 7888,1981 7891,1976C7893,1971 7894,1966 7894,1961L7894,1825C7893,1815 7890,1805 7885,1796C7879,1788 7871,1781 7862,1777C7763,1723 7652,1698 7540,1704L7833,1272C7854,1249 7869,1221 7876,1191L7876,1081C7877,1072 7874,1064 7868,1058C7863,1052 7855,1048 7847,1047L7278,1047ZM8364,1219C8391,1218 8417,1226 8438,1242C8459,1258 8473,1281 8479,1307C8498,1385 8506,1466 8503,1547C8503,1662 8497,1856 8364,1856C8232,1856 8231,1615 8231,1506C8231,1396 8236,1218 8361,1218L8364,1219ZM4537,1548L4537,1586C4544,1650 4533,1715 4506,1773C4495,1796 4479,1816 4458,1830C4437,1844 4412,1853 4387,1854C4321,1854 4282,1801 4282,1724C4280,1575 4414,1549 4538,1549L4537,1548ZM6794,1548L6794,1586C6800,1651 6789,1716 6762,1774C6751,1797 6735,1817 6714,1831C6693,1845 6669,1854 6643,1855C6577,1855 6538,1802 6538,1725C6538,1575 6669,1548 6793,1548L6794,1548Z" style="fill:rgb(32,28,29);fill-rule:nonzero;"/>
            </g>
        </g>
    </g>
</svg>
