<svg style="margin:50px 10px" width="900px" height="600px" viewBox="0 0 900 600" version="1.1" xmlns="http://www.w3.org/2000/svg" xmlns:xlink="http://www.w3.org/1999/xlink">
    <title>Add ServiceStack Reference</title>
    <defs>
        <linearGradient x1="-11.3342598%" y1="86.4378991%" x2="68.8486982%" y2="6.25496469%" id="linearGradient-1">
            <stop stop-color="#C757BC" offset="10.753%"></stop>
            <stop stop-color="#D0609A" offset="21.383%"></stop>
            <stop stop-color="#E1725C" offset="42.537%"></stop>
            <stop stop-color="#EE7E2F" offset="60.485%"></stop>
            <stop stop-color="#F58613" offset="74.303%"></stop>
            <stop stop-color="#F88909" offset="82.323%"></stop>
        </linearGradient>
        <linearGradient x1="35.2703502%" y1="129.24133%" x2="77.5100874%" y2="45.1363711%" id="linearGradient-2">
            <stop stop-color="#0095D5" offset="9.677%"></stop>
            <stop stop-color="#238AD9" offset="30.073%"></stop>
            <stop stop-color="#557BDE" offset="62.106%"></stop>
            <stop stop-color="#7472E2" offset="86.432%"></stop>
            <stop stop-color="#806EE3" offset="100%"></stop>
        </linearGradient>
        <linearGradient x1="-9.1352511%" y1="58.6868298%" x2="64.4007732%" y2="-11.2395563%" id="linearGradient-3">
            <stop stop-color="#0095D5" offset="9.677%"></stop>
            <stop stop-color="#238AD9" offset="30.073%"></stop>
            <stop stop-color="#557BDE" offset="62.106%"></stop>
            <stop stop-color="#7472E2" offset="86.432%"></stop>
            <stop stop-color="#806EE3" offset="100%"></stop>
        </linearGradient>
    </defs>
    <g id="Page-1" stroke="none" stroke-width="1" fill="none" fill-rule="evenodd">
        <style type="text/css">
        <![CDATA[
            text{font-family:-apple-system, BlinkMacSystemFont, "Segoe UI", "Helvetica Neue"}
            a{cursor:pointer;}
            a:hover{opacity:.7}
        ]]>
        </style>    
        <g id="add-servicestack-reference">
            <g id="logo" transform="translate(272.000000, 258.000000)" fill="#231F20" fill-rule="nonzero" stroke-width="0">
                <g id="svg_13">
                    <g id="svg_20">
                        <path d="M48.5049398,84.0618495 C93.4373891,89.6836208 199.031406,140.444901 215.69546,211.929583 L0.107676118,211.929583 C54.8295745,207.465242 101.576928,136.421487 48.5049398,84.0618495 Z M66.1039407,0.286434316 C83.8679349,19.9075141 92.3374488,46.5282537 91.6224965,73.9206175 C137.214908,92.4945065 205.631037,142.098367 220.095221,211.929583 L272.892224,211.929583 C250.508496,92.8251931 122.640732,8.82932021 66.1039407,0.286434316 Z" id="svg_19"></path>
                    </g>
                </g>
            </g>
            <g id="vb.net" transform="translate(731.000000, 285.000000)" font-weight="normal">
                <a href="/vbnet-add-servicestack-reference">
                <g id="Group">
                    <text id=".net" fill="#231F20" font-size="32">
                        <tspan x="15" y="59">.net</tspan>
                    </text>
                    <text id="VB" fill="#231F20" font-size="36" font-weight="900">
                        <tspan x="0" y="35">VB</tspan>
                    </text>
                </g>
                </a>
            </g>
            <g id="fsharp" transform="translate(730.000000, 199.000000)" fill-rule="nonzero">
                <g id="Group">
                    <a href="/fsharp-add-servicestack-reference">
                    <rect x="0" y="0" width="60" height="60" fill="rgba(0,0,0,0)"><title>F#</title></rect>
                    <polygon id="Shape" fill="#378BBA" points="0 28.5245902 28.5245902 0 28.5245902 14.2622951 14.2622951 28.5245902 28.5245902 42.7868852 28.5245902 57.0491803"></polygon>
                    <polygon id="Shape" fill="#378BBA" points="18.6885246 29.0163934 28.5245902 18.6885246 28.5245902 39.3442623"></polygon>
                    <polygon id="Shape" fill="#30B9DB" points="60 28.5245902 30.4918033 0 30.4918033 14.2622951 44.7371396 28.5245902 30.4918033 42.7868852 30.4918033 57.0491803"></polygon>
                    </a>
                </g>
            </g>
            <g id="kotlin" transform="translate(560.000000, 107.000000)" fill-rule="nonzero">
                <g id="Group">
                    <a href="/kotlin-add-servicestack-reference">
                    <rect x="0" y="0" width="170" height="50" fill="rgba(0,0,0,0)"><title>Kotlin</title></rect>
                    <g id="XMLID_10_" transform="translate(46.000000, 0.000000)" fill="#231F20">
                        <g id="Group">
                            <polygon id="XMLID_128_" points="0.284403466 1.45565333 7.79857307 1.45565333 7.79856636 16.3019833 21.6557288 1.45565333 30.7312864 1.45565333 16.8252982 15.8652467 31.3655934 35.41781 22.3388616 35.4178067 11.7507518 20.95986 7.79856636 25.0351667 7.79855966 35.41781 0.284386705 35.41781"></polygon>
                            <path d="M27.372232,22.5605867 L27.372232,22.46388 C27.3722387,14.9921667 33.4226753,8.92737 41.5711586,8.92737 C49.6708328,8.92737 55.6724335,14.89507 55.6724335,22.3667833 L55.6724335,22.46388 C55.6724335,29.9355967 49.6219936,36 41.4735002,36 C33.3738394,36 27.372232,30.0322967 27.372232,22.5605867 Z M48.3533628,22.5605867 L48.3533628,22.46388 C48.3533628,18.6307333 45.5721665,15.2830667 41.4735103,15.2830667 C37.228581,15.2830667 34.6913061,18.5336367 34.6913061,22.3667833 L34.6913061,22.46388 C34.6912994,26.29664 37.4724957,29.6443067 41.5711586,29.6443067 C45.816088,29.6443067 48.3533628,26.3937367 48.3533628,22.5605867 Z" id="XMLID_125_"></path>
                            <path d="M57.7197067,28.0431967 L57.7197067,15.7198033 L54.5969406,15.7198033 L54.5969406,9.41246333 L57.7197067,9.41246333 L57.7197168,2.76548333 L65.1364358,2.76548333 L65.1364358,9.41246333 L71.2843196,9.41246333 L71.2843196,15.7198033 L65.1364257,15.7198033 L65.1364257,26.83047 C65.1364257,28.5282867 65.86819,29.3534067 67.5272231,29.3534067 C68.8935122,29.3534067 70.1133272,29.0137667 71.1866612,28.43119 L71.1866612,34.3505367 C69.6252798,35.2723633 67.8199737,35.85455 65.331518,35.85455 C60.7938347,35.8545533 57.7196966,34.05925 57.7197067,28.0431967 Z" id="XMLID_123_"></path>
                            <polygon id="XMLID_121_" points="73.4133212 0 80.8298458 0 80.8298257 35.4178167 73.4133111 35.4178167"></polygon>
                            <path d="M83.5106818,0 L91.3174109,0 L91.3174109,6.54988667 L83.5106818,6.54988667 L83.5106818,0 Z M83.7059684,9.41246333 L91.1225031,9.41246333 L91.1225031,35.4178167 L83.7059684,35.4178167 L83.7059684,9.41246333 Z" id="XMLID_118_"></path>
                            <path d="M93.9438529,9.41246667 L101.360377,9.41246667 L101.360377,13.0997767 C103.06824,10.9164833 105.263942,8.92738 109.020824,8.92738 C114.63224,8.92738 117.901276,12.61469 117.901276,18.58239 L117.901276,35.4178267 L110.484751,35.4178233 L110.484751,20.91113 C110.484751,17.4180133 108.825527,15.62271 105.995706,15.62271 C103.165486,15.62271 101.360377,17.41801 101.360377,20.9111267 L101.360367,35.4178167 L93.9438428,35.4178267 L93.9438529,9.41246667 Z" id="XMLID_116_"></path>
                        </g>
                    </g>
                    <g transform="translate(0.000000, 1.000000)">
                        <polygon id="Shape" fill="url(#linearGradient-1)" points="17.4362864 0.10417534 0.0566354369 17.8587872 0.0566354369 33.7309412 17.4112291 16.8426361 34.6724136 0.10417534"></polygon>
                        <polygon id="XMLID_11_" fill="url(#linearGradient-2)" points="0.0566456311 33.7309577 17.4112427 16.8426988 34.6724476 33.7309577"></polygon>
                        <polygon id="Shape" fill="url(#linearGradient-3)" points="0.0566524272 0.104198447 17.4363034 0.104198447 0.0566524272 17.858807"></polygon>
                    </g>
                    </a>
                </g>
            </g>
            <g id="csharp" transform="translate(255.000000, 0.000000)" font-size="72" font-weight="normal">
                <g id="Group">
                    <a href="/csharp-add-servicestack-reference">
                    <text id="C#" fill="#6A0083">
                        <tspan x="0" y="69">C#</tspan>
                    </text>
                    </a>
                </g>
            </g>
            <g id="swift" transform="translate(396.000000, 16.000000)" fill-rule="nonzero">
                <a href="/swift-add-servicestack-reference" title="Swift">
                <rect x="0" y="0" width="150" height="50" fill="rgba(0,0,0,0)"><title>Swift</title></rect>
                    <g id="svg_222">
                        <g id="svg_223">
                            <path d="M39.4554012,10.9370903 C39.4554012,10.5420442 39.4554012,10.146998 39.4554012,9.75195183 C39.4554012,8.89601845 39.3895602,8.04008507 39.2578781,7.1841517 C39.1261961,6.32821832 38.8628319,5.53812597 38.4677858,4.74803363 C38.0727396,3.95794128 37.5460114,3.29953099 36.9534421,2.6411207 C36.3608728,2.04855144 35.6366215,1.52182321 34.8465292,1.12677703 C34.0564368,0.731730859 33.2663445,0.468366744 32.4104111,0.336684686 C31.5544777,0.205002628 30.6985444,0.139161599 29.842611,0.139161599 C29.4475648,0.139161599 29.0525186,0.139161599 28.6574725,0.139161599 C28.1965853,0.139161599 27.735698,0.139161599 27.2748108,0.139161599 L16.9377693,0.139161599 L12.6581024,0.139161599 C12.1972152,0.139161599 11.736328,0.139161599 11.2754408,0.139161599 C10.8803946,0.139161599 10.4853485,0.139161599 10.0903023,0.139161599 C9.8927792,0.139161599 9.62941509,0.139161599 9.431892,0.139161599 C8.77348171,0.139161599 8.11507142,0.205002628 7.52250216,0.336684686 C6.86409187,0.468366744 6.27152261,0.600048801 5.67895335,0.863412917 C5.48143026,0.929253946 5.28390718,1.060936 5.08638409,1.12677703 C4.49381483,1.39014115 3.9670866,1.78518732 3.50619939,2.1802335 C3.37451734,2.31191555 3.17699425,2.44359761 3.04531219,2.6411207 C2.45274293,3.23368996 1.9260147,3.95794128 1.53096853,4.74803363 C1.13592235,5.53812597 0.872558236,6.32821832 0.740876178,7.1841517 C0.60919412,8.04008507 0.543353091,8.89601845 0.543353091,9.75195183 C0.543353091,10.146998 0.543353091,10.5420442 0.543353091,10.9370903 C0.543353091,11.3979775 0.543353091,11.8588648 0.543353091,12.319752 L0.543353091,18.7063318 L0.543353091,27.0023014 C0.543353091,27.4631886 0.543353091,27.9240758 0.543353091,28.384963 C0.543353091,28.7800092 0.543353091,29.1750554 0.543353091,29.5701015 C0.543353091,30.4260349 0.60919412,31.2819683 0.740876178,32.1379017 C0.872558236,32.993835 1.13592235,33.7839274 1.53096853,34.5740197 C1.9260147,35.3641121 2.45274293,36.0225224 3.04531219,36.6809327 C3.63788145,37.2735019 4.36213277,37.8002302 5.15222512,38.1952763 C5.94231747,38.5903225 6.73240981,38.8536866 7.58834319,38.9853687 C8.44427657,39.1170507 9.30020994,39.1828918 10.1561433,39.1828918 C10.5511895,39.1828918 10.9462357,39.1828918 11.3412818,39.1828918 C11.802169,39.1828918 12.2630562,39.1828918 12.7239434,39.1828918 L27.3406519,39.1828918 C27.8015391,39.1828918 28.2624263,39.1828918 28.7233135,39.1828918 C29.1183597,39.1828918 29.5134058,39.1828918 29.908452,39.1828918 C30.7643854,39.1828918 31.6203188,39.1170507 32.4762521,38.9853687 C33.3321855,38.8536866 34.1222779,38.5903225 34.9123702,38.1952763 C35.7024626,37.8002302 36.3608728,37.2735019 37.0192831,36.6809327 C37.6118524,36.0883634 38.1385806,35.3641121 38.5336268,34.5740197 C38.928673,33.7839274 39.1920371,32.993835 39.3237191,32.1379017 C39.4554012,31.2819683 39.5212422,30.4260349 39.5212422,29.5701015 C39.5212422,29.1750554 39.5212422,28.7800092 39.5212422,28.384963 C39.5212422,27.9240758 39.5212422,27.4631886 39.5212422,27.0023014 L39.5212422,12.385593 C39.4554012,11.8588648 39.4554012,11.3979775 39.4554012,10.9370903 Z" id="svg_224" fill="#F05138"></path>
                            <path d="M31.3569546,24.2369782 C31.3569546,24.2369782 31.3569546,24.2369782 31.3569546,24.2369782 C31.4227957,24.1052961 31.4227957,23.907773 31.4886367,23.776091 C33.1346624,17.3236702 29.1183597,9.6861108 22.4684157,5.66980803 C25.431262,9.62026977 26.6822416,14.4925059 25.5629441,18.7063318 C25.431262,19.1013779 25.365421,19.4305831 25.1678979,19.8256293 C25.0362159,19.7597882 24.8386928,19.6281062 24.5753287,19.4964241 C24.5753287,19.4964241 17.9253847,15.3484393 10.6828715,8.1059261 C10.4853485,7.90840301 14.5674923,13.8999366 19.1105233,18.7063318 C16.9377693,17.5211932 10.9462357,13.1098443 7.12745599,9.62026977 C7.58834319,10.4103621 8.18091245,11.1346134 8.77348171,11.8588648 C11.9338511,15.8751675 16.0818359,20.8790857 21.0857541,24.6978654 C17.5961796,26.8047783 12.6581024,27.0023014 7.72002525,24.6978654 C6.53488673,24.1052961 5.3497482,23.4468858 4.29629174,22.6567935 C6.40320467,26.014686 9.56357406,28.8458502 13.5140358,30.557717 C18.1887488,32.5329478 22.7976209,32.4012658 26.2213544,30.623558 C26.2213544,30.623558 26.2871954,30.623558 26.2871954,30.623558 C26.4188775,30.557717 26.5505595,30.4918759 26.6822416,30.3601939 C28.3282673,29.5042605 31.6203188,28.6483271 33.3980265,32.0720606 C33.7930727,32.796312 34.7148471,28.319122 31.3569546,24.2369782 Z" id="svg_228" fill="#FFFFFF"></path>
                        </g>
                        <g id="svg_229" transform="translate(51.356003, 5.925693)" fill="#000000">
                            <path d="M1.13592235,29.4384195 C1.99185573,30.0309887 2.97947116,30.4918759 4.09876865,30.8869221 C5.21806615,31.2161273 6.40320467,31.4136503 7.65418422,31.4136503 C9.8927792,31.4136503 11.670487,30.8210811 12.9873076,29.7017836 C14.2382871,28.5166451 14.8966974,27.0023014 14.8966974,25.0929116 C14.8966974,23.3810448 14.4358102,21.9983832 13.5140358,20.8790857 C12.5922614,19.8256293 11.0120767,18.8380138 8.83932274,17.9162394 C6.4690457,17.060306 4.62549689,16.0068496 3.24283528,14.690029 C1.86017367,13.3732084 1.13592235,11.6613417 1.13592235,9.55442874 C1.13592235,8.43513125 1.33344544,7.38167478 1.79433264,6.45990038 C2.25521984,5.53812597 2.8477891,4.6821926 3.57204042,4.02378231 C4.29629174,3.36537202 5.28390718,2.83864379 6.33736364,2.44359761 C7.3908201,2.04855144 8.57595862,1.85102835 9.82693817,1.85102835 C11.2754408,1.85102835 12.5264204,1.98271041 13.5140358,2.31191555 C14.5016512,2.6411207 15.2917436,2.90448481 15.7526308,3.23368996 L14.9625384,5.01139774 C14.5674923,4.6821926 13.8432409,4.41882848 12.9873076,4.08962334 C12.0655332,3.76041819 11.0120767,3.62873613 9.76109714,3.62873613 C8.57595862,3.62873613 7.52250216,3.82625922 6.73240981,4.15546436 C5.87647644,4.48466951 5.21806615,4.94555671 4.75717894,5.47228494 C4.23045071,5.99901318 3.90124557,6.59158244 3.70372248,7.24999273 C3.50619939,7.90840301 3.37451734,8.50097228 3.37451734,9.15938256 C3.37451734,10.8712493 3.90124557,12.1880699 4.888861,13.1756853 C5.87647644,14.1633008 7.45666113,15.0850752 9.62941509,15.9410085 C10.8803946,16.4677368 11.9338511,16.994465 12.9214665,17.5870343 C13.8432409,18.1796035 14.6333333,18.7721728 15.2917436,19.4964241 C15.9501539,20.2206754 16.4110411,20.9449267 16.7402462,21.8667012 C17.0694514,22.7226345 17.2011334,23.71025 17.2011334,24.8295475 C17.2011334,25.9488449 17.0036103,27.0023014 16.6085642,27.9899168 C16.213518,28.9775323 15.6209487,29.8993067 14.8308564,30.689399 C14.040764,31.4794914 13.0531486,32.0720606 11.8680101,32.5329478 C10.6828715,32.993835 9.30020994,33.1913581 7.72002525,33.1913581 C7.06161496,33.1913581 6.40320467,33.1255171 5.74479438,33.0596761 C5.08638409,32.927994 4.4279738,32.796312 3.76956351,32.5987889 C3.11115322,32.4012658 2.51858396,32.2037427 1.99185573,31.9403786 C1.4651275,31.6770145 0.938399265,31.4136503 0.543353091,31.1502862 L1.13592235,29.4384195 Z" id="svg_230"></path>
                            <path d="M20.9540721,11.0687724 L24.5094876,23.3810448 C24.9045338,24.6320244 25.2337389,25.8171629 25.4971031,26.9364604 C25.8263082,28.0557579 26.0896723,29.1092143 26.2871954,30.1626708 L26.4188775,30.1626708 C26.6822416,29.1092143 27.0114467,28.0557579 27.3406519,26.9364604 C27.735698,25.8171629 28.0649032,24.6320244 28.5257904,23.3152038 L32.8054573,11.0029314 L34.7806881,11.0029314 L38.8628319,23.1835217 C39.2578781,24.5003423 39.6529243,25.7513219 40.0479705,26.8706194 C40.4430166,27.9899168 40.7063808,29.1092143 40.9697449,30.0968298 L41.1014269,30.0968298 C41.29895,29.0433733 41.5623141,27.9899168 41.8915193,26.8706194 C42.2207244,25.8171629 42.5499296,24.5661833 43.0108168,23.1835217 L46.8295964,10.9370903 L49.0023504,10.9370903 L41.8915193,32.6646299 L40.0479705,32.6646299 L36.0316677,20.5498806 C35.5707805,19.23306 35.1757343,18.0479215 34.7806881,16.862783 C34.385642,15.6776444 34.1222779,14.4925059 33.8589137,13.2415264 L33.7930727,13.2415264 C33.4638676,14.5583469 33.0688214,15.8093265 32.7396162,16.994465 C32.3445701,18.1796035 31.9495239,19.4305831 31.4886367,20.6815626 L27.2089698,32.7304709 L25.365421,32.7304709 L18.7813181,11.0029314 L20.9540721,11.0687724 Z" id="svg_231"></path>
                            <path d="M52.689448,4.48466951 C52.689448,3.95794128 52.8869711,3.5628951 53.2161763,3.16784893 C53.5453814,2.77280276 54.0062686,2.6411207 54.5329968,2.6411207 C55.0597251,2.6411207 55.4547712,2.83864379 55.8498174,3.16784893 C56.1790226,3.49705408 56.3765456,3.95794128 56.3765456,4.48466951 C56.3765456,5.01139774 56.1790226,5.40644391 55.8498174,5.80149009 C55.4547712,6.13069523 55.0597251,6.32821832 54.5329968,6.32821832 C54.0062686,6.32821832 53.6112224,6.13069523 53.2161763,5.80149009 C52.8869711,5.40644391 52.689448,5.01139774 52.689448,4.48466951 Z M53.4795404,32.796312 L53.4795404,11.0687724 L55.5864533,11.0687724 L55.5864533,32.796312 L53.4795404,32.796312 Z" id="svg_232"></path>
                            <path d="M64.2774691,32.796312 L64.2774691,12.7806392 L61.1829408,12.7806392 L61.1829408,11.1346134 L64.2774691,11.1346134 L64.2774691,9.88363388 C64.2774691,8.50097228 64.4091512,7.24999273 64.6066743,6.0648542 C64.8700384,4.87971568 65.2650845,3.89210025 65.7918128,3.03616687 C66.318541,2.1802335 67.1086334,1.52182321 67.9645667,0.995094975 C68.8863411,0.468366744 70.0056386,0.270843657 71.3224592,0.270843657 C72.0467105,0.270843657 72.6392798,0.336684686 73.166008,0.468366744 C73.6927363,0.600048801 74.1536235,0.797571888 74.4828286,0.995094975 L73.8244183,2.6411207 C73.4952132,2.50943864 73.166008,2.37775658 72.7709618,2.24607453 C72.3759157,2.11439247 71.8491874,2.04855144 71.1907772,2.04855144 C70.1373207,2.04855144 69.3472283,2.24607453 68.7546591,2.70696173 C68.1620898,3.1020079 67.6353616,3.69457716 67.3061564,4.41882848 C66.9769513,5.1430798 66.7135872,5.93317215 66.5819051,6.92078758 C66.4502231,7.90840301 66.384382,8.89601845 66.384382,9.88363388 L66.384382,11.1346134 L76.7214236,11.1346134 L76.7214236,12.7806392 L66.4502231,12.7806392 L66.4502231,32.796312 L64.2774691,32.796312 Z" id="svg_233"></path>
                            <path d="M78.2357673,6.26237729 L78.2357673,11.1346134 L84.2273009,11.1346134 L84.2273009,12.7806392 L78.2357673,12.7806392 L78.2357673,26.9364604 C78.2357673,28.384963 78.4991314,29.5042605 78.9600186,30.2943529 C79.4209058,31.0844452 80.2109981,31.4794914 81.3961366,31.4794914 C81.9228649,31.4794914 82.3837521,31.4794914 82.7787982,31.4136503 C83.1738444,31.3478093 83.5030496,31.2819683 83.7664137,31.2161273 L83.9639368,32.862153 C83.2396855,33.1913581 82.25207,33.3888812 81.0669315,33.3888812 C80.0793161,33.3888812 79.2233827,33.1913581 78.6308134,32.862153 C77.9724031,32.5329478 77.5115159,32.0720606 77.1164698,31.4794914 C76.7214236,30.8869221 76.4580595,30.1626708 76.3263774,29.3725785 C76.1946954,28.5166451 76.1288543,27.6607117 76.1288543,26.6730963 L76.1288543,12.9123212 L76.2605364,12.9123212 L76.2605364,11.2662955 L76.1288543,11.2662955 L76.1288543,7.24999273 L78.2357673,6.26237729 Z" id="svg_234"></path>
                        </g>
                    </g>
                </a>
            </g>
            <g id="typescript" transform="translate(62.000000, 107.000000)" fill="#007ACC" font-size="38" font-weight="normal">
                <a href="/typescript-add-servicestack-reference">
                <text id="svg_3" font-weight="300" fill="#007ACC">
                    <tspan x="82" y="37">Script</tspan>
                </text>
                <text id="svg_2" font-weight="400" fill="#007ACC">
                    <tspan x="0" y="37">Type</tspan>
                </text>
                </a>
            </g>
            <g id="java" transform="translate(0.000000, 190.000000)" fill-rule="nonzero">
                <a href="/java-add-servicestack-reference">
                <rect x="0" y="0" width="100" height="150" fill="rgba(0,0,0,0)"><title>Java</title></rect>
                <path d="M39.052226,43.940186 C43.479076,49.034146 37.889606,53.619096 37.889606,53.619096 C37.889606,53.619096 49.122536,47.817536 43.963026,40.556416 C39.144776,33.786976 35.452526,30.422486 55.452386,18.821296 C55.452386,18.821296 24.055706,26.664686 39.052226,43.940186" id="path254" fill="#F8971D" fill-rule="nonzero"></path>
                <path d="M43.962246,0.091256 C43.962246,0.091256 53.490766,9.621706 34.925386,24.280816 C20.038766,36.038186 31.530056,42.740156 34.921386,50.402306 C26.231626,42.560846 19.851646,35.660286 24.130026,29.234026 C30.407826,19.803836 47.810576,15.230456 43.962146,0.091256" id="path256" fill="#F8971D" fill-rule="nonzero"></path>
                <path d="M18.201126,140.2085 C17.534006,141.16868 16.616246,141.64684 15.447836,141.64684 C13.190066,141.64684 12.062146,140.11788 12.062146,137.05611 C12.062146,135.47702 12.374496,134.25848 13.001116,133.40434 C13.625816,132.55021 14.497296,132.12218 15.611726,132.12218 C16.699156,132.12218 17.503156,132.63119 18.023736,133.64535 L17.310356,134.27583 C16.909316,133.63571 16.386806,133.31565 15.748616,133.31565 C15.071866,133.31565 14.547426,133.63186 14.171456,134.26812 C13.797416,134.90245 13.610386,135.74695 13.610386,136.79582 C13.610386,139.22711 14.314136,140.4418 15.721626,140.4418 C16.386806,140.4418 16.996076,140.12174 17.543646,139.48355 L18.201126,140.2085 Z" id="path258" fill="#58839F" fill-rule="nonzero"></path>
                <path d="M25.067166,136.97436 C25.067166,135.65941 24.880146,134.69923 24.504176,134.09575 C24.159046,133.54047 23.613406,133.2609 22.874956,133.2609 C21.457826,133.2609 20.750226,134.42545 20.750226,136.75456 C20.750226,138.08878 20.937246,139.05667 21.313216,139.66016 C21.658346,140.21737 22.203986,140.49694 22.942436,140.49694 C24.359566,140.49694 25.067166,139.32082 25.067166,136.97436 M26.628906,136.71407 C26.628906,138.37606 26.268356,139.63317 25.547256,140.48344 C24.889786,141.26046 23.970096,141.64607 22.792046,141.64607 C21.613996,141.64607 20.732866,141.3048 20.146736,140.62034 C19.508546,139.8626 19.188486,138.66913 19.188486,137.04184 C19.188486,135.38948 19.549036,134.13817 20.270136,133.28789 C20.929536,132.51088 21.847296,132.12333 23.025346,132.12333 C25.427716,132.12333 26.628906,133.65422 26.628906,136.71407" id="path260" fill="#58839F" fill-rule="nonzero"></path>
                <path d="M37.852216,141.50995 L36.303956,141.50995 C36.249956,138.89934 36.097656,136.43912 35.852786,134.13894 L35.839286,134.13894 L33.481266,141.50995 L32.303206,141.50995 L29.958676,134.13894 L29.945176,134.13894 C29.771656,136.34851 29.661756,138.8068 29.615476,141.50995 L28.206056,141.50995 C28.296656,138.22066 28.526116,135.13768 28.890526,132.261 L30.808956,132.261 L33.043586,139.05744 L33.055186,139.05744 L35.303316,132.261 L37.140766,132.261 C37.541806,135.63126 37.778956,138.71618 37.852216,141.50995" id="path262" fill="#58839F" fill-rule="nonzero"></path>
                <path d="M44.171056,135.2202 C44.171056,133.96888 43.475026,133.34226 42.086816,133.34226 L41.442846,133.34226 L41.442846,137.13863 L42.115736,137.13863 C43.486596,137.13863 44.171056,136.50044 44.171056,135.2202 M45.719296,135.06981 C45.719296,136.02806 45.432016,136.77808 44.855526,137.31601 C44.198056,137.93878 43.201246,138.2492 41.868946,138.2492 L41.442846,138.2492 L41.442846,141.50956 L39.964016,141.50956 L39.964016,132.26061 C40.193456,132.26061 40.561716,132.25461 41.072656,132.24521 L42.333606,132.24521 C44.591376,132.24521 45.719296,133.18803 45.719296,135.06983" id="path264" fill="#58839F" fill-rule="nonzero"></path>
                <path d="M51.160116,138.46765 C50.649186,136.62249 50.161376,135.00483 49.706356,133.61662 C49.178066,135.37117 48.723036,136.98689 48.350926,138.46765 L51.160116,138.46765 Z M53.462236,141.51014 L51.871576,141.51014 C51.769386,141.07054 51.617076,140.42849 51.406916,139.57821 L48.102206,139.57821 C47.947956,140.18941 47.807206,140.83339 47.678026,141.51014 L46.239686,141.51014 C46.970426,138.41366 47.847696,135.33068 48.871506,132.25926 L50.774506,132.25926 C51.806026,135.28441 52.704506,138.36739 53.462236,141.51014 Z" id="path266" fill="#58839F" fill-rule="nonzero"></path>
                <polygon id="path268" fill="#58839F" fill-rule="nonzero" points="59.821776 133.4244 57.573646 133.4244 57.573646 141.51072 56.092896 141.51072 56.092896 133.4244 53.844766 133.4244 53.844766 132.25984 59.821776 132.25984"></polygon>
                <polygon id="path270" fill="#58839F" fill-rule="nonzero" points="61.161396 141.50976 62.644086 141.50976 62.644086 132.26081 61.161396 132.26081"></polygon>
                <path d="M69.316166,138.75589 C69.316166,137.69738 68.662556,137.16524 67.357256,137.16524 L66.370076,137.16524 L66.370076,140.40054 C66.680496,140.43714 67.046836,140.45454 67.465226,140.45454 C68.699186,140.45454 69.316166,139.88962 69.316166,138.75591 M68.891996,134.61635 C68.891996,133.74872 68.400336,133.3149 67.413166,133.3149 L66.370076,133.3149 L66.370076,136.1376 L67.206866,136.1376 C67.783356,136.1376 68.219096,135.97949 68.521806,135.65943 C68.768596,135.39336 68.891996,135.04631 68.891996,134.61635 M70.879836,138.63252 C70.879836,139.50015 70.586766,140.1904 70.000636,140.70134 C69.352806,141.26048 68.417686,141.53812 67.191436,141.53812 C66.929226,141.53812 66.541676,141.53212 66.036526,141.52462 C65.527516,141.51462 65.155396,141.50922 64.918246,141.50922 L64.918246,132.26027 L67.713946,132.26027 C68.610496,132.26027 69.291106,132.46272 69.755766,132.86376 C70.185726,133.2378 70.399746,133.74874 70.399746,134.3985 C70.399746,135.38374 69.960146,136.07014 69.084806,136.45382 C69.593816,136.53672 70.016056,136.76424 70.343826,137.13829 C70.702456,137.55089 70.879836,138.04833 70.879836,138.63254" id="path272" fill="#58839F" fill-rule="nonzero"></path>
                <polygon id="path274" fill="#58839F" fill-rule="nonzero" points="77.114636 141.50995 72.714776 141.50995 72.714776 132.261 74.195536 132.261 74.195536 140.37239 77.114636 140.37239"></polygon>
                <polygon id="path276" fill="#58839F" fill-rule="nonzero" points="83.131756 141.50995 78.485106 141.50995 78.485106 132.261 83.075836 132.261 83.075836 133.41206 79.963936 133.41206 79.963936 136.21932 82.528266 136.21932 82.528266 137.32989 79.963936 137.32989 79.963936 140.34539 83.131756 140.34539"></polygon>
                <polygon id="path278" fill="#58839F" points="69.854676 108.54748 70.606626 108.54748 70.606626 105.6573 71.593796 105.6573 71.593796 105.06539 68.828946 105.06539 68.828946 105.6573 69.854676 105.6573"></polygon>
                <polygon id="path280" fill="#58839F" points="75.586826 108.54748 76.298286 108.54748 76.298286 105.06539 75.230136 105.06539 74.360576 107.44077 73.413896 105.06539 72.386236 105.06539 72.386236 108.54748 73.055276 108.54748 73.055276 105.89831 73.093876 105.89831 74.086826 108.54748 74.597766 108.54748 75.586866 105.89831"></polygon>
                <path d="M7.611196,123.04213 C7.611196,127.61551 6.066816,131.05326 2.981906,133.35344 L0.749206,131.46008 C1.730586,130.30902 2.389986,128.93431 2.727396,127.33594 C2.952986,126.24079 3.062886,124.72533 3.062886,122.78955 L3.062886,97.5704 L7.611196,97.5704 L7.611196,123.04213 Z" id="path282" fill="#58839F" fill-rule="nonzero"></path>
                <path d="M23.735066,121.14664 L23.735066,116.17994 L21.922686,116.17994 C17.856386,116.17994 15.820346,117.44282 15.820346,119.96666 C15.820346,122.15695 16.900056,123.25209 19.061426,123.25209 C20.547966,123.25209 22.105846,122.55028 23.735066,121.14664 Z M28.028876,125.98802 L24.660536,125.98802 L24.323126,123.71483 C22.248526,125.51179 20.087156,126.41027 17.840956,126.41027 C13.631986,126.41027 11.528456,124.47256 11.528456,120.601 C11.528456,118.38372 12.382596,116.6581 14.094716,115.4222 C15.947596,114.10148 18.656536,113.44208 22.219606,113.44208 L23.735066,113.44208 L23.735066,111.54679 C23.735066,109.04993 22.289016,107.80054 19.398836,107.80054 C17.517046,107.80054 15.469436,108.2093 13.252156,109.02101 L12.621676,106.36992 C15.230356,105.21886 17.885306,104.6443 20.576886,104.6443 C25.543596,104.6443 28.028876,106.76325 28.028876,110.99921 L28.028876,125.98802 Z" id="path284" fill="#58839F" fill-rule="nonzero"></path>
                <path d="M49.079926,105.02278 C47.705216,112.76976 45.541916,119.75708 42.595826,125.9886 L37.249296,125.9886 L30.805686,105.02278 L35.481256,105.02278 L39.478136,117.90421 L40.363126,121.7777 C42.441586,116.05326 43.829796,110.46765 44.531606,105.02278 L49.079926,105.02278 Z" id="path286" fill="#58839F" fill-rule="nonzero"></path>
                <path d="M62.548646,121.14664 L62.548646,116.17994 L60.740116,116.17994 C56.668036,116.17994 54.633926,117.44282 54.633926,119.96666 C54.633926,122.15695 55.715566,123.25209 57.876936,123.25209 C59.365406,123.25209 60.921356,122.55028 62.548646,121.14664 Z M66.844386,125.98802 L63.476046,125.98802 L63.138636,123.71483 C61.060176,125.51179 58.900736,126.41027 56.656466,126.41027 C52.445566,126.41027 50.342036,124.47256 50.342036,120.601 C50.342036,118.38372 51.196176,116.6581 52.908296,115.4222 C54.761176,114.10148 57.470116,113.44208 61.035116,113.44208 L62.548646,113.44208 L62.548646,111.54679 C62.548646,109.04993 61.104526,107.80054 58.214346,107.80054 C56.332546,107.80054 54.284946,108.2093 52.067666,109.02101 L51.435256,106.36992 C54.045856,105.21886 56.698886,104.6443 59.392396,104.6443 C64.361036,104.6443 66.844386,106.76325 66.844386,110.99921 L66.844386,125.98802 Z" id="path288" fill="#58839F" fill-rule="nonzero"></path>
                <path d="M22.751176,71.016636 C22.751176,71.016636 19.247866,73.050756 25.246096,73.741006 C32.512986,74.570076 36.228376,74.452466 44.235646,72.936996 C44.235646,72.936996 46.343026,74.257726 49.281406,75.397216 C31.329156,83.09407 8.649276,74.955686 22.751176,71.016636" id="path290" fill="#58839F" fill-rule="nonzero"></path>
                <path d="M20.557416,60.974096 C20.557416,60.974096 16.628006,63.883556 22.630086,64.502466 C30.392496,65.304546 36.523756,65.370096 47.133926,63.328276 C47.133926,63.328276 48.597326,64.814816 50.907156,65.626526 C29.200946,71.979516 5.024886,66.127826 20.557416,60.974096" id="path292" fill="#58839F" fill-rule="nonzero"></path>
                <path d="M62.796986,78.441056 C62.796986,78.441056 65.390236,80.577356 59.937656,82.23358 C49.576216,85.37054 16.808666,86.31916 7.706256,82.35504 C4.436246,80.934056 10.571366,78.957786 12.501366,78.543246 C14.514266,78.109436 15.665326,78.186556 15.665326,78.186556 C12.023206,75.622226 -7.8571243,83.22075 5.564166,85.39754 C42.170496,91.33214 72.288866,82.72331 62.796986,78.441056" id="path294" fill="#58839F" fill-rule="nonzero"></path>
                <path d="M24.437466,50.569466 C24.437466,50.569466 7.769306,54.531646 18.535646,55.969986 C23.080106,56.575406 32.140106,56.436576 40.581186,55.730906 C47.479816,55.150556 54.405446,53.908876 54.405446,53.908876 C54.405446,53.908876 51.974156,54.955826 50.215756,56.153156 C33.285376,60.606996 0.593026,58.532396 10.003936,53.982146 C17.964936,50.131796 24.437466,50.569466 24.437466,50.569466" id="path296" fill="#58839F" fill-rule="nonzero"></path>
                <path d="M54.338926,67.282166 C71.541166,58.339776 63.589806,49.752156 58.035036,50.907066 C56.675746,51.192426 56.064546,51.437286 56.064546,51.437286 C56.064546,51.437286 56.571626,50.642926 57.535666,50.303586 C68.523736,46.441666 76.972536,61.690766 53.991876,67.733336 C53.991876,67.733336 54.257946,67.496176 54.338926,67.282166" id="path298" fill="#58839F" fill-rule="nonzero"></path>
                <path d="M26.127996,91.51144 C42.643836,92.56803 68.003736,90.92338 68.609146,83.10892 C68.609146,83.10892 67.452306,86.07236 54.956486,88.42653 C40.862296,91.07763 23.473046,90.76528 13.165586,89.06665 C13.165586,89.06665 15.272966,90.81541 26.127996,91.51144" id="path300" fill="#58839F" fill-rule="nonzero"></path>
                </a>
            </g>
            <g id="dart" transform="translate(-185.000000, 70.000000)" fill-rule="nonzero">
                <a href="/dart-add-servicestack-reference">
                <rect x="170" y="300" width="200" height="80" fill="rgba(0,0,0,0)"><title>Dart</title></rect>
                <path d="m 275.85339,327.82282 c 3.77281,3.44114 5.63848,8.16751 5.63848,14.26205 0,6.136 -1.82421,10.98676 -5.5141,14.55227 -3.64843,3.56551 -9.24546,5.34827 -16.74962,5.34827 h -13.22556 v -39.22064 h 13.68161 c 7.00665,0.0415 12.39638,1.61692 16.16919,5.05805 z m -6.46768,23.30021 c 2.1559,-2.03151 3.23384,-4.97513 3.23384,-8.87232 0,-3.85573 -1.07794,-6.92373 -3.23384,-8.9967 -2.15589,-2.07297 -5.47264,-3.19238 -9.95026,-3.19238 h -5.05805 v 24.08794 h 5.7214 c 4.02157,0 7.13102,-0.99503 9.28691,-3.02654 z"
                    style="fill:#231f20;stroke-width:0.41459444" />
                <path d="m 312.66937,362.02687 h -7.83583 v -3.73135 c -2.23881,2.73632 -4.85076,4.10448 -8.04313,4.10448 -3.19238,0 -5.88724,-0.91211 -8.08459,-2.77778 -2.19735,-1.86568 -3.2753,-4.35324 -3.2753,-7.42124 0,-3.10946 1.1194,-5.38973 3.39967,-6.92373 2.23881,-1.534 5.34827,-2.28027 9.24546,-2.28027 h 6.21892 v -0.24876 c 0,-3.23383 -1.65838,-4.85075 -5.05806,-4.85075 -1.45108,0 -2.98508,0.29021 -4.64345,0.87065 -1.61692,0.58043 -2.98508,1.28524 -4.14595,2.15589 l -3.77281,-5.47265 c 3.98011,-2.90216 8.54065,-4.35324 13.64016,-4.35324 3.68989,0 6.59205,0.91211 8.95524,2.77778 2.32173,1.82422 3.39967,4.76784 3.39967,8.74795 z m -8.41626,-11.65011 v -1.24378 h -5.26535 c -3.39968,0 -5.05805,0.95357 -5.05805,3.02654 0,1.07794 0.41459,1.86567 1.20232,2.4461 0.78773,0.58044 1.94859,0.82919 3.48259,0.82919 1.49254,0 2.81925,-0.45605 3.93865,-1.40962 1.16086,-0.87065 1.69984,-2.11443 1.69984,-3.64843 z"
                    style="fill:#231f20;stroke-width:0.41459444" />
                <path d="m 334.9331,339.05833 c -2.52903,0 -4.51908,0.87065 -5.76287,2.69487 -1.24378,1.78275 -1.99005,4.14594 -1.99005,7.08956 v 13.22556 h -8.41627 v -30.22393 h 8.41627 v 3.85573 c 1.11941,-1.24379 2.6534,-2.28027 4.27032,-3.15092 1.61692,-0.87065 3.56552,-1.3267 5.22389,-1.36816 v 7.96021 l -1.74129,-0.0829 z"
                    style="fill:#231f20;stroke-width:0.41459444" />
                <path d="m 350.19017,337.93893 v 13.34994 c 0,1.16086 0.33168,2.07297 0.95357,2.73632 0.58043,0.66335 1.3267,0.99503 2.15589,0.99503 1.57546,0 2.90216,-0.70481 4.02157,-2.15589 l 3.15091,5.9287 c -2.61194,2.40465 -5.38972,3.60697 -8.29188,3.60697 -2.90217,0 -5.34827,-0.95357 -7.37979,-2.8607 -2.03151,-1.90714 -2.98508,-4.51908 -2.98508,-7.83584 v -28.85577 h 8.41627 v 8.41627 h 8.95524 l -4.602,6.71643 -4.3947,-0.0415 z"
                    style="fill:#231f20;stroke-width:0.41459444" />
                <path d="m 200.35574,328.94223 -2.94362,-2.94362 v 21.22723 l 0.0415,0.99503 c 0,0.45605 0.0829,0.99503 0.24876,1.534 l 23.3002,8.20897 5.80433,-2.57049 v 0 z"
                    style="fill:#00c4b3;stroke-width:0.41459444" />
                <path d="m 197.70234,349.75487 v 0 c 0,0 0,0 0,0 0,0 0,0 0,0 z m 29.10453,5.63848 -5.80433,2.57049 -23.25875,-8.20897 c 0.45606,1.69984 1.40963,3.60697 2.48757,4.68492 l 7.58708,7.54562 16.91545,0.0415 2.07298,-6.63352 z"
                    style="fill:#22d3c5;stroke-width:0.41459444" />
                <path d="m 197.49504,325.99861 -9.03816,13.68161 c -0.74627,0.78773 -0.37314,2.44611 0.82919,3.6899 l 5.22389,5.26534 3.27529,1.16087 c -0.12437,-0.53897 -0.24875,-1.07795 -0.24875,-1.534 l -0.0415,-0.99503 v -21.26869 z"
                    style="fill:#0075c9;stroke-width:0.41459444" />
                <path d="m 221.16838,326.24736 c -0.53897,-0.12437 -1.07794,-0.20729 -1.534,-0.24875 l -1.03648,-0.0415 h -21.18578 l 29.39475,29.39474 v 0 l 2.57048,-5.80432 z"
                    style="fill:#0075c9;stroke-width:0.41459444" />
                <path d="m 221.12692,326.24736 c 0.0415,0 0.0415,0 0,0 v 0 c 0.0415,0 0.0415,0 0,0 z m 4.72638,2.48757 c -1.07795,-1.07794 -2.94362,-2.07297 -4.68492,-2.48757 l 8.20897,23.30021 -2.57048,5.80432 v 0 l 6.30183,-2.03151 v -17.28859 z"
                    style="fill:#00a8e1;stroke-width:0.41459444" />
                <path d="m 220.00752,323.01353 -5.26535,-5.22389 c -1.20233,-1.20233 -2.8607,-1.57546 -3.68989,-0.82919 l -13.68162,9.03816 h 21.18578 l 1.03648,0.0415 c 0.45606,0 0.99503,0.0829 1.534,0.24875 z"
                    style="fill:#00c4b3;stroke-width:0.41459444" />
                </a>
            </g>
            <g id="python" transform="translate(600.000000, 390.000000) scale(0.45)" fill-rule="nonzero">
                <a href="/python-add-servicestack-reference">
                <rect x="0" y="0" width="480" height="120" fill="rgba(0,0,0,0)"><title>Python</title></rect>
                <defs>
                    <linearGradient id="c">
                        <stop offset="0" stop-color="#b8b8b8" stop-opacity=".498"/>
                        <stop offset="1" stop-color="#7f7f7f" stop-opacity="0"/>
                    </linearGradient>
                    <linearGradient id="a">
                        <stop offset="0" stop-color="#ffd43b"/>
                        <stop offset="1" stop-color="#ffe873"/>
                    </linearGradient>
                    <linearGradient id="b">
                        <stop offset="0" stop-color="#5a9fd4"/>
                        <stop offset="1" stop-color="#306998"/>
                    </linearGradient>
                    <linearGradient gradientTransform="matrix(.56254 0 0 .56797 -9.4 -5.305)" gradientUnits="userSpaceOnUse" xlink:href="#a" id="e" y2="137.273" x2="112.031" y1="192.352" x1="150.961"/>
                    <linearGradient gradientTransform="matrix(.56254 0 0 .56797 -9.4 -5.305)" gradientUnits="userSpaceOnUse" xlink:href="#b" id="d" y2="114.398" x2="135.665" y1="20.604" x1="26.649"/>
                    <radialGradient gradientTransform="matrix(0 -.2964 1.43676 0 -128.544 150.52)" gradientUnits="userSpaceOnUse" xlink:href="#c" id="f" fy="132.286" fx="61.519" r="29.037" cy="132.286" cx="61.519"/>
                </defs>
                <path d="M179.022 58.668c0-14.562-4.152-22.038-12.457-22.448a23.4 23.4 0 00-9.669 1.589c-2.505.897-4.191 1.784-5.078 2.68v34.759c5.312 3.333 10.03 4.883 14.143 4.64 8.704-.576 13.061-7.643 13.061-21.22zm10.244.604c0 7.398-1.735 13.539-5.224 18.422-3.89 5.527-9.28 8.373-16.17 8.529-5.196.165-10.547-1.462-16.054-4.874v31.59l-8.909-3.177v-70.12c1.462-1.794 3.343-3.334 5.624-4.64 5.303-3.09 11.745-4.679 19.329-4.757l.126.127c6.93-.088 12.272 2.758 16.025 8.529 3.499 5.292 5.253 12.076 5.253 20.371zm54.447 20.732c0 9.923-.994 16.794-2.982 20.615-1.998 3.821-5.8 6.872-11.414 9.143-4.552 1.793-9.474 2.768-14.757 2.934l-1.472-5.614c5.37-.732 9.153-1.463 11.346-2.194 4.318-1.462 7.28-3.703 8.909-6.706 1.306-2.446 1.949-7.115 1.949-14.026v-2.32c-6.092 2.769-12.476 4.143-19.153 4.143-4.386 0-8.256-1.374-11.59-4.142-3.742-3.012-5.614-6.833-5.614-11.463V33.296l8.91-3.05v37.32c0 3.987 1.286 7.058 3.86 9.212 2.572 2.154 5.906 3.187 9.99 3.11 4.084-.089 8.46-1.668 13.11-4.757V31.59h8.908zm34.778 5.731a35.662 35.662 0 01-2.934.127c-5.039 0-8.967-1.199-11.774-3.606-2.798-2.408-4.201-5.732-4.201-9.972v-35.09h-6.102V31.59h6.102V16.707l8.899-3.168V31.59h10.01v5.605h-10.01V72.04c0 3.343.897 5.712 2.69 7.096 1.54 1.14 3.987 1.793 7.32 1.959zm53.941-.731h-8.91V50.617c0-3.5-.818-6.511-2.446-9.026-1.881-2.846-4.493-4.27-7.846-4.27-4.084 0-9.192 2.155-15.323 6.463v41.22h-8.909V2.807L297.908 0v37.439c5.692-4.143 11.91-6.22 18.665-6.22 4.718 0 8.538 1.59 11.463 4.758 2.933 3.167 4.396 7.115 4.396 11.832zm47.351-27.74c0-5.595-1.063-10.215-3.178-13.87-2.514-4.454-6.423-6.803-11.706-7.047-9.767.565-14.64 7.564-14.64 20.976 0 6.15 1.014 11.287 3.06 15.41 2.613 5.253 6.531 7.846 11.756 7.758 9.805-.078 14.708-7.817 14.708-23.227zm9.757.059c0 7.963-2.037 14.591-6.102 19.884-4.474 5.926-10.654 8.899-18.539 8.899-7.817 0-13.909-2.973-18.305-8.9-3.987-5.292-5.975-11.92-5.975-19.883 0-7.486 2.154-13.783 6.462-18.91 4.552-5.439 10.537-8.168 17.935-8.168 7.398 0 13.422 2.73 18.061 8.168 4.309 5.127 6.463 11.424 6.463 18.91zm51.074 27.681h-8.908V48.667c0-3.986-1.2-7.096-3.597-9.337-2.398-2.233-5.595-3.315-9.581-3.227-4.23.078-8.256 1.462-12.077 4.143v44.758h-8.909v-45.86c5.127-3.733 9.845-6.17 14.153-7.31 4.064-1.062 7.651-1.589 10.741-1.589 2.115 0 4.104.205 5.975.614 3.5.81 6.345 2.31 8.539 4.513 2.446 2.437 3.664 5.361 3.664 8.782z" fill="#646464"/>
                <path d="M60.51 6.398c-4.583.021-8.96.412-12.812 1.094-11.347 2.004-13.407 6.2-13.407 13.937v10.219h26.813v3.406H24.229c-7.793 0-14.616 4.684-16.75 13.594-2.462 10.213-2.571 16.586 0 27.25 1.906 7.938 6.457 13.594 14.25 13.594h9.219v-12.25c0-8.85 7.657-16.657 16.75-16.657h26.78c7.456 0 13.407-6.138 13.407-13.625V21.43c0-7.267-6.13-12.726-13.406-13.938-4.606-.767-9.385-1.115-13.969-1.094zm-14.5 8.219c2.77 0 5.031 2.298 5.031 5.125 0 2.816-2.261 5.093-5.03 5.093-2.78 0-5.032-2.277-5.032-5.093 0-2.827 2.252-5.125 5.031-5.125z" fill="url(#d)" transform="translate(-5.591 -3.262)"/>
                <path d="M91.229 35.054V46.96c0 9.231-7.826 17-16.75 17H47.698c-7.336 0-13.407 6.279-13.407 13.625v25.532c0 7.266 6.319 11.54 13.407 13.625 8.487 2.495 16.626 2.946 26.78 0 6.751-1.955 13.407-5.888 13.407-13.625V92.898H61.104v-3.406h40.187c7.793 0 10.697-5.436 13.407-13.594 2.799-8.399 2.68-16.476 0-27.25-1.926-7.757-5.604-13.594-13.407-13.594zM76.166 99.71c2.78 0 5.032 2.278 5.032 5.094 0 2.827-2.252 5.125-5.032 5.125-2.77 0-5.03-2.298-5.03-5.125 0-2.816 2.26-5.094 5.03-5.094z" fill="url(#e)" transform="translate(-5.591 -3.262)"/>
                </a>
            </g>
        </g>
    </g>
</svg>